0
SECTION
2
HEADER
9
$INSUNITS
70
4
9
$ACADVER
1
AC1014
9
$HANDSEED
5
FFFF
0
ENDSEC
0
SECTION
2
TABLES
0
TABLE
2
VPORT
5
8
100
AcDbSymbolTable
0
ENDTAB
0
TABLE
2
LTYPE
5
5
100
AcDbSymbolTable
0
LTYPE
5
14
100
AcDbSymbolTableRecord
100
AcDbLinetypeTableRecord
2
BYBLOCK
70
0
0
LTYPE
5
15
100
AcDbSymbolTableRecord
100
AcDbLinetypeTableRecord
2
BYLAYER
70
0
0
ENDTAB
0
TABLE
2
LAYER
5
2
100
AcDbSymbolTable
70
2
0
LAYER
5
50
100
AcDbSymbolTableRecord
100
AcDbLayerTableRecord
2
0
70
0
6
CONTINUOUS
0
ENDTAB
0
TABLE
2
STYLE
5
3
100
AcDbSymbolTable
70
1
0
STYLE
5
11
100
AcDbSymbolTableRecord
100
AcDbTextStyleTableRecord
2
STANDARD
70
0
0
ENDTAB
0
TABLE
2
VIEW
5
6
100
AcDbSymbolTable
70
0
0
ENDTAB
0
TABLE
2
UCS
5
7
100
AcDbSymbolTable
70
0
0
ENDTAB
0
TABLE
2
APPID
5
9
100
AcDbSymbolTable
70
2
0
APPID
5
12
100
AcDbSymbolTableRecord
100
AcDbRegAppTableRecord
2
ACAD
70
0
0
ENDTAB
0
TABLE
2
DIMSTYLE
5
A
100
AcDbSymbolTable
70
1
0
ENDTAB
0
TABLE
2
BLOCK_RECORD
5
1
100
AcDbSymbolTable
70
1
0
BLOCK_RECORD
5
1F
100
AcDbSymbolTableRecord
100
AcDbBlockTableRecord
2
*MODEL_SPACE
0
BLOCK_RECORD
5
1B
100
AcDbSymbolTableRecord
100
AcDbBlockTableRecord
2
*PAPER_SPACE
0
ENDTAB
0
ENDSEC
0
SECTION
2
BLOCKS
0
BLOCK
5
20
100
AcDbEntity
100
AcDbBlockBegin
2
*MODEL_SPACE
0
ENDBLK
5
21
100
AcDbEntity
100
AcDbBlockEnd
0
BLOCK
5
1C
100
AcDbEntity
100
AcDbBlockBegin
2
*PAPER_SPACE
0
ENDBLK
5
1D
100
AcDbEntity
100
AcDbBlockEnd
0
ENDSEC
0
SECTION
2
ENTITIES
0
LWPOLYLINE
5
100
100
AcDbEntity
8
0
100
AcDbPolyline
90
8
70
1
43
0.0
10
168.92500000000001
20
-16.024999999999981
10
168.92500000000001
20
-3.0249999999999795
42
0.41421356237310608
10
168.42500000000001
20
-2.5249999999999528
10
155.42500000000001
20
-2.5249999999999719
42
0.41421356237302576
10
154.92500000000004
20
-3.0249999999999835
10
154.92500000000001
20
-16.024999999999981
42
0.4142135623730534
10
155.42500000000001
20
-16.524999999999988
10
168.42500000000001
20
-16.525000000000013
42
0.41421356237286872
0
LWPOLYLINE
5
101
100
AcDbEntity
8
0
100
AcDbPolyline
90
8
70
1
43
0.0
10
168.92500000000001
20
-3.0249999999999795
42
0.41421356237310641
10
168.42500000000001
20
-2.5249999999999528
10
155.42500000000001
20
-2.5249999999999719
42
0.41421356237302576
10
154.92500000000004
20
-3.0249999999999835
10
154.92500000000001
20
-16.024999999999981
42
0.4142135623730534
10
155.42500000000001
20
-16.524999999999988
10
168.42500000000001
20
-16.525000000000013
42
0.41421356237294676
10
168.92500000000001
20
-16.024999999999981
0
LWPOLYLINE
5
102
100
AcDbEntity
8
0
100
AcDbPolyline
90
8
70
1
43
0.0
10
135.875
20
-16.024999999999984
42
0.4142135623730534
10
136.375
20
-16.524999999999991
10
149.375
20
-16.524999999999984
42
0.41421356237315227
10
149.875
20
-16.024999999999984
10
149.875
20
-3.0249999999999817
42
0.4142135623730937
10
149.375
20
-2.5249999999999768
10
136.375
20
-2.5249999999999888
42
0.41421356237306611
10
135.875
20
-3.0249999999999853
0
LWPOLYLINE
5
103
100
AcDbEntity
8
0
100
AcDbPolyline
90
8
70
1
43
0.0
10
149.875
20
-16.024999999999984
10
149.875
20
-3.0249999999999817
42
0.41421356237309342
10
149.375
20
-2.5249999999999768
10
136.375
20
-2.5249999999999888
42
0.41421356237306611
10
135.875
20
-3.0249999999999853
10
135.875
20
-16.024999999999984
42
0.4142135623730534
10
136.375
20
-16.524999999999991
10
149.375
20
-16.524999999999984
42
0.41421356237315227
0
LWPOLYLINE
5
104
100
AcDbEntity
8
0
100
AcDbPolyline
90
64
70
1
43
0.0
10
127.82500000000002
20
-59.674999999999969
42
-0.41421356237312101
10
127.32500000000002
20
-59.174999999999955
10
127.32500000000002
20
-58.174999999999969
42
0.41421356237308982
10
126.82500000000005
20
-57.674999999999969
10
120.82500000000003
20
-57.674999999999976
42
0.414213562373069
10
120.32500000000002
20
-58.174999999999969
10
120.325
20
-59.174999999999955
42
-0.41421356237311063
10
119.82500000000002
20
-59.674999999999969
10
118.3
20
-59.674999999999983
42
-0.414213562373069
10
117.80000000000003
20
-59.174999999999955
10
117.80000000000001
20
-58.174999999999969
42
0.41421356237310025
10
117.30000000000001
20
-57.674999999999969
10
108.887
20
-57.674999999999969
42
0.41421356237310542
10
108.38700000000001
20
-58.174999999999983
10
108.38700000000001
20
-59.174999999999976
42
-0.41421356237307422
10
107.887
20
-59.674999999999983
10
101.663
20
-59.675000000000004
42
-0.41421356237312623
10
101.16300000000001
20
-59.174999999999997
10
101.16300000000001
20
-58.174999999999983
42
0.41421356237310542
10
100.66299999999998
20
-57.674999999999976
10
82.724999999999952
20
-57.674999999999976
42
0.414213562373069
10
82.224999999999966
20
-58.174999999999983
10
82.224999999999966
20
-59.174999999999997
42
-0.41421356237304302
10
81.72499999999998
20
-59.675000000000004
10
77.786999999999992
20
-59.675000000000011
42
-0.41421356237308982
10
77.28700000000002
20
-59.174999999999997
10
77.28700000000002
20
-58.174999999999983
42
0.41421356237311585
10
76.786999999999992
20
-57.674999999999976
10
63.643250000000016
20
-57.674999999999976
42
0.41421356237311585
10
63.143250000000009
20
-58.174999999999983
10
63.143250000000009
20
-59.174999999999997
42
-0.414213562373069
10
62.643250000000009
20
-59.675000000000004
10
61.150000000000027
20
-59.675000000000011
42
-0.41421356237310025
10
60.65000000000002
20
-59.174999999999997
10
60.65000000000002
20
-58.174999999999983
42
0.41421356237311063
10
60.15000000000002
20
-57.674999999999976
10
54.150000000000006
20
-57.674999999999976
42
0.41421356237311063
10
53.650000000000027
20
-58.174999999999983
10
53.650000000000027
20
-59.174999999999997
42
-0.41421356237307422
10
53.15000000000002
20
-59.675000000000004
10
31.600000000000009
20
-59.674999999999983
42
0.41421356237309503
10
31.100000000000001
20
-60.174999999999983
10
31.100000000000012
20
-73.174999999999983
42
0.41421356237309764
10
31.600000000000009
20
-73.674999999999983
10
177.94999999999999
20
-73.674999999999969
42
0.41421356237316787
10
178.44999999999999
20
-73.174999999999969
10
178.44999999999999
20
-60.174999999999969
42
0.41421356237316787
10
177.95000000000005
20
-59.674999999999983
10
156.40000000000003
20
-59.674999999999983
42
-0.41421356237309503
10
155.90000000000001
20
-59.174999999999983
10
155.90000000000003
20
-58.174999999999969
42
0.41421356237301699
10
155.40000000000006
20
-57.674999999999955
10
149.40000000000003
20
-57.674999999999969
42
0.41421356237309503
10
148.90000000000001
20
-58.174999999999969
10
148.90000000000001
20
-59.174999999999983
42
-0.41421356237307944
10
148.40000000000003
20
-59.675000000000004
10
142.14425000000006
20
-59.675000000000004
42
-0.41421356237307944
10
141.64425
20
-59.174999999999983
10
141.64425
20
-58.174999999999969
42
0.41421356237310025
10
141.14425
20
-57.674999999999969
10
132.76299999999998
20
-57.674999999999976
42
0.4142135623730378
10
132.26300000000006
20
-58.174999999999969
10
132.26300000000006
20
-59.174999999999955
42
-0.41421356237309503
10
131.76300000000001
20
-59.674999999999969
0
LWPOLYLINE
5
105
100
AcDbEntity
8
0
100
AcDbPolyline
90
64
70
1
43
0.0
10
53.650000000000027
20
-59.174999999999997
42
-0.41421356237307422
10
53.15000000000002
20
-59.675000000000004
10
31.600000000000009
20
-59.674999999999983
42
0.41421356237308982
10
31.100000000000001
20
-60.174999999999983
10
31.100000000000012
20
-73.174999999999983
42
0.41421356237309764
10
31.600000000000009
20
-73.674999999999983
10
177.94999999999999
20
-73.674999999999969
42
0.41421356237316787
10
178.44999999999999
20
-73.174999999999969
10
178.44999999999999
20
-60.174999999999969
42
0.41421356237315748
10
177.95000000000005
20
-59.674999999999983
10
156.40000000000003
20
-59.674999999999983
42
-0.41421356237309503
10
155.90000000000001
20
-59.174999999999983
10
155.90000000000003
20
-58.174999999999969
42
0.41421356237301699
10
155.40000000000006
20
-57.674999999999955
10
149.40000000000003
20
-57.674999999999969
42
0.41421356237309503
10
148.90000000000001
20
-58.174999999999969
10
148.90000000000001
20
-59.174999999999983
42
-0.41421356237307944
10
148.40000000000003
20
-59.675000000000004
10
142.14425000000006
20
-59.675000000000004
42
-0.41421356237307944
10
141.64425
20
-59.174999999999983
10
141.64425
20
-58.174999999999969
42
0.41421356237310025
10
141.14425
20
-57.674999999999969
10
132.76299999999998
20
-57.674999999999976
42
0.4142135623730378
10
132.26300000000006
20
-58.174999999999969
10
132.26300000000006
20
-59.174999999999955
42
-0.41421356237309503
10
131.76300000000001
20
-59.674999999999969
10
127.82500000000002
20
-59.674999999999969
42
-0.41421356237312101
10
127.32500000000002
20
-59.174999999999955
10
127.32500000000002
20
-58.174999999999969
42
0.41421356237308982
10
126.82500000000005
20
-57.674999999999969
10
120.82500000000003
20
-57.674999999999976
42
0.414213562373069
10
120.32500000000002
20
-58.174999999999969
10
120.325
20
-59.174999999999955
42
-0.41421356237311063
10
119.82500000000002
20
-59.674999999999969
10
118.3
20
-59.674999999999983
42
-0.414213562373069
10
117.80000000000003
20
-59.174999999999955
10
117.80000000000001
20
-58.174999999999969
42
0.41421356237310025
10
117.30000000000001
20
-57.674999999999969
10
108.887
20
-57.674999999999969
42
0.41421356237310542
10
108.38700000000001
20
-58.174999999999983
10
108.38700000000001
20
-59.174999999999976
42
-0.41421356237307422
10
107.887
20
-59.674999999999983
10
101.663
20
-59.675000000000004
42
-0.41421356237312623
10
101.16300000000001
20
-59.174999999999997
10
101.16300000000001
20
-58.174999999999983
42
0.41421356237310542
10
100.66299999999998
20
-57.674999999999976
10
82.724999999999952
20
-57.674999999999976
42
0.414213562373069
10
82.224999999999966
20
-58.174999999999983
10
82.224999999999966
20
-59.174999999999997
42
-0.41421356237304302
10
81.72499999999998
20
-59.675000000000004
10
77.786999999999992
20
-59.675000000000011
42
-0.41421356237308982
10
77.28700000000002
20
-59.174999999999997
10
77.28700000000002
20
-58.174999999999983
42
0.41421356237311585
10
76.786999999999992
20
-57.674999999999976
10
63.643250000000016
20
-57.674999999999976
42
0.41421356237311585
10
63.143250000000009
20
-58.174999999999983
10
63.143250000000009
20
-59.174999999999997
42
-0.414213562373069
10
62.643250000000009
20
-59.675000000000004
10
61.150000000000027
20
-59.675000000000011
42
-0.41421356237310025
10
60.65000000000002
20
-59.174999999999997
10
60.65000000000002
20
-58.174999999999983
42
0.41421356237313145
10
60.15000000000002
20
-57.674999999999976
10
54.150000000000006
20
-57.674999999999976
42
0.41421356237311063
10
53.650000000000027
20
-58.174999999999983
0
CIRCLE
5
106
100
AcDbEntity
8
0
100
AcDbCircle
10
191.04999999999995
20
-66.300000000000068
30
0
40
1.1499999999999844
210
0
220
0
230
1
0
LWPOLYLINE
5
107
100
AcDbEntity
8
0
100
AcDbPolyline
90
8
70
1
43
0.0
10
193.52500000000006
20
-2.5249999999999662
42
0.41421356237301471
10
193.02500000000006
20
-3.0249999999999782
10
193.02500000000009
20
-16.024999999999977
42
0.41421356237299356
10
193.52500000000006
20
-16.524999999999984
10
206.52500000000003
20
-16.525000000000009
42
0.41421356237291945
10
207.02500000000001
20
-16.024999999999977
10
207.02500000000003
20
-3.0249999999999746
42
0.41421356237310641
10
206.52500000000003
20
-2.5249999999999515
0
LWPOLYLINE
5
108
100
AcDbEntity
8
0
100
AcDbPolyline
90
8
70
1
43
0.0
10
193.02500000000009
20
-16.024999999999977
42
0.41421356237295065
10
193.52500000000006
20
-16.524999999999984
10
206.52500000000003
20
-16.525000000000009
42
0.41421356237291945
10
207.02500000000001
20
-16.024999999999977
10
207.02500000000003
20
-3.0249999999999746
42
0.41421356237310608
10
206.52500000000003
20
-2.5249999999999515
10
193.52500000000006
20
-2.5249999999999662
42
0.41421356237301471
10
193.02500000000006
20
-3.0249999999999782
0
CIRCLE
5
109
100
AcDbEntity
8
0
100
AcDbCircle
10
190.5
20
6.5750000000000197
30
0
40
1.1499999999999844
210
0
220
0
230
1
0
CIRCLE
5
110
100
AcDbEntity
8
0
100
AcDbCircle
10
19.049999999999976
20
6.5749999999999194
30
0
40
1.1499999999999908
210
0
220
0
230
1
0
CIRCLE
5
111
100
AcDbEntity
8
0
100
AcDbCircle
10
18.500000000000092
20
-66.300000000000153
30
0
40
1.1499999999999932
210
0
220
0
230
1
0
LWPOLYLINE
5
112
100
AcDbEntity
8
0
100
AcDbPolyline
90
8
70
1
43
0.0
10
117.32500000000002
20
-16.524999999999995
10
130.32499999999999
20
-16.524999999999988
42
0.41421356237315227
10
130.82499999999999
20
-16.024999999999984
10
130.82499999999999
20
-3.0249999999999839
42
0.41421356237309342
10
130.32499999999999
20
-2.524999999999979
10
117.32500000000002
20
-2.5249999999999977
42
0.41421356237306967
10
116.82500000000003
20
-3.0249999999999835
10
116.82500000000003
20
-16.024999999999988
42
0.41421356237303647
0
LWPOLYLINE
5
113
100
AcDbEntity
8
0
100
AcDbPolyline
90
8
70
1
43
0.0
10
130.32499999999999
20
-16.524999999999988
42
0.41421356237315227
10
130.82499999999999
20
-16.024999999999984
10
130.82499999999999
20
-3.0249999999999839
42
0.4142135623730937
10
130.32499999999999
20
-2.524999999999979
10
117.32500000000002
20
-2.5249999999999977
42
0.41421356237306967
10
116.82500000000003
20
-3.0249999999999835
10
116.82500000000003
20
-16.024999999999988
42
0.41421356237302737
10
117.32500000000002
20
-16.524999999999995
0
LWPOLYLINE
5
114
100
AcDbEntity
8
0
100
AcDbPolyline
90
40
70
1
43
0.0
10
21.699999999999939
20
1.074999999999934
42
0.41421356237309764
10
22.199999999999953
20
0.57499999999992235
10
187.35000000000011
20
0.57500000000001772
42
0.41421356237309503
10
187.84999999999999
20
1.0750000000000182
10
187.85000000000002
20
6.5750000000000188
42
-0.99999999999999989
10
193.15000000000001
20
6.5750000000000206
10
193.15000000000001
20
1.0750000000000319
42
0.41421356237309492
10
193.65000000000003
20
0.57500000000002494
10
207.02500000000001
20
0.57500000000001994
42
-0.4142135623731053
10
210.12500000000003
20
-2.5249999999999684
10
210.12500000000003
20
-54.624999999999979
42
-0.41421356237310508
10
207.02500000000001
20
-57.72499999999998
10
182.75000000000003
20
-57.724999999999994
42
0.41421356237309503
10
181.54999999999998
20
-58.925000000000047
10
181.55000000000001
20
-63.150000000000091
42
0.41421356237309503
10
182.05000000000001
20
-63.650000000000105
10
191.04999999999995
20
-63.650000000000063
42
-0.99999999999999989
10
191.04999999999995
20
-68.950000000000045
10
182.05000000000001
20
-68.950000000000088
42
0.41421356237309503
10
181.55000000000001
20
-69.450000000000088
10
181.55000000000001
20
-73.675000000000054
42
-0.41421356237309503
10
178.45000000000005
20
-76.775000000000006
10
31.100000000000001
20
-76.775000000000034
42
-0.41421356237309331
10
28.000000000000021
20
-73.67500000000004
10
28.000000000000078
20
-69.450000000000188
42
0.41421356237309503
10
27.500000000000078
20
-68.950000000000188
10
18.500000000000092
20
-68.950000000000159
42
-0.99999999999999989
10
18.500000000000092
20
-63.650000000000162
10
27.500000000000064
20
-63.650000000000198
42
0.41421356237309503
10
28.00000000000006
20
-63.150000000000198
10
28.000000000000011
20
-58.924999999999997
42
0.41421356237309725
10
26.800000000000011
20
-57.725000000000009
10
2.5250000000000066
20
-57.725000000000001
42
-0.41421356237309126
10
-0.57499999999996776
20
-54.625
10
-0.57500000000000662
20
-2.5249999999999955
42
-0.41421356237309276
10
2.5249999999999773
20
0.57500000000000129
10
15.900000000000002
20
0.57499999999993234
42
0.41421356237309631
10
16.400000000000006
20
1.0749999999999327
10
16.400000000000006
20
6.5749999999999176
42
-0.99999999999999989
10
21.699999999999946
20
6.574999999999922
0
CIRCLE
5
115
100
AcDbEntity
8
0
100
AcDbCircle
10
191.04999999999995
20
-66.300000000000068
30
0
40
1.1499999999999884
210
0
220
0
230
1
0
CIRCLE
5
116
100
AcDbEntity
8
0
100
AcDbCircle
10
18.500000000000092
20
-66.300000000000153
30
0
40
1.1499999999999946
210
0
220
0
230
1
0
LINE
5
117
100
AcDbEntity
8
0
100
AcDbLine
10
193.15000000000001
20
6.5750000000000206
30
0
11
193.15000000000001
21
1.0750000000000317
31
0
0
LINE
5
118
100
AcDbEntity
8
0
100
AcDbLine
10
193.65000000000003
20
0.57500000000002494
30
0
11
207.02500000000001
21
0.57500000000001972
31
0
0
LINE
5
119
100
AcDbEntity
8
0
100
AcDbLine
10
191.04999999999995
20
-68.950000000000045
30
0
11
182.05000000000001
21
-68.950000000000088
31
0
0
LINE
5
120
100
AcDbEntity
8
0
100
AcDbLine
10
187.35000000000011
20
0.57500000000001783
30
0
11
22.199999999999953
21
0.57499999999992235
31
0
0
CIRCLE
5
121
100
AcDbEntity
8
0
100
AcDbCircle
10
19.049999999999976
20
6.5749999999999194
30
0
40
1.1499999999999913
210
0
220
0
230
1
0
LINE
5
122
100
AcDbEntity
8
0
100
AcDbLine
10
2.5249999999999773
20
0.57500000000000129
30
0
11
15.900000000000002
21
0.57499999999993245
31
0
0
LINE
5
123
100
AcDbEntity
8
0
100
AcDbLine
10
187.84999999999999
20
6.5750000000000943
30
0
11
187.84999999999999
21
1.0750000000000179
31
0
0
LINE
5
124
100
AcDbEntity
8
0
100
AcDbLine
10
18.500000000000092
20
-63.650000000000162
30
0
11
27.500000000000064
21
-63.650000000000198
31
0
0
LINE
5
125
100
AcDbEntity
8
0
100
AcDbLine
10
-0.57499999999996776
20
-54.625
30
0
11
-0.57500000000000639
21
-2.524999999999995
31
0
0
LINE
5
126
100
AcDbEntity
8
0
100
AcDbLine
10
26.800000000000011
20
-57.725000000000009
30
0
11
2.5250000000000066
21
-57.725000000000009
31
0
0
LINE
5
127
100
AcDbEntity
8
0
100
AcDbLine
10
210.12500000000003
20
-2.5249999999999693
30
0
11
210.12500000000003
21
-54.624999999999979
31
0
0
LINE
5
128
100
AcDbEntity
8
0
100
AcDbLine
10
191.04999999999995
20
-63.650000000000055
30
0
11
182.05000000000001
21
-63.650000000000105
31
0
0
CIRCLE
5
129
100
AcDbEntity
8
0
100
AcDbCircle
10
190.5
20
6.5750000000000197
30
0
40
1.1499999999999899
210
0
220
0
230
1
0
LINE
5
130
100
AcDbEntity
8
0
100
AcDbLine
10
18.500000000000092
20
-68.950000000000159
30
0
11
27.500000000000078
21
-68.950000000000188
31
0
0
LINE
5
131
100
AcDbEntity
8
0
100
AcDbLine
10
178.45000000000005
20
-76.775000000000006
30
0
11
31.100000000000001
21
-76.77500000000002
31
0
0
LINE
5
132
100
AcDbEntity
8
0
100
AcDbLine
10
16.400000000000006
20
6.5749999999999549
30
0
11
16.400000000000006
21
1.0749999999999325
31
0
0
LINE
5
133
100
AcDbEntity
8
0
100
AcDbLine
10
207.02500000000001
20
-57.72499999999998
30
0
11
182.75000000000003
21
-57.72499999999998
31
0
0
ARC
5
134
100
AcDbEntity
8
0
100
AcDbCircle
10
26.800000000000018
20
-58.924999999999997
30
0
40
1.1999999999999922
210
0
220
-0
230
1
100
AcDbArc
50
0
51
90.000000000000341
0
LWPOLYLINE
5
135
100
AcDbEntity
8
0
100
AcDbPolyline
90
8
70
1
43
0.0
10
16.024999999999999
20
-2.5249999999999968
10
3.0250000000000004
20
-2.524999999999999
42
0.41421356237309698
10
2.5250000000000004
20
-3.0250000000000017
10
2.525000000000003
20
-16.025000000000002
42
0.41421356237310086
10
3.0250000000000221
20
-16.525000000000002
10
16.025000000000002
20
-16.525000000000002
42
0.41421356237308982
10
16.525000000000006
20
-16.024999999999999
10
16.525000000000002
20
-3.0249999999999977
42
0.41421356237309176
0
ARC
5
136
100
AcDbEntity
8
0
100
AcDbCircle
10
191.04999999999995
20
-66.300000000000068
30
0
40
2.6499999999999968
210
-0
220
0
230
1
100
AcDbArc
50
-90
51
90
0
LINE
5
137
100
AcDbEntity
8
0
100
AcDbLine
10
21.699999999999939
20
1.0749999999999338
30
0
11
21.699999999999946
21
6.574999999999922
31
0
0
LWPOLYLINE
5
138
100
AcDbEntity
8
0
100
AcDbPolyline
90
8
70
1
43
0.0
10
3.0250000000000004
20
-2.524999999999999
42
0.41421356237309664
10
2.5250000000000004
20
-3.0250000000000017
10
2.525000000000003
20
-16.025000000000002
42
0.41421356237310186
10
3.0250000000000221
20
-16.525000000000002
10
16.025000000000002
20
-16.525000000000002
42
0.41421356237308982
10
16.525000000000006
20
-16.024999999999999
10
16.525000000000002
20
-3.0249999999999977
42
0.41421356237309115
10
16.024999999999999
20
-2.5249999999999968
0
LINE
5
139
100
AcDbEntity
8
0
100
AcDbLine
10
181.55000000000001
20
-63.150000000000091
30
0
11
181.54999999999998
21
-58.925000000000047
31
0
0
ARC
5
140
100
AcDbEntity
8
0
100
AcDbCircle
10
27.500000000000078
20
-69.450000000000188
30
0
40
0.49999999999999822
210
0
220
-0
230
1
100
AcDbArc
50
0
51
90
0
LINE
5
141
100
AcDbEntity
8
0
100
AcDbLine
10
28.000000000000078
20
-69.450000000000188
30
0
11
28.000000000000021
21
-73.67500000000004
31
0
0
LWPOLYLINE
5
142
100
AcDbEntity
8
0
100
AcDbPolyline
90
16
70
1
43
0.0
10
111.77500000000002
20
-3.0249999999999861
42
0.41421356237309342
10
111.27500000000001
20
-2.5249999999999817
10
98.275000000000006
20
-2.5249999999999915
42
0.41421356237308626
10
97.774999999999963
20
-3.0249999999999853
10
97.77500000000002
20
-16.024999999999988
42
0.41421356237302737
10
98.275000000000006
20
-16.525000000000002
10
111.27500000000001
20
-16.524999999999991
42
0.41421356237315227
10
111.77500000000002
20
-16.024999999999988
10
111.77500000000002
20
-3.0249999999999861
42
0.4142135623730937
10
111.27500000000001
20
-2.5249999999999817
10
98.275000000000006
20
-2.5249999999999915
42
0.41421356237308626
10
97.774999999999963
20
-3.0249999999999853
10
97.77500000000002
20
-16.024999999999988
42
0.41421356237303647
10
98.275000000000006
20
-16.525000000000002
10
111.27500000000001
20
-16.524999999999991
42
0.41421356237315227
10
111.77500000000002
20
-16.024999999999988
0
LWPOLYLINE
5
143
100
AcDbEntity
8
0
100
AcDbPolyline
90
8
70
1
43
0.0
10
40.625
20
-3.0249999999999928
10
40.625
20
-16.024999999999995
42
0.41421356237307683
10
41.125000000000007
20
-16.524999999999991
10
54.125000000000021
20
-16.524999999999995
42
0.4142135623730846
10
54.625
20
-16.024999999999995
10
54.625
20
-3.0249999999999932
42
0.41421356237310508
10
54.125000000000021
20
-2.5249999999999928
10
41.125
20
-2.5249999999999915
42
0.4142135623730866
0
LWPOLYLINE
5
144
100
AcDbEntity
8
0
100
AcDbPolyline
90
16
70
1
43
0.0
10
73.174999999999983
20
-2.5250000000000035
10
60.174999999999997
20
-2.5249999999999924
42
0.41421356237310508
10
59.675000000000011
20
-3.024999999999995
10
59.675000000000004
20
-16.024999999999995
42
0.41421356237308982
10
60.174999999999997
20
-16.525000000000002
10
73.174999999999983
20
-16.524999999999999
42
0.41421356237308982
10
73.674999999999983
20
-16.024999999999991
10
73.674999999999983
20
-3.024999999999991
42
0.41421356237314155
10
73.174999999999983
20
-2.5250000000000035
10
60.174999999999997
20
-2.5249999999999924
42
0.41421356237310508
10
59.675000000000011
20
-3.024999999999995
10
59.675000000000004
20
-16.024999999999995
42
0.41421356237308982
10
60.174999999999997
20
-16.525000000000002
10
73.174999999999983
20
-16.524999999999999
42
0.41421356237308982
10
73.674999999999983
20
-16.024999999999991
10
73.674999999999983
20
-3.024999999999991
42
0.41421356237314183
0
LWPOLYLINE
5
145
100
AcDbEntity
8
0
100
AcDbPolyline
90
8
70
1
43
0.0
10
79.22499999999998
20
-2.5249999999999901
42
0.41421356237307583
10
78.724999999999994
20
-3.0249999999999928
10
78.724999999999994
20
-16.024999999999991
42
0.41421356237308854
10
79.22499999999998
20
-16.524999999999995
10
92.224999999999994
20
-16.524999999999991
42
0.41421356237310153
10
92.725000000000023
20
-16.024999999999988
10
92.725000000000023
20
-3.0249999999999888
42
0.41421356237310153
10
92.224999999999994
20
-2.5249999999999879
0
LWPOLYLINE
5
146
100
AcDbEntity
8
0
100
AcDbPolyline
90
8
70
1
43
0.0
10
78.724999999999994
20
-16.024999999999991
42
0.41421356237308204
10
79.22499999999998
20
-16.524999999999995
10
92.224999999999994
20
-16.524999999999991
42
0.41421356237310153
10
92.725000000000023
20
-16.024999999999988
10
92.725000000000023
20
-3.0249999999999888
42
0.4142135623730957
10
92.224999999999994
20
-2.5249999999999879
10
79.22499999999998
20
-2.5249999999999901
42
0.41421356237307583
10
78.724999999999994
20
-3.0249999999999928
0
LWPOLYLINE
5
147
100
AcDbEntity
8
0
100
AcDbPolyline
90
8
70
1
43
0.0
10
41.125000000000007
20
-16.524999999999991
10
54.125000000000021
20
-16.524999999999995
42
0.4142135623730846
10
54.625
20
-16.024999999999995
10
54.625
20
-3.0249999999999932
42
0.4142135623731103
10
54.125000000000021
20
-2.5249999999999928
10
41.125
20
-2.5249999999999915
42
0.4142135623730866
10
40.625
20
-3.0249999999999928
10
40.625
20
-16.024999999999995
42
0.4142135623730781
0
LWPOLYLINE
5
148
100
AcDbEntity
8
0
100
AcDbPolyline
90
8
70
1
43
0.0
10
35.07500000000001
20
-16.525000000000002
42
0.41421356237308854
10
35.57500000000001
20
-16.024999999999995
10
35.57500000000001
20
-3.0249999999999955
42
0.41421356237309015
10
35.075000000000003
20
-2.5249999999999879
10
22.074999999999999
20
-2.5249999999999959
42
0.4142135623730957
10
21.575000000000017
20
-3.0249999999999995
10
21.57500000000001
20
-16.024999999999999
42
0.41421356237309631
10
22.074999999999999
20
-16.525000000000002
0
LWPOLYLINE
5
149
100
AcDbEntity
8
0
100
AcDbPolyline
90
8
70
1
43
0.0
10
35.57500000000001
20
-16.024999999999995
10
35.57500000000001
20
-3.0249999999999955
42
0.41421356237309015
10
35.075000000000003
20
-2.5249999999999879
10
22.074999999999999
20
-2.5249999999999959
42
0.41421356237308526
10
21.575000000000017
20
-3.0249999999999995
10
21.57500000000001
20
-16.024999999999999
42
0.41421356237308982
10
22.074999999999999
20
-16.525000000000002
10
35.07500000000001
20
-16.525000000000002
42
0.41421356237308854
0
LWPOLYLINE
5
150
100
AcDbEntity
8
0
100
AcDbPolyline
90
8
70
1
43
0.0
10
174.47500000000005
20
-16.525000000000045
10
187.47499999999999
20
-16.52499999999997
42
0.41421356237304302
10
187.97499999999999
20
-16.024999999999977
10
187.97499999999999
20
-3.0249999999999773
42
0.41421356237320428
10
187.47499999999999
20
-2.5249999999999395
10
174.47500000000005
20
-2.5249999999999826
42
0.41421356237304302
10
173.97499999999997
20
-3.0249999999999764
10
173.97500000000005
20
-16.024999999999977
42
0.41421356237296625
0
LWPOLYLINE
5
151
100
AcDbEntity
8
0
100
AcDbPolyline
90
8
70
1
43
0.0
10
187.97499999999999
20
-3.0249999999999773
42
0.41421356237323775
10
187.47499999999999
20
-2.5249999999999395
10
174.47500000000005
20
-2.5249999999999826
42
0.41421356237304302
10
173.97499999999997
20
-3.0249999999999764
10
173.97500000000005
20
-16.024999999999977
42
0.41421356237297796
10
174.47500000000005
20
-16.525000000000045
10
187.47499999999999
20
-16.52499999999997
42
0.41421356237304302
10
187.97499999999999
20
-16.024999999999977
0
ARC
5
152
100
AcDbEntity
8
0
100
AcDbCircle
10
15.900000000000006
20
1.0749999999999325
30
0
40
0.5
210
0
220
0
230
1
100
AcDbArc
50
-90.000000000000398
51
0
0
LINE
5
153
100
AcDbEntity
8
0
100
AcDbLine
10
28.000000000000011
20
-58.924999999999997
30
0
11
28.00000000000006
21
-63.150000000000198
31
0
0
ARC
5
154
100
AcDbEntity
8
0
100
AcDbCircle
10
207.02500000000009
20
-2.524999999999932
30
0
40
3.0999999999999517
210
-0
220
0
230
1
100
AcDbArc
50
0
51
90.000000000001577
0
ARC
5
155
100
AcDbEntity
8
0
100
AcDbCircle
10
19.049999999999976
20
6.5749999999999194
30
0
40
2.6499999999999702
210
0
220
-0
230
1
100
AcDbArc
50
0
51
180
0
ARC
5
156
100
AcDbEntity
8
0
100
AcDbCircle
10
31.100000000000023
20
-73.67500000000004
30
0
40
3.1000000000000005
210
0
220
0
230
1
100
AcDbArc
50
180
51
269.9999999999996
0
ARC
5
157
100
AcDbEntity
8
0
100
AcDbCircle
10
178.45000000000005
20
-73.675000000000054
30
0
40
3.0999999999999517
210
-0
220
0
230
1
100
AcDbArc
50
-90
51
0
0
ARC
5
158
100
AcDbEntity
8
0
100
AcDbCircle
10
190.5
20
6.5750000000000197
30
0
40
2.6499999999999702
210
0
220
-0
230
1
100
AcDbArc
50
0
51
180
0
ARC
5
159
100
AcDbEntity
8
0
100
AcDbCircle
10
27.500000000000064
20
-63.150000000000198
30
0
40
0.49999999999999822
210
-0
220
0
230
1
100
AcDbArc
50
-90
51
0
0
ARC
5
160
100
AcDbEntity
8
0
100
AcDbCircle
10
182.05000000000001
20
-63.150000000000091
30
0
40
0.50000000000000711
210
0
220
0
230
1
100
AcDbArc
50
180
51
270
0
LINE
5
161
100
AcDbEntity
8
0
100
AcDbLine
10
181.55000000000001
20
-73.67500000000004
30
0
11
181.55000000000001
21
-69.450000000000088
31
0
0
ARC
5
162
100
AcDbEntity
8
0
100
AcDbCircle
10
18.500000000000092
20
-66.300000000000153
30
0
40
2.6499999999999968
210
0
220
0
230
1
100
AcDbArc
50
90
51
270
0
ARC
5
163
100
AcDbEntity
8
0
100
AcDbCircle
10
2.5250000000000372
20
-54.624999999999993
30
0
40
3.100000000000005
210
0
220
0
230
1
100
AcDbArc
50
180
51
269.99999999999943
0
ARC
5
164
100
AcDbEntity
8
0
100
AcDbCircle
10
187.35000000000011
20
1.0750000000000177
30
0
40
0.5
210
-0
220
0
230
1
100
AcDbArc
50
-90
51
0
0
ARC
5
165
100
AcDbEntity
8
0
100
AcDbCircle
10
182.75000000000003
20
-58.925000000000047
30
0
40
1.2000000000000544
210
0
220
0
230
1
100
AcDbArc
50
90
51
180
0
ARC
5
166
100
AcDbEntity
8
0
100
AcDbCircle
10
193.65000000000003
20
1.0750000000000322
30
0
40
0.50000000000000711
210
0
220
0
230
1
100
AcDbArc
50
180
51
270
0
ARC
5
167
100
AcDbEntity
8
0
100
AcDbCircle
10
2.5249999999999959
20
-2.5250000000000004
30
0
40
3.1000000000000028
210
0
220
0
230
1
100
AcDbArc
50
90.000000000000341
51
180
0
ARC
5
168
100
AcDbEntity
8
0
100
AcDbCircle
10
182.05000000000001
20
-69.450000000000088
30
0
40
0.49999999999999822
210
0
220
0
230
1
100
AcDbArc
50
90
51
180
0
ARC
5
169
100
AcDbEntity
8
0
100
AcDbCircle
10
207.02500000000009
20
-54.625000000000014
30
0
40
3.0999999999999517
210
0
220
0
230
1
100
AcDbArc
50
-90.000000000001577
51
0
0
LWPOLYLINE
5
170
100
AcDbEntity
8
0
100
AcDbPolyline
90
8
70
1
43
0.0
10
16.024999999999999
20
-21.574999999999996
10
3.0250000000000004
20
-21.575000000000003
42
0.41421356237309764
10
2.5250000000000004
20
-22.075000000000003
10
2.525000000000003
20
-35.075000000000003
42
0.4142135623731022
10
3.0250000000000221
20
-35.575000000000003
10
16.025000000000002
20
-35.575000000000003
42
0.41421356237308721
10
16.525000000000006
20
-35.075000000000003
10
16.525000000000002
20
-22.074999999999999
42
0.41421356237309115
0
LWPOLYLINE
5
171
100
AcDbEntity
8
0
100
AcDbPolyline
90
8
70
1
43
0.0
10
2.5250000000000004
20
-22.075000000000003
10
2.525000000000003
20
-35.075000000000003
42
0.41421356237310447
10
3.0250000000000221
20
-35.575000000000003
10
16.025000000000002
20
-35.575000000000003
42
0.41421356237308721
10
16.525000000000006
20
-35.075000000000003
10
16.525000000000002
20
-22.074999999999999
42
0.41421356237308982
10
16.024999999999999
20
-21.574999999999996
10
3.0250000000000004
20
-21.575000000000003
42
0.41421356237309664
0
LWPOLYLINE
5
172
100
AcDbEntity
8
0
100
AcDbPolyline
90
8
70
1
43
0.0
10
22.075000000000003
20
-21.575000000000003
42
0.41421356237309503
10
21.575000000000006
20
-22.075000000000003
10
21.575000000000006
20
-35.075000000000003
42
0.41421356237310281
10
22.075000000000028
20
-35.575000000000003
10
35.07500000000001
20
-35.575000000000003
42
0.41421356237308721
10
35.57500000000001
20
-35.075000000000003
10
35.57500000000001
20
-22.074999999999999
42
0.41421356237309243
10
35.075000000000003
20
-21.574999999999996
0
LWPOLYLINE
5
173
100
AcDbEntity
8
0
100
AcDbPolyline
90
8
70
1
43
0.0
10
21.575000000000006
20
-22.075000000000003
10
21.575000000000006
20
-35.075000000000003
42
0.41421356237310542
10
22.075000000000028
20
-35.575000000000003
10
35.07500000000001
20
-35.575000000000003
42
0.41421356237308721
10
35.57500000000001
20
-35.075000000000003
10
35.57500000000001
20
-22.074999999999999
42
0.41421356237309243
10
35.075000000000003
20
-21.574999999999996
10
22.075000000000003
20
-21.575000000000003
42
0.41421356237309764
0
LWPOLYLINE
5
174
100
AcDbEntity
8
0
100
AcDbPolyline
90
8
70
1
43
0.0
10
41.125000000000007
20
-21.575000000000003
42
0.41421356237309503
10
40.625000000000007
20
-22.075000000000003
10
40.625000000000007
20
-35.075000000000003
42
0.41421356237310281
10
41.125000000000036
20
-35.575000000000003
10
54.125000000000014
20
-35.575000000000003
42
0.4142135623730846
10
54.625000000000014
20
-35.075000000000003
10
54.625000000000014
20
-22.074999999999999
42
0.41421356237308721
10
54.125000000000014
20
-21.574999999999996
0
LWPOLYLINE
5
175
100
AcDbEntity
8
0
100
AcDbPolyline
90
8
70
1
43
0.0
10
40.625000000000007
20
-22.075000000000003
10
40.625000000000007
20
-35.075000000000003
42
0.41421356237310542
10
41.125000000000036
20
-35.575000000000003
10
54.125000000000014
20
-35.575000000000003
42
0.4142135623730846
10
54.625000000000014
20
-35.075000000000003
10
54.625000000000014
20
-22.074999999999999
42
0.41421356237308721
10
54.125000000000014
20
-21.574999999999996
10
41.125000000000007
20
-21.575000000000003
42
0.41421356237309764
0
LWPOLYLINE
5
176
100
AcDbEntity
8
0
100
AcDbPolyline
90
8
70
1
43
0.0
10
60.175000000000018
20
-21.575000000000003
42
0.41421356237310025
10
59.675000000000018
20
-22.075000000000003
10
59.675000000000018
20
-35.075000000000003
42
0.41421356237310281
10
60.17500000000004
20
-35.575000000000003
10
73.175000000000011
20
-35.575000000000003
42
0.41421356237308982
10
73.675000000000026
20
-35.075000000000003
10
73.675000000000011
20
-22.074999999999999
42
0.41421356237308721
10
73.175000000000011
20
-21.574999999999996
0
LWPOLYLINE
5
177
100
AcDbEntity
8
0
100
AcDbPolyline
90
8
70
1
43
0.0
10
59.675000000000018
20
-22.075000000000003
10
59.675000000000018
20
-35.075000000000003
42
0.41421356237310542
10
60.17500000000004
20
-35.575000000000003
10
73.175000000000011
20
-35.575000000000003
42
0.41421356237308982
10
73.675000000000026
20
-35.075000000000003
10
73.675000000000011
20
-22.074999999999999
42
0.41421356237309243
10
73.175000000000011
20
-21.574999999999996
10
60.175000000000018
20
-21.575000000000003
42
0.41421356237309764
0
LWPOLYLINE
5
178
100
AcDbEntity
8
0
100
AcDbPolyline
90
8
70
1
43
0.0
10
79.225000000000023
20
-21.575000000000003
42
0.41421356237309503
10
78.725000000000023
20
-22.075000000000003
10
78.725000000000023
20
-35.075000000000003
42
0.41421356237310281
10
79.225000000000037
20
-35.575000000000003
10
92.225000000000023
20
-35.575000000000003
42
0.41421356237308982
10
92.725000000000023
20
-35.075000000000003
10
92.725000000000023
20
-22.074999999999999
42
0.41421356237309243
10
92.225000000000023
20
-21.574999999999996
0
LWPOLYLINE
5
179
100
AcDbEntity
8
0
100
AcDbPolyline
90
8
70
1
43
0.0
10
78.725000000000023
20
-22.075000000000003
10
78.725000000000023
20
-35.075000000000003
42
0.41421356237310542
10
79.225000000000037
20
-35.575000000000003
10
92.225000000000023
20
-35.575000000000003
42
0.41421356237308982
10
92.725000000000023
20
-35.075000000000003
10
92.725000000000023
20
-22.074999999999999
42
0.41421356237309243
10
92.225000000000023
20
-21.574999999999996
10
79.225000000000023
20
-21.575000000000003
42
0.41421356237309764
0
LWPOLYLINE
5
180
100
AcDbEntity
8
0
100
AcDbPolyline
90
8
70
1
43
0.0
10
98.27500000000002
20
-21.575000000000003
42
0.41421356237310025
10
97.77500000000002
20
-22.075000000000003
10
97.77500000000002
20
-35.075000000000003
42
0.41421356237310281
10
98.275000000000034
20
-35.575000000000003
10
111.27500000000003
20
-35.575000000000003
42
0.41421356237307944
10
111.77500000000002
20
-35.075000000000003
10
111.77500000000002
20
-22.074999999999999
42
0.41421356237309243
10
111.27500000000001
20
-21.574999999999996
0
LWPOLYLINE
5
181
100
AcDbEntity
8
0
100
AcDbPolyline
90
8
70
1
43
0.0
10
97.77500000000002
20
-22.075000000000003
10
97.77500000000002
20
-35.075000000000003
42
0.41421356237310542
10
98.275000000000034
20
-35.575000000000003
10
111.27500000000003
20
-35.575000000000003
42
0.41421356237307944
10
111.77500000000002
20
-35.075000000000003
10
111.77500000000002
20
-22.074999999999999
42
0.41421356237309243
10
111.27500000000001
20
-21.574999999999996
10
98.27500000000002
20
-21.575000000000003
42
0.41421356237309764
0
LWPOLYLINE
5
182
100
AcDbEntity
8
0
100
AcDbPolyline
90
8
70
1
43
0.0
10
117.32500000000003
20
-21.575000000000003
42
0.41421356237310025
10
116.82500000000003
20
-22.075000000000003
10
116.82500000000003
20
-35.075000000000003
42
0.41421356237310281
10
117.32500000000005
20
-35.575000000000003
10
130.32500000000005
20
-35.575000000000003
42
0.41421356237307944
10
130.82500000000005
20
-35.075000000000003
10
130.82500000000005
20
-22.074999999999999
42
0.41421356237309243
10
130.32500000000002
20
-21.574999999999996
0
LWPOLYLINE
5
183
100
AcDbEntity
8
0
100
AcDbPolyline
90
8
70
1
43
0.0
10
116.82500000000003
20
-22.075000000000003
10
116.82500000000003
20
-35.075000000000003
42
0.41421356237310542
10
117.32500000000005
20
-35.575000000000003
10
130.32500000000005
20
-35.575000000000003
42
0.41421356237307944
10
130.82500000000005
20
-35.075000000000003
10
130.82500000000005
20
-22.074999999999999
42
0.41421356237309243
10
130.32500000000002
20
-21.574999999999996
10
117.32500000000003
20
-21.575000000000003
42
0.41421356237309764
0
LWPOLYLINE
5
184
100
AcDbEntity
8
0
100
AcDbPolyline
90
8
70
1
43
0.0
10
136.37500000000003
20
-21.575000000000003
42
0.41421356237310025
10
135.87500000000003
20
-22.075000000000003
10
135.87500000000003
20
-35.075000000000003
42
0.41421356237310281
10
136.37500000000006
20
-35.575000000000003
10
149.37500000000003
20
-35.575000000000003
42
0.41421356237307944
10
149.87500000000003
20
-35.075000000000003
10
149.87500000000003
20
-22.074999999999999
42
0.41421356237308204
10
149.37500000000003
20
-21.574999999999996
0
LWPOLYLINE
5
185
100
AcDbEntity
8
0
100
AcDbPolyline
90
8
70
1
43
0.0
10
135.87500000000003
20
-22.075000000000003
10
135.87500000000003
20
-35.075000000000003
42
0.41421356237310542
10
136.37500000000006
20
-35.575000000000003
10
149.37500000000003
20
-35.575000000000003
42
0.41421356237307944
10
149.87500000000003
20
-35.075000000000003
10
149.87500000000003
20
-22.074999999999999
42
0.41421356237308204
10
149.37500000000003
20
-21.574999999999996
10
136.37500000000003
20
-21.575000000000003
42
0.41421356237309764
0
LWPOLYLINE
5
186
100
AcDbEntity
8
0
100
AcDbPolyline
90
8
70
1
43
0.0
10
155.42500000000004
20
-21.575000000000003
42
0.41421356237310025
10
154.92500000000004
20
-22.075000000000003
10
154.92500000000004
20
-35.075000000000003
42
0.41421356237310281
10
155.42500000000007
20
-35.575000000000003
10
168.42500000000004
20
-35.575000000000003
42
0.41421356237308982
10
168.92500000000007
20
-35.075000000000003
10
168.92500000000007
20
-22.074999999999999
42
0.41421356237309243
10
168.42500000000004
20
-21.574999999999996
0
LWPOLYLINE
5
187
100
AcDbEntity
8
0
100
AcDbPolyline
90
8
70
1
43
0.0
10
154.92500000000004
20
-22.075000000000003
10
154.92500000000004
20
-35.075000000000003
42
0.41421356237310542
10
155.42500000000007
20
-35.575000000000003
10
168.42500000000004
20
-35.575000000000003
42
0.41421356237308982
10
168.92500000000007
20
-35.075000000000003
10
168.92500000000007
20
-22.074999999999999
42
0.41421356237309243
10
168.42500000000004
20
-21.574999999999996
10
155.42500000000004
20
-21.575000000000003
42
0.41421356237309764
0
LWPOLYLINE
5
188
100
AcDbEntity
8
0
100
AcDbPolyline
90
8
70
1
43
0.0
10
174.47500000000002
20
-21.575000000000003
42
0.41421356237307944
10
173.97500000000005
20
-22.075000000000003
10
173.97500000000005
20
-35.075000000000003
42
0.41421356237309243
10
174.47500000000005
20
-35.575000000000003
10
187.47500000000002
20
-35.575000000000003
42
0.41421356237308982
10
187.97500000000002
20
-35.075000000000003
10
187.97500000000002
20
-22.074999999999999
42
0.41421356237309243
10
187.47500000000002
20
-21.574999999999996
0
LWPOLYLINE
5
189
100
AcDbEntity
8
0
100
AcDbPolyline
90
8
70
1
43
0.0
10
173.97500000000005
20
-22.075000000000003
10
173.97500000000005
20
-35.075000000000003
42
0.41421356237309503
10
174.47500000000005
20
-35.575000000000003
10
187.47500000000002
20
-35.575000000000003
42
0.41421356237308982
10
187.97500000000002
20
-35.075000000000003
10
187.97500000000002
20
-22.074999999999999
42
0.41421356237309243
10
187.47500000000002
20
-21.574999999999996
10
174.47500000000002
20
-21.575000000000003
42
0.41421356237309764
0
LWPOLYLINE
5
190
100
AcDbEntity
8
0
100
AcDbPolyline
90
8
70
1
43
0.0
10
193.52500000000003
20
-21.575000000000003
42
0.41421356237307944
10
193.02500000000006
20
-22.075000000000003
10
193.02500000000006
20
-35.075000000000003
42
0.41421356237309243
10
193.52500000000006
20
-35.575000000000003
10
206.52500000000003
20
-35.575000000000003
42
0.41421356237308982
10
207.02500000000003
20
-35.075000000000003
10
207.02500000000003
20
-22.074999999999999
42
0.41421356237309243
10
206.52500000000003
20
-21.574999999999996
0
LWPOLYLINE
5
191
100
AcDbEntity
8
0
100
AcDbPolyline
90
8
70
1
43
0.0
10
193.02500000000006
20
-22.075000000000003
10
193.02500000000006
20
-35.075000000000003
42
0.41421356237309503
10
193.52500000000006
20
-35.575000000000003
10
206.52500000000003
20
-35.575000000000003
42
0.41421356237308982
10
207.02500000000003
20
-35.075000000000003
10
207.02500000000003
20
-22.074999999999999
42
0.41421356237309243
10
206.52500000000003
20
-21.574999999999996
10
193.52500000000003
20
-21.575000000000003
42
0.41421356237309764
0
LINE
5
192
100
AcDbEntity
8
0
100
AcDbLine
10
56.15014200000001
20
-20.550246000000001
30
0
11
56.15014200000001
21
-17.550221999999998
31
0
0
LINE
5
193
100
AcDbEntity
8
0
100
AcDbLine
10
58.150040000000011
20
-17.550221999999998
30
0
11
58.150040000000011
21
-20.550246000000001
31
0
0
LINE
5
194
100
AcDbEntity
8
0
100
AcDbLine
10
56.15014200000001
20
-20.550246000000001
30
0
11
56.15014200000001
21
-17.550221999999998
31
0
0
LINE
5
195
100
AcDbEntity
8
0
100
AcDbLine
10
58.150040000000011
20
-17.550221999999998
30
0
11
58.150040000000011
21
-20.550246000000001
31
0
0
SPLINE
5
196
100
AcDbEntity
8
0
100
AcDbSpline
70
0
71
3
72
8
73
4
74
0
42
0.000000001
43
0.0000000001
44
0.0000000001
40
0
40
0
40
0
40
0
40
1
40
1
40
1
40
1
10
58.150040000000011
20
-20.550246000000001
30
0
10
58.150040000000011
20
-20.826118999999998
30
0
10
57.926379000000011
20
-21.050132999999995
30
0
10
57.650154000000015
20
-21.050132999999995
30
0
0
LINE
5
197
100
AcDbEntity
8
0
100
AcDbLine
10
56.15014200000001
20
-20.550246000000001
30
0
11
56.15014200000001
21
-17.550221999999998
31
0
0
LINE
5
198
100
AcDbEntity
8
0
100
AcDbLine
10
57.650154000000015
20
-21.050132999999995
30
0
11
56.65002800000002
21
-21.050132999999995
31
0
0
LINE
5
199
100
AcDbEntity
8
0
100
AcDbLine
10
57.650154000000015
20
-21.050132999999995
30
0
11
56.65002800000002
21
-21.050132999999995
31
0
0
LINE
5
200
100
AcDbEntity
8
0
100
AcDbLine
10
58.150040000000011
20
-17.550221999999998
30
0
11
58.150040000000011
21
-20.550246000000001
31
0
0
LINE
5
201
100
AcDbEntity
8
0
100
AcDbLine
10
56.15014200000001
20
-20.550246000000001
30
0
11
56.15014200000001
21
-17.550221999999998
31
0
0
LINE
5
202
100
AcDbEntity
8
0
100
AcDbLine
10
58.150040000000011
20
-17.550221999999998
30
0
11
58.150040000000011
21
-20.550246000000001
31
0
0
LINE
5
203
100
AcDbEntity
8
0
100
AcDbLine
10
56.15014200000001
20
-20.550246000000001
30
0
11
56.15014200000001
21
-17.550221999999998
31
0
0
LINE
5
204
100
AcDbEntity
8
0
100
AcDbLine
10
56.15014200000001
20
-20.550246000000001
30
0
11
56.15014200000001
21
-17.550221999999998
31
0
0
LINE
5
205
100
AcDbEntity
8
0
100
AcDbLine
10
58.150040000000011
20
-17.550221999999998
30
0
11
58.150040000000011
21
-20.550246000000001
31
0
0
LINE
5
206
100
AcDbEntity
8
0
100
AcDbLine
10
58.150040000000011
20
-17.550221999999998
30
0
11
58.150040000000011
21
-20.550246000000001
31
0
0
SPLINE
5
207
100
AcDbEntity
8
0
100
AcDbSpline
70
0
71
3
72
8
73
4
74
0
42
0.000000001
43
0.0000000001
44
0.0000000001
40
0
40
0
40
0
40
0
40
1
40
1
40
1
40
1
10
58.150040000000011
20
-20.550246000000001
30
0
10
58.150040000000011
20
-20.826118999999998
30
0
10
57.926379000000011
20
-21.050132999999995
30
0
10
57.650154000000015
20
-21.050132999999995
30
0
0
LINE
5
208
100
AcDbEntity
8
0
100
AcDbLine
10
56.65002800000002
20
-17.049982999999997
30
0
11
57.650154000000015
21
-17.049982999999997
31
0
0
SPLINE
5
209
100
AcDbEntity
8
0
100
AcDbSpline
70
0
71
3
72
8
73
4
74
0
42
0.000000001
43
0.0000000001
44
0.0000000001
40
0
40
0
40
0
40
0
40
1
40
1
40
1
40
1
10
58.150040000000011
20
-20.550246000000001
30
0
10
58.150040000000011
20
-20.826118999999998
30
0
10
57.926379000000011
20
-21.050132999999995
30
0
10
57.650154000000015
20
-21.050132999999995
30
0
0
LINE
5
210
100
AcDbEntity
8
0
100
AcDbLine
10
57.650154000000015
20
-21.050132999999995
30
0
11
56.65002800000002
21
-21.050132999999995
31
0
0
SPLINE
5
211
100
AcDbEntity
8
0
100
AcDbSpline
70
0
71
3
72
8
73
4
74
0
42
0.000000001
43
0.0000000001
44
0.0000000001
40
0
40
0
40
0
40
0
40
1
40
1
40
1
40
1
10
56.15014200000001
20
-17.550221999999998
30
0
10
56.15014200000001
20
-17.273997000000001
30
0
10
56.374156000000013
20
-17.049982999999997
30
0
10
56.65002800000002
20
-17.049982999999997
30
0
0
SPLINE
5
212
100
AcDbEntity
8
0
100
AcDbSpline
70
0
71
3
72
8
73
4
74
0
42
0.000000001
43
0.0000000001
44
0.0000000001
40
0
40
0
40
0
40
0
40
1
40
1
40
1
40
1
10
56.65002800000002
20
-21.050132999999995
30
0
10
56.374156000000013
20
-21.050132999999995
30
0
10
56.15014200000001
20
-20.826118999999998
30
0
10
56.15014200000001
20
-20.550246000000001
30
0
0
LINE
5
213
100
AcDbEntity
8
0
100
AcDbLine
10
57.650154000000015
20
-21.050132999999995
30
0
11
56.65002800000002
21
-21.050132999999995
31
0
0
SPLINE
5
214
100
AcDbEntity
8
0
100
AcDbSpline
70
0
71
3
72
8
73
4
74
0
42
0.000000001
43
0.0000000001
44
0.0000000001
40
0
40
0
40
0
40
0
40
1
40
1
40
1
40
1
10
58.150040000000011
20
-20.550246000000001
30
0
10
58.150040000000011
20
-20.826118999999998
30
0
10
57.926379000000011
20
-21.050132999999995
30
0
10
57.650154000000015
20
-21.050132999999995
30
0
0
SPLINE
5
215
100
AcDbEntity
8
0
100
AcDbSpline
70
0
71
3
72
8
73
4
74
0
42
0.000000001
43
0.0000000001
44
0.0000000001
40
0
40
0
40
0
40
0
40
1
40
1
40
1
40
1
10
56.65002800000002
20
-21.050132999999995
30
0
10
56.374156000000013
20
-21.050132999999995
30
0
10
56.15014200000001
20
-20.826118999999998
30
0
10
56.15014200000001
20
-20.550246000000001
30
0
0
SPLINE
5
216
100
AcDbEntity
8
0
100
AcDbSpline
70
0
71
3
72
8
73
4
74
0
42
0.000000001
43
0.0000000001
44
0.0000000001
40
0
40
0
40
0
40
0
40
1
40
1
40
1
40
1
10
56.65002800000002
20
-21.050132999999995
30
0
10
56.374156000000013
20
-21.050132999999995
30
0
10
56.15014200000001
20
-20.826118999999998
30
0
10
56.15014200000001
20
-20.550246000000001
30
0
0
SPLINE
5
217
100
AcDbEntity
8
0
100
AcDbSpline
70
0
71
3
72
8
73
4
74
0
42
0.000000001
43
0.0000000001
44
0.0000000001
40
0
40
0
40
0
40
0
40
1
40
1
40
1
40
1
10
56.15014200000001
20
-17.550221999999998
30
0
10
56.15014200000001
20
-17.273997000000001
30
0
10
56.374156000000013
20
-17.049982999999997
30
0
10
56.65002800000002
20
-17.049982999999997
30
0
0
SPLINE
5
218
100
AcDbEntity
8
0
100
AcDbSpline
70
0
71
3
72
8
73
4
74
0
42
0.000000001
43
0.0000000001
44
0.0000000001
40
0
40
0
40
0
40
0
40
1
40
1
40
1
40
1
10
57.650154000000015
20
-17.049982999999997
30
0
10
57.926379000000011
20
-17.049982999999997
30
0
10
58.150040000000011
20
-17.273997000000001
30
0
10
58.150040000000011
20
-17.550221999999998
30
0
0
SPLINE
5
219
100
AcDbEntity
8
0
100
AcDbSpline
70
0
71
3
72
8
73
4
74
0
42
0.000000001
43
0.0000000001
44
0.0000000001
40
0
40
0
40
0
40
0
40
1
40
1
40
1
40
1
10
56.65002800000002
20
-21.050132999999995
30
0
10
56.374156000000013
20
-21.050132999999995
30
0
10
56.15014200000001
20
-20.826118999999998
30
0
10
56.15014200000001
20
-20.550246000000001
30
0
0
LINE
5
220
100
AcDbEntity
8
0
100
AcDbLine
10
57.650154000000015
20
-21.050132999999995
30
0
11
56.65002800000002
21
-21.050132999999995
31
0
0
SPLINE
5
221
100
AcDbEntity
8
0
100
AcDbSpline
70
0
71
3
72
8
73
4
74
0
42
0.000000001
43
0.0000000001
44
0.0000000001
40
0
40
0
40
0
40
0
40
1
40
1
40
1
40
1
10
58.150040000000011
20
-20.550246000000001
30
0
10
58.150040000000011
20
-20.826118999999998
30
0
10
57.926379000000011
20
-21.050132999999995
30
0
10
57.650154000000015
20
-21.050132999999995
30
0
0
LINE
5
222
100
AcDbEntity
8
0
100
AcDbLine
10
57.650154000000015
20
-21.050132999999995
30
0
11
56.65002800000002
21
-21.050132999999995
31
0
0
SPLINE
5
223
100
AcDbEntity
8
0
100
AcDbSpline
70
0
71
3
72
8
73
4
74
0
42
0.000000001
43
0.0000000001
44
0.0000000001
40
0
40
0
40
0
40
0
40
1
40
1
40
1
40
1
10
56.65002800000002
20
-21.050132999999995
30
0
10
56.374156000000013
20
-21.050132999999995
30
0
10
56.15014200000001
20
-20.826118999999998
30
0
10
56.15014200000001
20
-20.550246000000001
30
0
0
SPLINE
5
224
100
AcDbEntity
8
0
100
AcDbSpline
70
0
71
3
72
8
73
4
74
0
42
0.000000001
43
0.0000000001
44
0.0000000001
40
0
40
0
40
0
40
0
40
1
40
1
40
1
40
1
10
58.150040000000011
20
-20.550246000000001
30
0
10
58.150040000000011
20
-20.826118999999998
30
0
10
57.926379000000011
20
-21.050132999999995
30
0
10
57.650154000000015
20
-21.050132999999995
30
0
0
LINE
5
225
100
AcDbEntity
8
0
100
AcDbLine
10
56.65002800000002
20
-17.049982999999997
30
0
11
57.650154000000015
21
-17.049982999999997
31
0
0
SPLINE
5
226
100
AcDbEntity
8
0
100
AcDbSpline
70
0
71
3
72
8
73
4
74
0
42
0.000000001
43
0.0000000001
44
0.0000000001
40
0
40
0
40
0
40
0
40
1
40
1
40
1
40
1
10
58.150040000000011
20
-20.550246000000001
30
0
10
58.150040000000011
20
-20.826118999999998
30
0
10
57.926379000000011
20
-21.050132999999995
30
0
10
57.650154000000015
20
-21.050132999999995
30
0
0
SPLINE
5
227
100
AcDbEntity
8
0
100
AcDbSpline
70
0
71
3
72
8
73
4
74
0
42
0.000000001
43
0.0000000001
44
0.0000000001
40
0
40
0
40
0
40
0
40
1
40
1
40
1
40
1
10
57.650154000000015
20
-17.049982999999997
30
0
10
57.926379000000011
20
-17.049982999999997
30
0
10
58.150040000000011
20
-17.273997000000001
30
0
10
58.150040000000011
20
-17.550221999999998
30
0
0
LINE
5
228
100
AcDbEntity
8
0
100
AcDbLine
10
57.650154000000015
20
-21.050132999999995
30
0
11
56.65002800000002
21
-21.050132999999995
31
0
0
SPLINE
5
229
100
AcDbEntity
8
0
100
AcDbSpline
70
0
71
3
72
8
73
4
74
0
42
0.000000001
43
0.0000000001
44
0.0000000001
40
0
40
0
40
0
40
0
40
1
40
1
40
1
40
1
10
58.150040000000011
20
-20.550246000000001
30
0
10
58.150040000000011
20
-20.826118999999998
30
0
10
57.926379000000011
20
-21.050132999999995
30
0
10
57.650154000000015
20
-21.050132999999995
30
0
0
SPLINE
5
230
100
AcDbEntity
8
0
100
AcDbSpline
70
0
71
3
72
8
73
4
74
0
42
0.000000001
43
0.0000000001
44
0.0000000001
40
0
40
0
40
0
40
0
40
1
40
1
40
1
40
1
10
58.150040000000011
20
-20.550246000000001
30
0
10
58.150040000000011
20
-20.826118999999998
30
0
10
57.926379000000011
20
-21.050132999999995
30
0
10
57.650154000000015
20
-21.050132999999995
30
0
0
LINE
5
231
100
AcDbEntity
8
0
100
AcDbLine
10
56.65002800000002
20
-17.049982999999997
30
0
11
57.650154000000015
21
-17.049982999999997
31
0
0
SPLINE
5
232
100
AcDbEntity
8
0
100
AcDbSpline
70
0
71
3
72
8
73
4
74
0
42
0.000000001
43
0.0000000001
44
0.0000000001
40
0
40
0
40
0
40
0
40
1
40
1
40
1
40
1
10
56.65002800000002
20
-21.050132999999995
30
0
10
56.374156000000013
20
-21.050132999999995
30
0
10
56.15014200000001
20
-20.826118999999998
30
0
10
56.15014200000001
20
-20.550246000000001
30
0
0
SPLINE
5
233
100
AcDbEntity
8
0
100
AcDbSpline
70
0
71
3
72
8
73
4
74
0
42
0.000000001
43
0.0000000001
44
0.0000000001
40
0
40
0
40
0
40
0
40
1
40
1
40
1
40
1
10
57.650154000000015
20
-17.049982999999997
30
0
10
57.926379000000011
20
-17.049982999999997
30
0
10
58.150040000000011
20
-17.273997000000001
30
0
10
58.150040000000011
20
-17.550221999999998
30
0
0
SPLINE
5
234
100
AcDbEntity
8
0
100
AcDbSpline
70
0
71
3
72
8
73
4
74
0
42
0.000000001
43
0.0000000001
44
0.0000000001
40
0
40
0
40
0
40
0
40
1
40
1
40
1
40
1
10
56.15014200000001
20
-17.550221999999998
30
0
10
56.15014200000001
20
-17.273997000000001
30
0
10
56.374156000000013
20
-17.049982999999997
30
0
10
56.65002800000002
20
-17.049982999999997
30
0
0
SPLINE
5
235
100
AcDbEntity
8
0
100
AcDbSpline
70
0
71
3
72
8
73
4
74
0
42
0.000000001
43
0.0000000001
44
0.0000000001
40
0
40
0
40
0
40
0
40
1
40
1
40
1
40
1
10
57.650154000000015
20
-17.049982999999997
30
0
10
57.926379000000011
20
-17.049982999999997
30
0
10
58.150040000000011
20
-17.273997000000001
30
0
10
58.150040000000011
20
-17.550221999999998
30
0
0
SPLINE
5
236
100
AcDbEntity
8
0
100
AcDbSpline
70
0
71
3
72
8
73
4
74
0
42
0.000000001
43
0.0000000001
44
0.0000000001
40
0
40
0
40
0
40
0
40
1
40
1
40
1
40
1
10
56.65002800000002
20
-21.050132999999995
30
0
10
56.374156000000013
20
-21.050132999999995
30
0
10
56.15014200000001
20
-20.826118999999998
30
0
10
56.15014200000001
20
-20.550246000000001
30
0
0
SPLINE
5
237
100
AcDbEntity
8
0
100
AcDbSpline
70
0
71
3
72
8
73
4
74
0
42
0.000000001
43
0.0000000001
44
0.0000000001
40
0
40
0
40
0
40
0
40
1
40
1
40
1
40
1
10
57.650154000000015
20
-17.049982999999997
30
0
10
57.926379000000011
20
-17.049982999999997
30
0
10
58.150040000000011
20
-17.273997000000001
30
0
10
58.150040000000011
20
-17.550221999999998
30
0
0
LINE
5
238
100
AcDbEntity
8
0
100
AcDbLine
10
57.650154000000015
20
-21.050132999999995
30
0
11
56.65002800000002
21
-21.050132999999995
31
0
0
LINE
5
239
100
AcDbEntity
8
0
100
AcDbLine
10
56.65002800000002
20
-17.049982999999997
30
0
11
57.650154000000015
21
-17.049982999999997
31
0
0
SPLINE
5
240
100
AcDbEntity
8
0
100
AcDbSpline
70
0
71
3
72
8
73
4
74
0
42
0.000000001
43
0.0000000001
44
0.0000000001
40
0
40
0
40
0
40
0
40
1
40
1
40
1
40
1
10
57.650154000000015
20
-17.049982999999997
30
0
10
57.926379000000011
20
-17.049982999999997
30
0
10
58.150040000000011
20
-17.273997000000001
30
0
10
58.150040000000011
20
-17.550221999999998
30
0
0
SPLINE
5
241
100
AcDbEntity
8
0
100
AcDbSpline
70
0
71
3
72
8
73
4
74
0
42
0.000000001
43
0.0000000001
44
0.0000000001
40
0
40
0
40
0
40
0
40
1
40
1
40
1
40
1
10
56.15014200000001
20
-17.550221999999998
30
0
10
56.15014200000001
20
-17.273997000000001
30
0
10
56.374156000000013
20
-17.049982999999997
30
0
10
56.65002800000002
20
-17.049982999999997
30
0
0
LINE
5
242
100
AcDbEntity
8
0
100
AcDbLine
10
57.650154000000015
20
-21.050132999999995
30
0
11
56.65002800000002
21
-21.050132999999995
31
0
0
SPLINE
5
243
100
AcDbEntity
8
0
100
AcDbSpline
70
0
71
3
72
8
73
4
74
0
42
0.000000001
43
0.0000000001
44
0.0000000001
40
0
40
0
40
0
40
0
40
1
40
1
40
1
40
1
10
56.65002800000002
20
-21.050132999999995
30
0
10
56.374156000000013
20
-21.050132999999995
30
0
10
56.15014200000001
20
-20.826118999999998
30
0
10
56.15014200000001
20
-20.550246000000001
30
0
0
SPLINE
5
244
100
AcDbEntity
8
0
100
AcDbSpline
70
0
71
3
72
8
73
4
74
0
42
0.000000001
43
0.0000000001
44
0.0000000001
40
0
40
0
40
0
40
0
40
1
40
1
40
1
40
1
10
56.65002800000002
20
-21.050132999999995
30
0
10
56.374156000000013
20
-21.050132999999995
30
0
10
56.15014200000001
20
-20.826118999999998
30
0
10
56.15014200000001
20
-20.550246000000001
30
0
0
LINE
5
245
100
AcDbEntity
8
0
100
AcDbLine
10
57.650154000000015
20
-21.050132999999995
30
0
11
56.65002800000002
21
-21.050132999999995
31
0
0
SPLINE
5
246
100
AcDbEntity
8
0
100
AcDbSpline
70
0
71
3
72
8
73
4
74
0
42
0.000000001
43
0.0000000001
44
0.0000000001
40
0
40
0
40
0
40
0
40
1
40
1
40
1
40
1
10
58.150040000000011
20
-20.550246000000001
30
0
10
58.150040000000011
20
-20.826118999999998
30
0
10
57.926379000000011
20
-21.050132999999995
30
0
10
57.650154000000015
20
-21.050132999999995
30
0
0
SPLINE
5
247
100
AcDbEntity
8
0
100
AcDbSpline
70
0
71
3
72
8
73
4
74
0
42
0.000000001
43
0.0000000001
44
0.0000000001
40
0
40
0
40
0
40
0
40
1
40
1
40
1
40
1
10
56.65002800000002
20
-21.050132999999995
30
0
10
56.374156000000013
20
-21.050132999999995
30
0
10
56.15014200000001
20
-20.826118999999998
30
0
10
56.15014200000001
20
-20.550246000000001
30
0
0
SPLINE
5
248
100
AcDbEntity
8
0
100
AcDbSpline
70
0
71
3
72
8
73
4
74
0
42
0.000000001
43
0.0000000001
44
0.0000000001
40
0
40
0
40
0
40
0
40
1
40
1
40
1
40
1
10
57.650154000000015
20
-17.049982999999997
30
0
10
57.926379000000011
20
-17.049982999999997
30
0
10
58.150040000000011
20
-17.273997000000001
30
0
10
58.150040000000011
20
-17.550221999999998
30
0
0
SPLINE
5
249
100
AcDbEntity
8
0
100
AcDbSpline
70
0
71
3
72
8
73
4
74
0
42
0.000000001
43
0.0000000001
44
0.0000000001
40
0
40
0
40
0
40
0
40
1
40
1
40
1
40
1
10
56.65002800000002
20
-21.050132999999995
30
0
10
56.374156000000013
20
-21.050132999999995
30
0
10
56.15014200000001
20
-20.826118999999998
30
0
10
56.15014200000001
20
-20.550246000000001
30
0
0
LINE
5
250
100
AcDbEntity
8
0
100
AcDbLine
10
57.650154000000015
20
-21.050132999999995
30
0
11
56.65002800000002
21
-21.050132999999995
31
0
0
SPLINE
5
251
100
AcDbEntity
8
0
100
AcDbSpline
70
0
71
3
72
8
73
4
74
0
42
0.000000001
43
0.0000000001
44
0.0000000001
40
0
40
0
40
0
40
0
40
1
40
1
40
1
40
1
10
58.150040000000011
20
-20.550246000000001
30
0
10
58.150040000000011
20
-20.826118999999998
30
0
10
57.926379000000011
20
-21.050132999999995
30
0
10
57.650154000000015
20
-21.050132999999995
30
0
0
SPLINE
5
252
100
AcDbEntity
8
0
100
AcDbSpline
70
0
71
3
72
8
73
4
74
0
42
0.000000001
43
0.0000000001
44
0.0000000001
40
0
40
0
40
0
40
0
40
1
40
1
40
1
40
1
10
56.65002800000002
20
-21.050132999999995
30
0
10
56.374156000000013
20
-21.050132999999995
30
0
10
56.15014200000001
20
-20.826118999999998
30
0
10
56.15014200000001
20
-20.550246000000001
30
0
0
SPLINE
5
253
100
AcDbEntity
8
0
100
AcDbSpline
70
0
71
3
72
8
73
4
74
0
42
0.000000001
43
0.0000000001
44
0.0000000001
40
0
40
0
40
0
40
0
40
1
40
1
40
1
40
1
10
56.15014200000001
20
-17.550221999999998
30
0
10
56.15014200000001
20
-17.273997000000001
30
0
10
56.374156000000013
20
-17.049982999999997
30
0
10
56.65002800000002
20
-17.049982999999997
30
0
0
SPLINE
5
254
100
AcDbEntity
8
0
100
AcDbSpline
70
0
71
3
72
8
73
4
74
0
42
0.000000001
43
0.0000000001
44
0.0000000001
40
0
40
0
40
0
40
0
40
1
40
1
40
1
40
1
10
57.650154000000015
20
-17.049982999999997
30
0
10
57.926379000000011
20
-17.049982999999997
30
0
10
58.150040000000011
20
-17.273997000000001
30
0
10
58.150040000000011
20
-17.550221999999998
30
0
0
LINE
5
255
100
AcDbEntity
8
0
100
AcDbLine
10
56.65002800000002
20
-17.049982999999997
30
0
11
57.650154000000015
21
-17.049982999999997
31
0
0
LINE
5
256
100
AcDbEntity
8
0
100
AcDbLine
10
56.65002800000002
20
-17.049982999999997
30
0
11
57.650154000000015
21
-17.049982999999997
31
0
0
SPLINE
5
257
100
AcDbEntity
8
0
100
AcDbSpline
70
0
71
3
72
8
73
4
74
0
42
0.000000001
43
0.0000000001
44
0.0000000001
40
0
40
0
40
0
40
0
40
1
40
1
40
1
40
1
10
58.150040000000011
20
-20.550246000000001
30
0
10
58.150040000000011
20
-20.826118999999998
30
0
10
57.926379000000011
20
-21.050132999999995
30
0
10
57.650154000000015
20
-21.050132999999995
30
0
0
SPLINE
5
258
100
AcDbEntity
8
0
100
AcDbSpline
70
0
71
3
72
8
73
4
74
0
42
0.000000001
43
0.0000000001
44
0.0000000001
40
0
40
0
40
0
40
0
40
1
40
1
40
1
40
1
10
58.150040000000011
20
-20.550246000000001
30
0
10
58.150040000000011
20
-20.826118999999998
30
0
10
57.926379000000011
20
-21.050132999999995
30
0
10
57.650154000000015
20
-21.050132999999995
30
0
0
SPLINE
5
259
100
AcDbEntity
8
0
100
AcDbSpline
70
0
71
3
72
8
73
4
74
0
42
0.000000001
43
0.0000000001
44
0.0000000001
40
0
40
0
40
0
40
0
40
1
40
1
40
1
40
1
10
56.15014200000001
20
-17.550221999999998
30
0
10
56.15014200000001
20
-17.273997000000001
30
0
10
56.374156000000013
20
-17.049982999999997
30
0
10
56.65002800000002
20
-17.049982999999997
30
0
0
LINE
5
260
100
AcDbEntity
8
0
100
AcDbLine
10
57.650154000000015
20
-21.050132999999995
30
0
11
56.65002800000002
21
-21.050132999999995
31
0
0
LINE
5
261
100
AcDbEntity
8
0
100
AcDbLine
10
57.650154000000015
20
-21.050132999999995
30
0
11
56.65002800000002
21
-21.050132999999995
31
0
0
SPLINE
5
262
100
AcDbEntity
8
0
100
AcDbSpline
70
0
71
3
72
8
73
4
74
0
42
0.000000001
43
0.0000000001
44
0.0000000001
40
0
40
0
40
0
40
0
40
1
40
1
40
1
40
1
10
56.15014200000001
20
-17.550221999999998
30
0
10
56.15014200000001
20
-17.273997000000001
30
0
10
56.374156000000013
20
-17.049982999999997
30
0
10
56.65002800000002
20
-17.049982999999997
30
0
0
SPLINE
5
263
100
AcDbEntity
8
0
100
AcDbSpline
70
0
71
3
72
8
73
4
74
0
42
0.000000001
43
0.0000000001
44
0.0000000001
40
0
40
0
40
0
40
0
40
1
40
1
40
1
40
1
10
58.150040000000011
20
-20.550246000000001
30
0
10
58.150040000000011
20
-20.826118999999998
30
0
10
57.926379000000011
20
-21.050132999999995
30
0
10
57.650154000000015
20
-21.050132999999995
30
0
0
SPLINE
5
264
100
AcDbEntity
8
0
100
AcDbSpline
70
0
71
3
72
8
73
4
74
0
42
0.000000001
43
0.0000000001
44
0.0000000001
40
0
40
0
40
0
40
0
40
1
40
1
40
1
40
1
10
56.65002800000002
20
-21.050132999999995
30
0
10
56.374156000000013
20
-21.050132999999995
30
0
10
56.15014200000001
20
-20.826118999999998
30
0
10
56.15014200000001
20
-20.550246000000001
30
0
0
LINE
5
265
100
AcDbEntity
8
0
100
AcDbLine
10
56.65002800000002
20
-17.049982999999997
30
0
11
57.650154000000015
21
-17.049982999999997
31
0
0
SPLINE
5
266
100
AcDbEntity
8
0
100
AcDbSpline
70
0
71
3
72
8
73
4
74
0
42
0.000000001
43
0.0000000001
44
0.0000000001
40
0
40
0
40
0
40
0
40
1
40
1
40
1
40
1
10
56.15014200000001
20
-17.550221999999998
30
0
10
56.15014200000001
20
-17.273997000000001
30
0
10
56.374156000000013
20
-17.049982999999997
30
0
10
56.65002800000002
20
-17.049982999999997
30
0
0
SPLINE
5
267
100
AcDbEntity
8
0
100
AcDbSpline
70
0
71
3
72
8
73
4
74
0
42
0.000000001
43
0.0000000001
44
0.0000000001
40
0
40
0
40
0
40
0
40
1
40
1
40
1
40
1
10
56.65002800000002
20
-21.050132999999995
30
0
10
56.374156000000013
20
-21.050132999999995
30
0
10
56.15014200000001
20
-20.826118999999998
30
0
10
56.15014200000001
20
-20.550246000000001
30
0
0
SPLINE
5
268
100
AcDbEntity
8
0
100
AcDbSpline
70
0
71
3
72
8
73
4
74
0
42
0.000000001
43
0.0000000001
44
0.0000000001
40
0
40
0
40
0
40
0
40
1
40
1
40
1
40
1
10
56.65002800000002
20
-21.050132999999995
30
0
10
56.374156000000013
20
-21.050132999999995
30
0
10
56.15014200000001
20
-20.826118999999998
30
0
10
56.15014200000001
20
-20.550246000000001
30
0
0
LINE
5
269
100
AcDbEntity
8
0
100
AcDbLine
10
57.650154000000015
20
-21.050132999999995
30
0
11
56.65002800000002
21
-21.050132999999995
31
0
0
SPLINE
5
270
100
AcDbEntity
8
0
100
AcDbSpline
70
0
71
3
72
8
73
4
74
0
42
0.000000001
43
0.0000000001
44
0.0000000001
40
0
40
0
40
0
40
0
40
1
40
1
40
1
40
1
10
58.150040000000011
20
-20.550246000000001
30
0
10
58.150040000000011
20
-20.826118999999998
30
0
10
57.926379000000011
20
-21.050132999999995
30
0
10
57.650154000000015
20
-21.050132999999995
30
0
0
LINE
5
271
100
AcDbEntity
8
0
100
AcDbLine
10
56.65002800000002
20
-17.049982999999997
30
0
11
57.650154000000015
21
-17.049982999999997
31
0
0
SPLINE
5
272
100
AcDbEntity
8
0
100
AcDbSpline
70
0
71
3
72
8
73
4
74
0
42
0.000000001
43
0.0000000001
44
0.0000000001
40
0
40
0
40
0
40
0
40
1
40
1
40
1
40
1
10
56.65002800000002
20
-21.050132999999995
30
0
10
56.374156000000013
20
-21.050132999999995
30
0
10
56.15014200000001
20
-20.826118999999998
30
0
10
56.15014200000001
20
-20.550246000000001
30
0
0
LINE
5
273
100
AcDbEntity
8
0
100
AcDbLine
10
57.650154000000015
20
-21.050132999999995
30
0
11
56.65002800000002
21
-21.050132999999995
31
0
0
LINE
5
274
100
AcDbEntity
8
0
100
AcDbLine
10
58.150040000000011
20
-17.550221999999998
30
0
11
58.150040000000011
21
-20.550246000000001
31
0
0
LINE
5
275
100
AcDbEntity
8
0
100
AcDbLine
10
56.15014200000001
20
-20.550246000000001
30
0
11
56.15014200000001
21
-17.550221999999998
31
0
0
LINE
5
276
100
AcDbEntity
8
0
100
AcDbLine
10
58.150040000000011
20
-17.550221999999998
30
0
11
58.150040000000011
21
-20.550246000000001
31
0
0
LINE
5
277
100
AcDbEntity
8
0
100
AcDbLine
10
57.650154000000015
20
-21.050132999999995
30
0
11
56.65002800000002
21
-21.050132999999995
31
0
0
LINE
5
278
100
AcDbEntity
8
0
100
AcDbLine
10
56.15014200000001
20
-20.550246000000001
30
0
11
56.15014200000001
21
-17.550221999999998
31
0
0
SPLINE
5
279
100
AcDbEntity
8
0
100
AcDbSpline
70
0
71
3
72
8
73
4
74
0
42
0.000000001
43
0.0000000001
44
0.0000000001
40
0
40
0
40
0
40
0
40
1
40
1
40
1
40
1
10
58.150040000000011
20
-20.550246000000001
30
0
10
58.150040000000011
20
-20.826118999999998
30
0
10
57.926379000000011
20
-21.050132999999995
30
0
10
57.650154000000015
20
-21.050132999999995
30
0
0
LWPOLYLINE
5
280
100
AcDbEntity
8
0
100
AcDbPolyline
90
2
70
1
43
0.0
10
98.275000000000034
20
-54.625
10
111.27500000000003
20
-54.625
0
LWPOLYLINE
5
281
100
AcDbEntity
8
0
100
AcDbPolyline
90
2
70
1
43
0.0
10
111.27500000000001
20
-40.625
10
98.27500000000002
20
-40.625
0
LWPOLYLINE
5
282
100
AcDbEntity
8
0
100
AcDbPolyline
90
2
70
1
43
0.0
10
54.125000000000014
20
-40.625
10
41.125000000000007
20
-40.625
0
LWPOLYLINE
5
283
100
AcDbEntity
8
0
100
AcDbPolyline
90
8
70
1
43
0.0
10
92.225000000000023
20
-54.625
42
0.41421356237309503
10
92.725000000000023
20
-54.125
10
92.725000000000023
20
-41.125
42
0.41421356237308982
10
92.225000000000023
20
-40.625
10
79.225000000000023
20
-40.625
42
0.41421356237310025
10
78.725000000000023
20
-41.125000000000007
10
78.725000000000023
20
-54.125
42
0.41421356237310542
10
79.225000000000037
20
-54.625
0
LWPOLYLINE
5
284
100
AcDbEntity
8
0
100
AcDbPolyline
90
8
70
1
43
0.0
10
136.37500000000003
20
-40.625
42
0.41421356237310025
10
135.87500000000003
20
-41.125000000000007
10
135.87500000000003
20
-54.125
42
0.41421356237310542
10
136.37500000000006
20
-54.625
10
149.37500000000003
20
-54.625
42
0.4142135623730846
10
149.87500000000003
20
-54.125
10
149.87500000000003
20
-41.125
42
0.41421356237307944
10
149.37500000000003
20
-40.625
0
LWPOLYLINE
5
285
100
AcDbEntity
8
0
100
AcDbPolyline
90
8
70
1
43
0.0
10
79.225000000000023
20
-40.625
42
0.41421356237310025
10
78.725000000000023
20
-41.125000000000007
10
78.725000000000023
20
-54.125
42
0.41421356237310542
10
79.225000000000037
20
-54.625
10
92.225000000000023
20
-54.625
42
0.41421356237309503
10
92.725000000000023
20
-54.125
10
92.725000000000023
20
-41.125
42
0.41421356237308982
10
92.225000000000023
20
-40.625
0
LWPOLYLINE
5
286
100
AcDbEntity
8
0
100
AcDbPolyline
90
2
70
1
43
0.0
10
117.32500000000003
20
-40.625
42
0.41421356237310025
10
116.82500000000005
20
-41.125000000000007
42
-0.41421356237310542
0
LWPOLYLINE
5
287
100
AcDbEntity
8
0
100
AcDbPolyline
90
4
70
1
43
0.0
10
97.77500000000002
20
-41.125000000000007
10
97.77500000000002
20
-54.125
42
0.41421356237310542
10
98.275000000000034
20
-54.625
42
-0.41421356237310542
10
97.77500000000002
20
-54.125
0
LWPOLYLINE
5
288
100
AcDbEntity
8
0
100
AcDbPolyline
90
2
70
1
43
0.0
10
98.27500000000002
20
-40.625
42
0.41421356237310025
10
97.775000000000034
20
-41.125000000000007
42
-0.41421356237310542
0
LWPOLYLINE
5
289
100
AcDbEntity
8
0
100
AcDbPolyline
90
2
70
1
43
0.0
10
130.82500000000005
20
-41.125
42
0.41421356237308982
10
130.32500000000002
20
-40.625
42
-0.41421356237308982
0
LWPOLYLINE
5
290
100
AcDbEntity
8
0
100
AcDbPolyline
90
2
70
1
43
0.0
10
111.77500000000002
20
-41.125
42
0.41421356237308982
10
111.27500000000001
20
-40.625
42
-0.41421356237308982
0
LWPOLYLINE
5
291
100
AcDbEntity
8
0
100
AcDbPolyline
90
16
70
1
43
0.0
10
168.42500000000004
20
-40.625
10
155.42500000000004
20
-40.625
42
0.41421356237310025
10
154.92500000000004
20
-41.125000000000007
10
154.92500000000004
20
-54.125
42
0.41421356237310542
10
155.42500000000007
20
-54.625
10
168.42500000000004
20
-54.625
42
0.41421356237309503
10
168.92500000000007
20
-54.125
10
168.92500000000007
20
-41.125
42
0.41421356237308982
10
168.42500000000004
20
-40.625
10
155.42500000000004
20
-40.625
42
0.41421356237310542
10
154.92500000000004
20
-41.125000000000007
10
154.92500000000004
20
-54.125
42
0.41421356237310542
10
155.42500000000007
20
-54.625
10
168.42500000000004
20
-54.625
42
0.41421356237309503
10
168.92500000000007
20
-54.125
10
168.92500000000007
20
-41.125
42
0.41421356237308982
0
LWPOLYLINE
5
292
100
AcDbEntity
8
0
100
AcDbPolyline
90
2
70
1
43
0.0
10
130.32500000000002
20
-40.625
10
117.32500000000003
20
-40.625
0
LWPOLYLINE
5
293
100
AcDbEntity
8
0
100
AcDbPolyline
90
8
70
1
43
0.0
10
149.87500000000003
20
-41.125
42
0.41421356237307944
10
149.37500000000003
20
-40.625
10
136.37500000000003
20
-40.625
42
0.41421356237310542
10
135.87500000000003
20
-41.125000000000007
10
135.87500000000003
20
-54.125
42
0.41421356237310542
10
136.37500000000006
20
-54.625
10
149.37500000000003
20
-54.625
42
0.4142135623730846
10
149.87500000000003
20
-54.125
0
LWPOLYLINE
5
294
100
AcDbEntity
8
0
100
AcDbPolyline
90
2
70
1
43
0.0
10
41.125000000000036
20
-54.625
10
54.125000000000014
20
-54.625
0
LWPOLYLINE
5
295
100
AcDbEntity
8
0
100
AcDbPolyline
90
16
70
1
43
0.0
10
35.57500000000001
20
-54.125
10
35.57500000000001
20
-41.125
42
0.41421356237308982
10
35.075000000000003
20
-40.625
10
22.075000000000003
20
-40.625
42
0.41421356237310025
10
21.575000000000006
20
-41.125000000000007
10
21.575000000000006
20
-54.125
42
0.41421356237310542
10
22.075000000000028
20
-54.625
10
35.07500000000001
20
-54.625
42
0.41421356237309243
10
35.57500000000001
20
-54.125
10
35.57500000000001
20
-41.125
42
0.41421356237308982
10
35.075000000000003
20
-40.625
10
22.075000000000003
20
-40.625
42
0.41421356237310025
10
21.575000000000006
20
-41.125000000000007
10
21.575000000000006
20
-54.125
42
0.41421356237310542
10
22.075000000000028
20
-54.625
10
35.07500000000001
20
-54.625
42
0.41421356237309243
0
LWPOLYLINE
5
296
100
AcDbEntity
8
0
100
AcDbPolyline
90
2
70
1
43
0.0
10
193.52500000000003
20
-40.625
42
0.4142135623730846
10
193.02500000000003
20
-41.125000000000007
42
-0.41421356237310025
0
LWPOLYLINE
5
297
100
AcDbEntity
8
0
100
AcDbPolyline
90
2
70
1
43
0.0
10
130.32500000000005
20
-54.625
42
0.4142135623730846
10
130.82500000000005
20
-54.125
42
-0.4142135623730846
0
LWPOLYLINE
5
298
100
AcDbEntity
8
0
100
AcDbPolyline
90
6
70
1
43
0.0
10
116.82500000000003
20
-41.125000000000007
10
116.82500000000003
20
-54.125
42
0.41421356237310542
10
117.32500000000005
20
-54.625
10
130.32500000000005
20
-54.625
10
117.32500000000005
20
-54.625
42
-0.41421356237310542
10
116.82500000000003
20
-54.125
0
LWPOLYLINE
5
299
100
AcDbEntity
8
0
100
AcDbPolyline
90
4
70
1
43
0.0
10
40.625000000000007
20
-41.125000000000007
10
40.625000000000007
20
-54.125
42
0.41421356237310542
10
41.125000000000036
20
-54.625
42
-0.41421356237310542
10
40.625000000000007
20
-54.125
0
LWPOLYLINE
5
300
100
AcDbEntity
8
0
100
AcDbPolyline
90
8
70
1
43
0.0
10
173.97500000000005
20
-41.125000000000007
10
173.97500000000005
20
-54.125
42
0.41421356237309503
10
174.47500000000005
20
-54.625
10
187.47500000000002
20
-54.625
42
0.41421356237309503
10
187.97500000000002
20
-54.125
10
187.97500000000002
20
-41.125
42
0.41421356237308982
10
187.47500000000002
20
-40.625
10
174.47500000000002
20
-40.625
42
0.4142135623730846
0
LWPOLYLINE
5
301
100
AcDbEntity
8
0
100
AcDbPolyline
90
8
70
1
43
0.0
10
187.97500000000002
20
-54.125
10
187.97500000000002
20
-41.125
42
0.41421356237308982
10
187.47500000000002
20
-40.625
10
174.47500000000002
20
-40.625
42
0.41421356237310025
10
173.97500000000005
20
-41.125000000000007
10
173.97500000000005
20
-54.125
42
0.41421356237309503
10
174.47500000000005
20
-54.625
10
187.47500000000002
20
-54.625
42
0.41421356237309503
0
LWPOLYLINE
5
302
100
AcDbEntity
8
0
100
AcDbPolyline
90
8
70
1
43
0.0
10
73.175000000000011
20
-40.625
10
60.175000000000018
20
-40.625
42
0.41421356237310542
10
59.675000000000018
20
-41.125000000000007
10
59.675000000000018
20
-54.125
42
0.41421356237310542
10
60.17500000000004
20
-54.625
10
73.175000000000011
20
-54.625
42
0.41421356237309503
10
73.675000000000026
20
-54.125
10
73.675000000000011
20
-41.125
42
0.4142135623730846
0
LWPOLYLINE
5
303
100
AcDbEntity
8
0
100
AcDbPolyline
90
8
70
1
43
0.0
10
60.175000000000018
20
-40.625
42
0.41421356237310025
10
59.675000000000018
20
-41.125000000000007
10
59.675000000000018
20
-54.125
42
0.41421356237310542
10
60.17500000000004
20
-54.625
10
73.175000000000011
20
-54.625
42
0.41421356237309503
10
73.675000000000026
20
-54.125
10
73.675000000000011
20
-41.125
42
0.41421356237308982
10
73.175000000000011
20
-40.625
0
LWPOLYLINE
5
304
100
AcDbEntity
8
0
100
AcDbPolyline
90
4
70
1
43
0.0
10
111.27500000000003
20
-54.625
42
0.4142135623730846
10
111.77500000000002
20
-54.125
10
111.77500000000002
20
-41.125
10
111.77500000000002
20
-54.125
42
-0.4142135623730846
0
LWPOLYLINE
5
305
100
AcDbEntity
8
0
100
AcDbPolyline
90
2
70
1
43
0.0
10
207.02500000000003
20
-41.125
42
0.41421356237308982
10
206.52500000000003
20
-40.625
42
-0.41421356237308982
0
LWPOLYLINE
5
306
100
AcDbEntity
8
0
100
AcDbPolyline
90
4
70
1
43
0.0
10
54.625000000000014
20
-54.125
10
54.625000000000014
20
-41.125
42
0.4142135623730846
10
54.125000000000014
20
-40.625
42
-0.4142135623730846
10
54.625000000000014
20
-41.125
0
LWPOLYLINE
5
307
100
AcDbEntity
8
0
100
AcDbPolyline
90
2
70
1
43
0.0
10
206.52500000000003
20
-40.625
10
193.52500000000003
20
-40.625
0
LWPOLYLINE
5
308
100
AcDbEntity
8
0
100
AcDbPolyline
90
2
70
1
43
0.0
10
207.02500000000003
20
-54.125
10
207.02500000000003
20
-41.125
0
LWPOLYLINE
5
309
100
AcDbEntity
8
0
100
AcDbPolyline
90
16
70
1
43
0.0
10
3.0250000000000221
20
-54.625
10
16.025000000000002
20
-54.625
42
0.41421356237309243
10
16.525000000000006
20
-54.125
10
16.525000000000002
20
-41.125
42
0.41421356237308854
10
16.024999999999999
20
-40.625
10
3.0250000000000004
20
-40.625
42
0.41421356237310186
10
2.5250000000000004
20
-41.125000000000007
10
2.525000000000003
20
-54.125
42
0.4142135623731048
10
3.0250000000000221
20
-54.625
10
16.025000000000002
20
-54.625
42
0.41421356237309243
10
16.525000000000006
20
-54.125
10
16.525000000000002
20
-41.125
42
0.41421356237308721
10
16.024999999999999
20
-40.625
10
3.0250000000000004
20
-40.625
42
0.41421356237310025
10
2.5250000000000004
20
-41.125000000000007
10
2.525000000000003
20
-54.125
42
0.41421356237310447
0
LWPOLYLINE
5
310
100
AcDbEntity
8
0
100
AcDbPolyline
90
2
70
1
43
0.0
10
54.125000000000014
20
-54.625
42
0.41421356237308982
10
54.625000000000014
20
-54.125
42
-0.41421356237308982
0
LWPOLYLINE
5
311
100
AcDbEntity
8
0
100
AcDbPolyline
90
2
70
1
43
0.0
10
193.52500000000006
20
-54.625
10
206.52500000000003
20
-54.625
0
LWPOLYLINE
5
312
100
AcDbEntity
8
0
100
AcDbPolyline
90
2
70
1
43
0.0
10
193.02500000000006
20
-54.125
42
0.41421356237309503
10
193.52500000000006
20
-54.625
42
-0.41421356237309503
0
LWPOLYLINE
5
313
100
AcDbEntity
8
0
100
AcDbPolyline
90
2
70
1
43
0.0
10
41.125000000000007
20
-40.625
42
0.41421356237310025
10
40.625000000000028
20
-41.125000000000007
42
-0.41421356237310025
0
LWPOLYLINE
5
314
100
AcDbEntity
8
0
100
AcDbPolyline
90
2
70
1
43
0.0
10
130.82500000000005
20
-54.125
10
130.82500000000005
20
-41.125
0
LWPOLYLINE
5
315
100
AcDbEntity
8
0
100
AcDbPolyline
90
2
70
1
43
0.0
10
206.52500000000003
20
-54.625
42
0.41421356237309503
10
207.02500000000003
20
-54.125
42
-0.41421356237309503
0
LWPOLYLINE
5
316
100
AcDbEntity
8
0
100
AcDbPolyline
90
2
70
1
43
0.0
10
193.02500000000006
20
-41.125000000000007
10
193.02500000000006
20
-54.125
0
ENDSEC
0
SECTION
2
OBJECTS
0
DICTIONARY
5
C
100
AcDbDictionary
3
ACAD_GROUP
350
D
3
ACAD_MLINESTYLE
350
17
0
DICTIONARY
5
D
100
AcDbDictionary
0
DICTIONARY
5
1A
330
C
100
AcDbDictionary
0
DICTIONARY
5
17
100
AcDbDictionary
0
ENDSEC
0
EOF
