0
SECTION
2
HEADER
9
$INSUNITS
70
4
9
$ACADVER
1
AC1014
9
$HANDSEED
5
FFFF
0
ENDSEC
0
SECTION
2
TABLES
0
TABLE
2
VPORT
5
8
100
AcDbSymbolTable
0
ENDTAB
0
TABLE
2
LTYPE
5
5
100
AcDbSymbolTable
0
LTYPE
5
14
100
AcDbSymbolTableRecord
100
AcDbLinetypeTableRecord
2
BYBLOCK
70
0
0
LTYPE
5
15
100
AcDbSymbolTableRecord
100
AcDbLinetypeTableRecord
2
BYLAYER
70
0
0
ENDTAB
0
TABLE
2
LAYER
5
2
100
AcDbSymbolTable
70
2
0
LAYER
5
50
100
AcDbSymbolTableRecord
100
AcDbLayerTableRecord
2
0
70
0
6
CONTINUOUS
0
ENDTAB
0
TABLE
2
STYLE
5
3
100
AcDbSymbolTable
70
1
0
STYLE
5
11
100
AcDbSymbolTableRecord
100
AcDbTextStyleTableRecord
2
STANDARD
70
0
0
ENDTAB
0
TABLE
2
VIEW
5
6
100
AcDbSymbolTable
70
0
0
ENDTAB
0
TABLE
2
UCS
5
7
100
AcDbSymbolTable
70
0
0
ENDTAB
0
TABLE
2
APPID
5
9
100
AcDbSymbolTable
70
2
0
APPID
5
12
100
AcDbSymbolTableRecord
100
AcDbRegAppTableRecord
2
ACAD
70
0
0
ENDTAB
0
TABLE
2
DIMSTYLE
5
A
100
AcDbSymbolTable
70
1
0
ENDTAB
0
TABLE
2
BLOCK_RECORD
5
1
100
AcDbSymbolTable
70
1
0
BLOCK_RECORD
5
1F
100
AcDbSymbolTableRecord
100
AcDbBlockTableRecord
2
*MODEL_SPACE
0
BLOCK_RECORD
5
1B
100
AcDbSymbolTableRecord
100
AcDbBlockTableRecord
2
*PAPER_SPACE
0
ENDTAB
0
ENDSEC
0
SECTION
2
BLOCKS
0
BLOCK
5
20
100
AcDbEntity
100
AcDbBlockBegin
2
*MODEL_SPACE
0
ENDBLK
5
21
100
AcDbEntity
100
AcDbBlockEnd
0
BLOCK
5
1C
100
AcDbEntity
100
AcDbBlockBegin
2
*PAPER_SPACE
0
ENDBLK
5
1D
100
AcDbEntity
100
AcDbBlockEnd
0
ENDSEC
0
SECTION
2
ENTITIES
0
LWPOLYLINE
5
100
100
AcDbEntity
8
0
100
AcDbPolyline
90
64
70
1
43
0.0
10
-77.287000000000006
20
58.17499999999999
42
0.41421356237311585
10
-76.786999999999992
20
57.674999999999976
10
-63.643250000000009
20
57.674999999999983
42
0.41421356237311585
10
-63.143250000000002
20
58.17499999999999
10
-63.143250000000002
20
59.175000000000004
42
-0.41421356237307422
10
-62.643249999999995
20
59.675000000000011
10
-61.15000000000002
20
59.675000000000018
42
-0.41421356237310025
10
-60.650000000000013
20
59.175000000000004
10
-60.650000000000013
20
58.17499999999999
42
0.41421356237310542
10
-60.150000000000006
20
57.67499999999999
10
-54.149999999999999
20
57.674999999999983
42
0.41421356237311063
10
-53.65000000000002
20
58.17499999999999
10
-53.65000000000002
20
59.175000000000004
42
-0.41421356237307422
10
-53.150000000000013
20
59.675000000000011
10
-31.600000000000001
20
59.674999999999983
42
0.41421356237309764
10
-31.099999999999994
20
60.174999999999983
10
-31.100000000000001
20
73.174999999999983
42
0.41421356237310281
10
-31.600000000000001
20
73.674999999999997
10
-177.94999999999999
20
73.674999999999983
42
0.41421356237316787
10
-178.44999999999999
20
73.174999999999983
10
-178.44999999999999
20
60.174999999999983
42
0.41421356237311063
10
-177.95000000000002
20
59.674999999999997
10
-156.40000000000003
20
59.675000000000004
42
-0.41421356237307944
10
-155.90000000000001
20
59.175000000000004
10
-155.90000000000003
20
58.17499999999999
42
0.41421356237304302
10
-155.40000000000003
20
57.674999999999983
10
-149.40000000000003
20
57.674999999999976
42
0.41421356237312623
10
-148.90000000000001
20
58.17499999999999
10
-148.90000000000001
20
59.175000000000004
42
-0.41421356237311063
10
-148.40000000000001
20
59.675000000000011
10
-142.14425000000006
20
59.675000000000018
42
-0.41421356237311063
10
-141.64425
20
59.175000000000004
10
-141.64425
20
58.17499999999999
42
0.41421356237309503
10
-141.14425
20
57.674999999999983
10
-132.76299999999998
20
57.67499999999999
42
0.4142135623730534
10
-132.26300000000006
20
58.17499999999999
10
-132.26300000000006
20
59.174999999999969
42
-0.41421356237310542
10
-131.76300000000001
20
59.674999999999983
10
-127.82500000000002
20
59.674999999999976
42
-0.41421356237309503
10
-127.32500000000002
20
59.174999999999969
10
-127.32500000000002
20
58.17499999999999
42
0.4142135623730846
10
-126.82500000000003
20
57.674999999999983
10
-120.82500000000002
20
57.67499999999999
42
0.41421356237307944
10
-120.32500000000002
20
58.17499999999999
10
-120.325
20
59.174999999999969
42
-0.41421356237308982
10
-119.82500000000002
20
59.674999999999983
10
-118.3
20
59.674999999999997
42
-0.41421356237307422
10
-117.80000000000001
20
59.174999999999969
10
-117.80000000000001
20
58.17499999999999
42
0.41421356237309503
10
-117.30000000000001
20
57.674999999999983
10
-108.887
20
57.674999999999983
42
0.41421356237312623
10
-108.38700000000001
20
58.17499999999999
10
-108.387
20
59.174999999999983
42
-0.41421356237307422
10
-107.887
20
59.674999999999983
10
-101.663
20
59.675000000000011
42
-0.41421356237310542
10
-101.16300000000001
20
59.175000000000004
10
-101.16300000000001
20
58.17499999999999
42
0.41421356237310542
10
-100.66299999999998
20
57.674999999999983
10
-82.724999999999952
20
57.674999999999976
42
0.41421356237304818
10
-82.224999999999966
20
58.17499999999999
10
-82.224999999999966
20
59.175000000000004
42
-0.41421356237307944
10
-81.72499999999998
20
59.675000000000011
10
-77.786999999999978
20
59.675000000000018
42
-0.4142135623730846
10
-77.287000000000006
20
59.175000000000004
0
CIRCLE
5
101
100
AcDbEntity
8
0
100
AcDbCircle
10
-19.049999999999976
20
-6.5749999999999167
30
0
40
1.1499999999999908
210
0
220
0
230
1
0
CIRCLE
5
102
100
AcDbEntity
8
0
100
AcDbCircle
10
-190.5
20
-6.5749999999999957
30
0
40
1.1499999999999844
210
0
220
0
230
1
0
CIRCLE
5
103
100
AcDbEntity
8
0
100
AcDbCircle
10
-18.500000000000085
20
66.300000000000153
30
0
40
1.1499999999999932
210
0
220
0
230
1
0
CIRCLE
5
104
100
AcDbEntity
8
0
100
AcDbCircle
10
-191.04999999999995
20
66.300000000000082
30
0
40
1.1499999999999844
210
0
220
0
230
1
0
LWPOLYLINE
5
105
100
AcDbEntity
8
0
100
AcDbPolyline
90
8
70
1
43
0.0
10
-206.52500000000003
20
16.525000000000031
42
0.41421356237292595
10
-207.02500000000001
20
16.024999999999999
10
-207.02500000000003
20
3.0249999999999999
42
0.41421356237310608
10
-206.52500000000003
20
2.5249999999999773
10
-193.52500000000006
20
2.5249999999999901
42
0.41421356237307683
10
-193.02500000000003
20
3.0250000000000021
10
-193.02500000000006
20
16.024999999999999
42
0.41421356237295975
10
-193.52500000000006
20
16.525000000000016
0
LWPOLYLINE
5
106
100
AcDbEntity
8
0
100
AcDbPolyline
90
8
70
1
43
0.0
10
-5.4062499999999991
20
21.575000000000006
42
0.41421356237310281
10
-4.9062500000000009
20
22.074999999999999
10
-4.9062499999999973
20
35.075000000000003
42
0.41421356237309048
10
-5.4062500000000036
20
35.57500000000001
10
-18.40625
20
35.57500000000001
42
0.41421356237309243
10
-18.90625
20
35.075000000000003
10
-18.906250000000004
20
22.075000000000003
42
0.41421356237308982
10
-18.406249999999993
20
21.575000000000003
0
LWPOLYLINE
5
107
100
AcDbEntity
8
0
100
AcDbPolyline
90
8
70
1
43
0.0
10
-116.03749999999999
20
35.575000000000024
42
0.41421356237304563
10
-116.53749999999999
20
35.075000000000003
10
-116.53750000000001
20
22.074999999999999
42
0.41421356237311585
10
-116.03749999999998
20
21.57500000000001
10
-103.03750000000001
20
21.57500000000001
42
0.41421356237316265
10
-102.53749999999999
20
22.074999999999999
10
-102.53749999999999
20
35.075000000000003
42
0.41421356237309243
10
-103.03750000000001
20
35.57500000000001
0
LWPOLYLINE
5
108
100
AcDbEntity
8
0
100
AcDbPolyline
90
8
70
1
43
0.0
10
-160.1875
20
21.57500000000001
42
0.41421356237311585
10
-159.68749999999997
20
22.074999999999999
10
-159.6875
20
35.075000000000003
42
0.41421356237309243
10
-160.1875
20
35.575000000000003
10
-173.1875
20
35.575000000000017
42
0.41421356237300916
10
-173.68750000000003
20
35.075000000000003
10
-173.68750000000003
20
22.074999999999999
42
0.41421356237310281
10
-173.1875
20
21.574999999999985
0
LWPOLYLINE
5
109
100
AcDbEntity
8
0
100
AcDbPolyline
90
8
70
1
43
0.0
10
-122.08750000000002
20
21.57500000000001
42
0.41421356237316265
10
-121.58750000000001
20
22.074999999999999
10
-121.58750000000001
20
35.075000000000003
42
0.41421356237309243
10
-122.08750000000002
20
35.575000000000003
10
-135.08750000000001
20
35.575000000000024
42
0.41421356237304563
10
-135.58750000000001
20
35.075000000000003
10
-135.58750000000001
20
22.074999999999999
42
0.41421356237311585
10
-135.08749999999998
20
21.57500000000001
0
LWPOLYLINE
5
110
100
AcDbEntity
8
0
100
AcDbPolyline
90
8
70
1
43
0.0
10
-59.387500000000003
20
22.074999999999999
42
0.41421356237306384
10
-58.887500000000017
20
21.57500000000001
10
-45.887499999999989
20
21.575000000000006
42
0.41421356237306384
10
-45.387500000000003
20
22.074999999999999
10
-45.387500000000003
20
35.075000000000003
42
0.41421356237310025
10
-45.88750000000001
20
35.57500000000001
10
-58.887500000000017
20
35.57500000000001
42
0.41421356237309503
10
-59.387500000000003
20
35.075000000000003
0
LWPOLYLINE
5
111
100
AcDbEntity
8
0
100
AcDbPolyline
90
8
70
1
43
0.0
10
-78.4375
20
22.074999999999999
42
0.4142135623730846
10
-77.9375
20
21.57500000000001
10
-64.9375
20
21.575000000000003
42
0.41421356237305862
10
-64.437500000000014
20
22.074999999999999
10
-64.437500000000014
20
35.075000000000003
42
0.41421356237309503
10
-64.9375
20
35.57500000000001
10
-77.9375
20
35.57500000000001
42
0.41421356237308982
10
-78.4375
20
35.075000000000003
0
LWPOLYLINE
5
112
100
AcDbEntity
8
0
100
AcDbPolyline
90
8
70
1
43
0.0
10
-26.837499999999999
20
21.575000000000006
42
0.41421356237310281
10
-26.337499999999999
20
22.074999999999999
10
-26.337499999999991
20
35.075000000000003
42
0.41421356237308982
10
-26.837499999999999
20
35.575000000000017
10
-39.837499999999999
20
35.57500000000001
42
0.41421356237311846
10
-40.337499999999991
20
35.075000000000003
10
-40.337500000000013
20
22.074999999999999
42
0.41421356237310802
10
-39.837500000000006
20
21.574999999999992
0
LWPOLYLINE
5
113
100
AcDbEntity
8
0
100
AcDbPolyline
90
8
70
1
43
0.0
10
-28.768750000000004
20
54.625
42
0.41421356237306123
10
-29.268750000000008
20
54.125000000000014
10
-29.268750000000011
20
41.125
42
0.41421356237308204
10
-28.768750000000018
20
40.625
10
-27.768750000000004
20
40.625
42
0.41421356237308721
10
-27.268750000000015
20
41.124999999999986
10
-27.268750000000001
20
54.125000000000021
42
0.41421356237310542
10
-27.768750000000004
20
54.625
0
LWPOLYLINE
5
114
100
AcDbEntity
8
0
100
AcDbPolyline
90
8
70
1
43
0.0
10
-93.012499999999989
20
54.125000000000014
42
0.41421356237301177
10
-93.512500000000003
20
54.625000000000021
10
-106.51250000000003
20
54.624999999999993
42
0.4142135623730846
10
-107.01250000000002
20
54.125000000000014
10
-107.01250000000002
20
41.125
42
0.41421356237310542
10
-106.51250000000003
20
40.624999999999993
10
-93.512500000000003
20
40.625
42
0.41421356237305862
10
-93.012500000000017
20
41.125
0
LWPOLYLINE
5
115
100
AcDbEntity
8
0
100
AcDbPolyline
90
8
70
1
43
0.0
10
-180.78125
20
21.575000000000003
42
0.41421356237302737
10
-180.28125000000003
20
22.074999999999999
10
-180.28125000000003
20
35.075000000000003
42
0.4142135623730222
10
-180.78125
20
35.575000000000045
10
-181.78125
20
35.575000000000017
42
0.41421356237300916
10
-182.28125000000003
20
35.075000000000003
10
-182.28125000000003
20
22.074999999999999
42
0.41421356237310281
10
-181.78125
20
21.574999999999985
0
LWPOLYLINE
5
116
100
AcDbEntity
8
0
100
AcDbPolyline
90
8
70
1
43
0.0
10
-141.13749999999999
20
21.57500000000001
42
0.41421356237316265
10
-140.63749999999999
20
22.074999999999999
10
-140.63749999999999
20
35.075000000000003
42
0.41421356237309243
10
-141.13749999999999
20
35.575000000000003
10
-154.13749999999999
20
35.575000000000017
42
0.41421356237315748
10
-154.63750000000005
20
35.075000000000003
10
-154.63750000000005
20
22.074999999999999
42
0.41421356237307422
10
-154.13749999999999
20
21.574999999999992
0
LWPOLYLINE
5
117
100
AcDbEntity
8
0
100
AcDbPolyline
90
8
70
1
43
0.0
10
-199.38124999999999
20
35.575000000000017
42
0.41421356237300916
10
-199.88124999999994
20
35.075000000000003
10
-199.88124999999999
20
22.074999999999999
42
0.41421356237310281
10
-199.38124999999999
20
21.574999999999982
10
-186.38124999999999
20
21.575000000000031
42
0.41421356237312101
10
-185.88125000000002
20
22.074999999999999
10
-185.88124999999997
20
35.075000000000003
42
0.41421356237314444
10
-186.38124999999999
20
35.575000000000017
0
LWPOLYLINE
5
118
100
AcDbEntity
8
0
100
AcDbPolyline
90
8
70
1
43
0.0
10
-150.66249999999999
20
40.625000000000007
42
0.41421356237313145
10
-150.16249999999999
20
41.125
10
-150.16249999999999
20
54.125000000000014
42
0.41421356237309503
10
-150.66249999999999
20
54.625000000000028
10
-163.66250000000005
20
54.625000000000014
42
0.41421356237304302
10
-164.16249999999997
20
54.125000000000014
10
-164.16250000000002
20
41.125
42
0.41421356237318868
10
-163.66250000000008
20
40.625000000000043
0
LWPOLYLINE
5
119
100
AcDbEntity
8
0
100
AcDbPolyline
90
8
70
1
43
0.0
10
-203.48125000000005
20
35.075000000000003
42
0.4142135623730222
10
-203.98124999999999
20
35.57500000000006
10
-204.98125000000005
20
35.575000000000031
42
0.41421356237301959
10
-205.48124999999999
20
35.075000000000003
10
-205.48124999999999
20
22.074999999999999
42
0.41421356237317569
10
-204.98125000000002
20
21.574999999999971
10
-203.98124999999999
20
21.575000000000003
42
0.41421356237302737
10
-203.48125000000005
20
22.074999999999999
0
LWPOLYLINE
5
120
100
AcDbEntity
8
0
100
AcDbPolyline
90
8
70
1
43
0.0
10
-35.862499999999997
20
54.125000000000014
42
0.41421356237308204
10
-36.362500000000004
20
54.625000000000021
10
-49.362500000000004
20
54.625
42
0.41421356237311063
10
-49.862499999999997
20
54.125000000000014
10
-49.862499999999997
20
41.125
42
0.4142135623730846
10
-49.362500000000011
20
40.625
10
-36.362499999999997
20
40.625
42
0.41421356237308982
10
-35.862499999999997
20
41.125
0
LWPOLYLINE
5
121
100
AcDbEntity
8
0
100
AcDbPolyline
90
8
70
1
43
0.0
10
-145.11250000000001
20
41.125
42
0.41421356237305862
10
-144.61250000000004
20
40.624999999999986
10
-131.61250000000001
20
40.625000000000007
42
0.41421356237313145
10
-131.11250000000001
20
41.125
10
-131.11250000000001
20
54.125000000000014
42
0.41421356237309503
10
-131.61250000000001
20
54.625000000000021
10
-144.61250000000001
20
54.625
42
0.41421356237306384
10
-145.11250000000001
20
54.125000000000014
0
LWPOLYLINE
5
122
100
AcDbEntity
8
0
100
AcDbPolyline
90
8
70
1
43
0.0
10
-117.32500000000002
20
2.5250000000000119
42
0.41421356237310608
10
-116.82500000000002
20
3.0249999999999977
10
-116.82500000000002
20
16.024999999999999
42
0.41421356237301571
10
-117.32500000000002
20
16.525000000000006
10
-130.32499999999999
20
16.525000000000002
42
0.41421356237315093
10
-130.82499999999999
20
16.024999999999999
10
-130.82499999999999
20
3.0249999999999999
42
0.41421356237309404
10
-130.32499999999999
20
2.524999999999995
0
LWPOLYLINE
5
123
100
AcDbEntity
8
0
100
AcDbPolyline
90
8
70
1
43
0.0
10
-191.14374999999998
20
40.625000000000007
42
0.41421356237290774
10
-190.64375000000013
20
41.125
10
-190.64375000000001
20
54.125000000000014
42
0.41421356237314705
10
-191.14375000000001
20
54.624999999999972
10
-204.14375000000007
20
54.625000000000014
42
0.41421356237300661
10
-204.64375000000007
20
54.125000000000014
10
-204.64375000000004
20
41.125
42
0.41421356237319906
10
-204.14375000000007
20
40.625
0
LWPOLYLINE
5
124
100
AcDbEntity
8
0
100
AcDbPolyline
90
8
70
1
43
0.0
10
-125.5625
20
54.625
42
0.41421356237306384
10
-126.06250000000001
20
54.125000000000014
10
-126.06250000000001
20
41.125
42
0.41421356237311585
10
-125.56250000000003
20
40.625
10
-112.56250000000001
20
40.625000000000007
42
0.41421356237313145
10
-112.0625
20
41.125
10
-112.0625
20
54.125000000000014
42
0.41421356237309503
10
-112.56250000000001
20
54.625000000000028
0
LWPOLYLINE
5
125
100
AcDbEntity
8
0
100
AcDbPolyline
90
8
70
1
43
0.0
10
-83.98749999999994
20
21.575000000000003
42
0.41421356237310025
10
-83.487499999999983
20
22.074999999999999
10
-83.487500000000011
20
35.075000000000003
42
0.41421356237311063
10
-83.987499999999983
20
35.575000000000031
10
-96.987500000000011
20
35.575000000000017
42
0.41421356237310281
10
-97.487500000000011
20
35.075000000000003
10
-97.487500000000011
20
22.074999999999999
42
0.41421356237309503
10
-96.987500000000011
20
21.574999999999992
0
LWPOLYLINE
5
126
100
AcDbEntity
8
0
100
AcDbPolyline
90
8
70
1
43
0.0
10
-169.21250000000001
20
54.125000000000014
42
0.41421356237320428
10
-169.71249999999998
20
54.625000000000028
10
-182.71250000000006
20
54.624999999999972
42
0.41421356237312101
10
-183.21250000000003
20
54.125000000000014
10
-183.21250000000006
20
41.125
42
0.41421356237311585
10
-182.71250000000006
20
40.625000000000036
10
-169.71250000000001
20
40.625
42
0.414213562373069
10
-169.21249999999998
20
41.125
0
LWPOLYLINE
5
127
100
AcDbEntity
8
0
100
AcDbPolyline
90
8
70
1
43
0.0
10
-68.912499999999994
20
41.125
42
0.41421356237310025
10
-68.412499999999994
20
40.625
10
-55.412500000000016
20
40.625
42
0.41421356237307944
10
-54.912500000000009
20
41.125
10
-54.912500000000009
20
54.125000000000014
42
0.41421356237309503
10
-55.412500000000016
20
54.625
10
-68.412499999999994
20
54.625
42
0.41421356237311063
10
-68.912499999999994
20
54.125000000000014
0
LWPOLYLINE
5
128
100
AcDbEntity
8
0
100
AcDbPolyline
90
14
70
1
43
0.0
10
-9.6687499999999993
20
54.125000000000014
42
0.4142135623730625
10
-10.168749999999989
20
54.625
10
-23.168749999999999
20
54.625
42
0.41421356237309503
10
-23.668750000000003
20
54.125000000000014
10
-23.668749999999999
20
41.125
42
0.41421356237309503
10
-23.168749999999996
20
40.625
10
-10.168749999999999
20
40.625
42
0.41421356237310025
10
-9.6687500000000082
20
41.125
10
-9.6687499999999904
20
43.616347819385922
42
-0.41421356237307422
10
-9.1687500000000099
20
44.116347819385908
10
-4.6124086304582255
20
44.116347819385943
42
0.99999999999999989
10
-4.6124086304582335
20
51.116347819385936
10
-9.1687499999999993
20
51.116347819385922
42
-0.41421356237309631
10
-9.6687500000000171
20
51.616347819385943
0
LWPOLYLINE
5
129
100
AcDbEntity
8
0
100
AcDbPolyline
90
8
70
1
43
0.0
10
-155.42500000000001
20
2.5249999999999906
42
0.41421356237304269
10
-154.92500000000004
20
3.0250000000000021
10
-154.92500000000001
20
16.024999999999999
42
0.4142135623730534
10
-155.42500000000001
20
16.525000000000006
10
-168.42500000000001
20
16.525000000000031
42
0.41421356237292595
10
-168.92500000000001
20
16.024999999999999
10
-168.92500000000001
20
3.0249999999999999
42
0.41421356237310608
10
-168.42500000000001
20
2.5249999999999773
0
LWPOLYLINE
5
130
100
AcDbEntity
8
0
100
AcDbPolyline
90
8
70
1
43
0.0
10
-87.46250000000002
20
54.625
42
0.41421356237309503
10
-87.962500000000006
20
54.125000000000014
10
-87.962500000000006
20
41.125
42
0.41421356237305862
10
-87.462500000000034
20
40.624999999999986
10
-74.462500000000006
20
40.625
42
0.41421356237309503
10
-73.96250000000002
20
41.125
10
-73.962500000000006
20
54.125000000000014
42
0.41421356237311063
10
-74.462500000000006
20
54.625
0
LWPOLYLINE
5
131
100
AcDbEntity
8
0
100
AcDbPolyline
90
8
70
1
43
0.0
10
-135.875
20
16.024999999999999
42
0.4142135623730534
10
-136.375
20
16.525000000000006
10
-149.375
20
16.525000000000002
42
0.41421356237315093
10
-149.875
20
16.024999999999999
10
-149.875
20
3.0249999999999999
42
0.41421356237309404
10
-149.375
20
2.524999999999995
10
-136.375
20
2.5250000000000057
42
0.41421356237306806
10
-135.875
20
3.0250000000000021
0
LWPOLYLINE
5
132
100
AcDbEntity
8
0
100
AcDbPolyline
90
8
70
1
43
0.0
10
-16.024999999999999
20
16.525000000000002
42
0.41421356237308982
10
-16.525000000000002
20
16.024999999999999
10
-16.525000000000002
20
3.0249999999999999
42
0.41421356237309404
10
-16.024999999999999
20
2.524999999999995
10
-3.0249999999999999
20
2.5249999999999995
42
0.41421356237309664
10
-2.5250000000000128
20
3.0250000000000021
10
-2.5250000000000004
20
16.025000000000002
42
0.4142135623731012
10
-3.0250000000000199
20
16.524999999999999
0
LWPOLYLINE
5
133
100
AcDbEntity
8
0
100
AcDbPolyline
90
8
70
1
43
0.0
10
-92.224999999999994
20
16.525000000000002
42
0.41421356237310153
10
-92.725000000000023
20
16.024999999999999
10
-92.725000000000023
20
3.0249999999999999
42
0.4142135623731022
10
-92.224999999999994
20
2.524999999999995
10
-79.22499999999998
20
2.5249999999999995
42
0.41421356237309631
10
-78.724999999999994
20
3.0250000000000021
10
-78.724999999999994
20
16.024999999999999
42
0.41421356237308204
10
-79.224999999999994
20
16.524999999999999
0
LWPOLYLINE
5
134
100
AcDbEntity
8
0
100
AcDbPolyline
90
8
70
1
43
0.0
10
-41.125
20
2.5249999999999972
42
0.41421356237309404
10
-40.625
20
3.0249999999999977
10
-40.625
20
16.024999999999999
42
0.41421356237307683
10
-41.125000000000007
20
16.524999999999991
10
-54.125000000000014
20
16.525000000000002
42
0.41421356237305862
10
-54.625
20
16.024999999999999
10
-54.625
20
3.0249999999999999
42
0.41421356237311197
10
-54.125000000000014
20
2.5250000000000039
0
LWPOLYLINE
5
135
100
AcDbEntity
8
0
100
AcDbPolyline
90
8
70
1
43
0.0
10
-35.57500000000001
20
3.0249999999999999
42
0.41421356237309309
10
-35.075000000000003
20
2.5249999999999959
10
-22.074999999999999
20
2.5249999999999986
42
0.41421356237309048
10
-21.574999999999989
20
3.0250000000000021
10
-21.575000000000006
20
16.024999999999999
42
0.41421356237309631
10
-22.074999999999996
20
16.524999999999999
10
-35.07500000000001
20
16.525000000000006
42
0.41421356237308593
10
-35.57500000000001
20
16.024999999999999
0
LWPOLYLINE
5
136
100
AcDbEntity
8
0
100
AcDbPolyline
90
8
70
1
43
0.0
10
-98.275000000000006
20
2.5250000000000039
42
0.41421356237308593
10
-97.774999999999963
20
3.0249999999999977
10
-97.775000000000006
20
16.024999999999999
42
0.41421356237301571
10
-98.275000000000006
20
16.525000000000006
10
-111.27500000000001
20
16.525000000000002
42
0.41421356237315093
10
-111.77500000000002
20
16.024999999999999
10
-111.77500000000002
20
3.0249999999999999
42
0.41421356237309404
10
-111.27500000000001
20
2.524999999999995
0
LWPOLYLINE
5
137
100
AcDbEntity
8
0
100
AcDbPolyline
90
8
70
1
43
0.0
10
-59.675000000000004
20
16.024999999999999
42
0.41421356237309631
10
-60.174999999999997
20
16.525000000000002
10
-73.174999999999983
20
16.525000000000006
42
0.41421356237308982
10
-73.674999999999983
20
16.024999999999999
10
-73.674999999999983
20
3.0249999999999999
42
0.41421356237314089
10
-73.174999999999983
20
2.5250000000000039
10
-60.174999999999997
20
2.5249999999999995
42
0.41421356237310053
10
-59.675000000000011
20
3.0250000000000021
0
LWPOLYLINE
5
138
100
AcDbEntity
8
0
100
AcDbPolyline
90
8
70
1
43
0.0
10
-174.47500000000005
20
2.5250000000000039
42
0.41421356237304102
10
-173.97499999999997
20
3.0249999999999977
10
-173.97500000000005
20
16.024999999999999
42
0.41421356237295975
10
-174.47500000000005
20
16.525000000000016
10
-187.47499999999999
20
16.524999999999991
42
0.41421356237303908
10
-187.97499999999999
20
16.024999999999999
10
-187.97499999999999
20
3.0249999999999999
42
0.41421356237323614
10
-187.47499999999999
20
2.5249999999999684
0
ARC
5
139
100
AcDbEntity
8
0
100
AcDbCircle
10
-19.049999999999976
20
-6.5749999999999167
30
0
40
2.6499999999999702
210
0
220
0
230
1
100
AcDbArc
50
180
51
360
0
LINE
5
140
100
AcDbEntity
8
0
100
AcDbLine
10
-16.400000000000006
20
-6.574999999999954
30
0
11
-16.400000000000006
21
-1.0749999999999305
31
0
0
ARC
5
141
100
AcDbEntity
8
0
100
AcDbCircle
10
-15.900000000000006
20
-1.0749999999999305
30
0
40
0.5
210
0
220
-0
230
1
100
AcDbArc
50
89.999999999999588
51
180
0
LINE
5
142
100
AcDbEntity
8
0
100
AcDbLine
10
-15.900000000000002
20
-0.57499999999993046
30
0
11
-2.5249999999999773
21
-0.57500000000000107
31
0
0
ARC
5
143
100
AcDbEntity
8
0
100
AcDbCircle
10
-2.5249999999999955
20
2.5250000000000012
30
0
40
3.1000000000000023
210
-0
220
0
230
1
100
AcDbArc
50
270.00000000000034
51
360
0
LINE
5
144
100
AcDbEntity
8
0
100
AcDbLine
10
0.57500000000000662
20
2.5249999999999959
30
0
11
0.57499999999997442
21
54.625
31
0
0
ARC
5
145
100
AcDbEntity
8
0
100
AcDbCircle
10
-2.5250000000000306
20
54.624999999999986
30
0
40
3.100000000000005
210
0
220
-0
230
1
100
AcDbArc
50
0
51
89.999999999999417
0
LINE
5
146
100
AcDbEntity
8
0
100
AcDbLine
10
-2.5249999999999995
20
57.724999999999994
30
0
11
-26.799999999999997
21
57.725000000000009
31
0
0
ARC
5
147
100
AcDbEntity
8
0
100
AcDbCircle
10
-26.800000000000015
20
58.924999999999997
30
0
40
1.1999999999999922
210
0
220
0
230
1
100
AcDbArc
50
180
51
270.0000000000008
0
LINE
5
148
100
AcDbEntity
8
0
100
AcDbLine
10
-28.000000000000007
20
58.925000000000018
30
0
11
-28.000000000000057
21
63.15000000000019
31
0
0
ARC
5
149
100
AcDbEntity
8
0
100
AcDbCircle
10
-27.500000000000053
20
63.150000000000198
30
0
40
0.49999999999999822
210
0
220
-0
230
1
100
AcDbArc
50
90
51
180
0
LINE
5
150
100
AcDbEntity
8
0
100
AcDbLine
10
-27.500000000000053
20
63.650000000000198
30
0
11
-18.500000000000085
21
63.650000000000162
31
0
0
ARC
5
151
100
AcDbEntity
8
0
100
AcDbCircle
10
-18.500000000000085
20
66.300000000000153
30
0
40
2.6499999999999968
210
-0
220
0
230
1
100
AcDbArc
50
-90
51
90
0
LINE
5
152
100
AcDbEntity
8
0
100
AcDbLine
10
-18.500000000000085
20
68.950000000000159
30
0
11
-27.500000000000071
21
68.950000000000188
31
0
0
ARC
5
153
100
AcDbEntity
8
0
100
AcDbCircle
10
-27.500000000000071
20
69.450000000000188
30
0
40
0.49999999999999822
210
0
220
0
230
1
100
AcDbArc
50
180
51
270
0
LINE
5
154
100
AcDbEntity
8
0
100
AcDbLine
10
-28.000000000000071
20
69.450000000000202
30
0
11
-28.000000000000007
21
73.67500000000004
31
0
0
ARC
5
155
100
AcDbEntity
8
0
100
AcDbCircle
10
-31.100000000000009
20
73.675000000000011
30
0
40
3.1000000000000005
210
0
220
-0
230
1
100
AcDbArc
50
0
51
89.999999999999744
0
LINE
5
156
100
AcDbEntity
8
0
100
AcDbLine
10
-31.099999999999994
20
76.77500000000002
30
0
11
-178.45000000000005
21
76.77500000000002
31
0
0
ARC
5
157
100
AcDbEntity
8
0
100
AcDbCircle
10
-178.45000000000005
20
73.675000000000068
30
0
40
3.0999999999999517
210
0
220
-0
230
1
100
AcDbArc
50
90
51
180
0
LINE
5
158
100
AcDbEntity
8
0
100
AcDbLine
10
-181.55000000000001
20
73.67500000000004
30
0
11
-181.54999999999998
21
69.450000000000117
31
0
0
ARC
5
159
100
AcDbEntity
8
0
100
AcDbCircle
10
-182.05000000000001
20
69.450000000000117
30
0
40
0.49999999999999822
210
-0
220
0
230
1
100
AcDbArc
50
-90
51
0
0
LINE
5
160
100
AcDbEntity
8
0
100
AcDbLine
10
-182.05000000000001
20
68.950000000000117
30
0
11
-191.04999999999995
21
68.950000000000074
31
0
0
ARC
5
161
100
AcDbEntity
8
0
100
AcDbCircle
10
-191.04999999999995
20
66.300000000000082
30
0
40
2.6499999999999968
210
0
220
-0
230
1
100
AcDbArc
50
90
51
270
0
LINE
5
162
100
AcDbEntity
8
0
100
AcDbLine
10
-191.04999999999995
20
63.650000000000084
30
0
11
-182.04999999999998
21
63.650000000000126
31
0
0
ARC
5
163
100
AcDbEntity
8
0
100
AcDbCircle
10
-182.04999999999998
20
63.150000000000119
30
0
40
0.50000000000000711
210
0
220
-0
230
1
100
AcDbArc
50
0
51
90
0
LINE
5
164
100
AcDbEntity
8
0
100
AcDbLine
10
-181.54999999999998
20
63.150000000000119
30
0
11
-181.54999999999995
21
58.925000000000018
31
0
0
ARC
5
165
100
AcDbEntity
8
0
100
AcDbCircle
10
-182.75
20
58.925000000000061
30
0
40
1.2000000000000544
210
0
220
0
230
1
100
AcDbArc
50
270
51
360
0
LINE
5
166
100
AcDbEntity
8
0
100
AcDbLine
10
-182.75
20
57.725000000000009
30
0
11
-207.02500000000001
21
57.724999999999994
31
0
0
ARC
5
167
100
AcDbEntity
8
0
100
AcDbCircle
10
-207.02500000000009
20
54.625000000000043
30
0
40
3.0999999999999517
210
0
220
-0
230
1
100
AcDbArc
50
89.999999999998423
51
180
0
LINE
5
168
100
AcDbEntity
8
0
100
AcDbLine
10
-210.12500000000003
20
54.625
30
0
11
-210.12500000000003
21
2.524999999999995
31
0
0
ARC
5
169
100
AcDbEntity
8
0
100
AcDbCircle
10
-207.02500000000009
20
2.5249999999999573
30
0
40
3.0999999999999517
210
0
220
0
230
1
100
AcDbArc
50
180
51
270.00000000000159
0
LINE
5
170
100
AcDbEntity
8
0
100
AcDbLine
10
-207.02500000000001
20
-0.5749999999999944
30
0
11
-193.64999999999998
21
-0.57500000000000839
31
0
0
ARC
5
171
100
AcDbEntity
8
0
100
AcDbCircle
10
-193.64999999999998
20
-1.0750000000000084
30
0
40
0.50000000000000711
210
0
220
0
230
1
100
AcDbArc
50
0
51
90
0
LINE
5
172
100
AcDbEntity
8
0
100
AcDbLine
10
-193.14999999999998
20
-1.0750000000000084
30
0
11
-193.14999999999998
21
-6.5749999999999975
31
0
0
ARC
5
173
100
AcDbEntity
8
0
100
AcDbCircle
10
-190.5
20
-6.5749999999999957
30
0
40
2.6499999999999702
210
0
220
0
230
1
100
AcDbArc
50
180
51
360
0
LINE
5
174
100
AcDbEntity
8
0
100
AcDbLine
10
-187.85000000000002
20
-6.5750000000000703
30
0
11
-187.85000000000002
21
-1.0749999999999948
31
0
0
ARC
5
175
100
AcDbEntity
8
0
100
AcDbCircle
10
-187.35000000000008
20
-1.0749999999999948
30
0
40
0.5
210
0
220
-0
230
1
100
AcDbArc
50
90
51
180
0
LINE
5
176
100
AcDbEntity
8
0
100
AcDbLine
10
-187.35000000000008
20
-0.57499999999999485
30
0
11
-22.199999999999918
21
-0.57499999999991891
31
0
0
LINE
5
177
100
AcDbEntity
8
0
100
AcDbLine
10
-21.699999999999939
20
-1.0749999999999196
30
0
11
-21.699999999999946
21
-6.5749999999999185
31
0
0
ARC
5
178
100
AcDbEntity
8
0
100
AcDbCircle
10
-187.35000000000008
20
-1.0749999999999948
30
0
40
0.5
210
0
220
-0
230
1
100
AcDbArc
50
90
51
180
0
ARC
5
179
100
AcDbEntity
8
0
100
AcDbCircle
10
-190.5
20
-6.5749999999999957
30
0
40
2.6499999999999702
210
0
220
0
230
1
100
AcDbArc
50
180
51
360
0
ARC
5
180
100
AcDbEntity
8
0
100
AcDbCircle
10
-193.64999999999998
20
-1.0750000000000084
30
0
40
0.50000000000000711
210
0
220
0
230
1
100
AcDbArc
50
0
51
90
0
ARC
5
181
100
AcDbEntity
8
0
100
AcDbCircle
10
-207.02500000000009
20
2.5249999999999573
30
0
40
3.0999999999999517
210
0
220
0
230
1
100
AcDbArc
50
180
51
270.00000000000159
0
ARC
5
182
100
AcDbEntity
8
0
100
AcDbCircle
10
-207.02500000000009
20
54.625000000000043
30
0
40
3.0999999999999517
210
0
220
-0
230
1
100
AcDbArc
50
89.999999999998423
51
180
0
ARC
5
183
100
AcDbEntity
8
0
100
AcDbCircle
10
-182.75
20
58.925000000000061
30
0
40
1.2000000000000544
210
0
220
0
230
1
100
AcDbArc
50
270
51
360
0
LINE
5
184
100
AcDbEntity
8
0
100
AcDbLine
10
-181.54999999999998
20
63.150000000000119
30
0
11
-181.54999999999995
21
58.925000000000018
31
0
0
ARC
5
185
100
AcDbEntity
8
0
100
AcDbCircle
10
-182.04999999999998
20
63.150000000000119
30
0
40
0.50000000000000711
210
0
220
0
230
1
100
AcDbArc
50
0
51
90
0
ARC
5
186
100
AcDbEntity
8
0
100
AcDbCircle
10
-191.04999999999995
20
66.300000000000082
30
0
40
2.6499999999999968
210
0
220
-0
230
1
100
AcDbArc
50
90
51
270
0
ARC
5
187
100
AcDbEntity
8
0
100
AcDbCircle
10
-182.05000000000001
20
69.450000000000117
30
0
40
0.49999999999999822
210
0
220
0
230
1
100
AcDbArc
50
-90
51
0
0
LINE
5
188
100
AcDbEntity
8
0
100
AcDbLine
10
-181.55000000000001
20
73.67500000000004
30
0
11
-181.55000000000001
21
69.450000000000117
31
0
0
ARC
5
189
100
AcDbEntity
8
0
100
AcDbCircle
10
-178.45000000000005
20
73.675000000000068
30
0
40
3.0999999999999517
210
0
220
-0
230
1
100
AcDbArc
50
90
51
180
0
ARC
5
190
100
AcDbEntity
8
0
100
AcDbCircle
10
-31.100000000000009
20
73.675000000000011
30
0
40
3.1000000000000005
210
0
220
-0
230
1
100
AcDbArc
50
0
51
89.999999999999744
0
LINE
5
191
100
AcDbEntity
8
0
100
AcDbLine
10
-28.000000000000071
20
69.450000000000202
30
0
11
-28.000000000000007
21
73.67500000000004
31
0
0
ARC
5
192
100
AcDbEntity
8
0
100
AcDbCircle
10
-27.500000000000071
20
69.450000000000188
30
0
40
0.49999999999999822
210
0
220
0
230
1
100
AcDbArc
50
180
51
270
0
ARC
5
193
100
AcDbEntity
8
0
100
AcDbCircle
10
-18.500000000000085
20
66.300000000000153
30
0
40
2.6499999999999968
210
0
220
0
230
1
100
AcDbArc
50
-90
51
90
0
ARC
5
194
100
AcDbEntity
8
0
100
AcDbCircle
10
-27.500000000000053
20
63.150000000000198
30
0
40
0.49999999999999822
210
0
220
-0
230
1
100
AcDbArc
50
90
51
180
0
LINE
5
195
100
AcDbEntity
8
0
100
AcDbLine
10
-28.000000000000007
20
58.925000000000018
30
0
11
-28.00000000000005
21
63.15000000000019
31
0
0
ARC
5
196
100
AcDbEntity
8
0
100
AcDbCircle
10
-26.800000000000015
20
58.924999999999997
30
0
40
1.1999999999999922
210
0
220
0
230
1
100
AcDbArc
50
180
51
270.0000000000008
0
ARC
5
197
100
AcDbEntity
8
0
100
AcDbCircle
10
-2.5250000000000306
20
54.624999999999986
30
0
40
3.100000000000005
210
0
220
-0
230
1
100
AcDbArc
50
0
51
89.999999999999417
0
ARC
5
198
100
AcDbEntity
8
0
100
AcDbCircle
10
-2.5249999999999955
20
2.5250000000000012
30
0
40
3.1000000000000023
210
0
220
0
230
1
100
AcDbArc
50
270.00000000000034
51
360
0
ARC
5
199
100
AcDbEntity
8
0
100
AcDbCircle
10
-15.900000000000006
20
-1.0749999999999305
30
0
40
0.5
210
0
220
-0
230
1
100
AcDbArc
50
89.999999999999588
51
180
0
ARC
5
200
100
AcDbEntity
8
0
100
AcDbCircle
10
-19.049999999999976
20
-6.5749999999999167
30
0
40
2.6499999999999702
210
0
220
0
230
1
100
AcDbArc
50
180
51
360
0
LWPOLYLINE
5
201
100
AcDbEntity
8
0
100
AcDbPolyline
90
8
70
1
43
0.0
10
-16.525000000000002
20
3.0249999999999999
42
0.41421356237309404
10
-16.024999999999999
20
2.524999999999999
10
-3.0249999999999999
20
2.5249999999999995
42
0.41421356237309664
10
-2.5249999999999999
20
3.0250000000000021
10
-2.5250000000000004
20
16.025000000000002
42
0.4142135623731012
10
-3.0250000000000199
20
16.525000000000002
10
-16.024999999999999
20
16.525000000000002
42
0.41421356237308982
10
-16.525000000000002
20
16.024999999999999
0
LWPOLYLINE
5
202
100
AcDbEntity
8
0
100
AcDbPolyline
90
8
70
1
43
0.0
10
-35.57500000000001
20
3.0249999999999999
42
0.41421356237309309
10
-35.075000000000003
20
2.5249999999999959
10
-22.074999999999999
20
2.5249999999999986
42
0.41421356237309048
10
-21.575000000000017
20
3.0250000000000021
10
-21.575000000000006
20
16.024999999999999
42
0.41421356237309631
10
-22.074999999999996
20
16.525000000000002
10
-35.07500000000001
20
16.525000000000006
42
0.41421356237308593
10
-35.57500000000001
20
16.024999999999999
0
LWPOLYLINE
5
203
100
AcDbEntity
8
0
100
AcDbPolyline
90
8
70
1
43
0.0
10
-54.625
20
3.0249999999999999
42
0.41421356237311197
10
-54.125000000000014
20
2.5249999999999995
10
-41.125
20
2.5249999999999972
42
0.41421356237309404
10
-40.625
20
3.0249999999999977
10
-40.625
20
16.024999999999999
42
0.41421356237307683
10
-41.125000000000007
20
16.524999999999995
10
-54.125000000000014
20
16.525000000000002
42
0.41421356237305862
10
-54.625
20
16.024999999999999
0
LWPOLYLINE
5
204
100
AcDbEntity
8
0
100
AcDbPolyline
90
8
70
1
43
0.0
10
-73.674999999999983
20
3.0249999999999999
42
0.41421356237314089
10
-73.174999999999983
20
2.5250000000000123
10
-60.174999999999997
20
2.5249999999999995
42
0.41421356237310053
10
-59.675000000000011
20
3.0250000000000021
10
-59.675000000000004
20
16.024999999999999
42
0.41421356237309631
10
-60.174999999999997
20
16.525000000000002
10
-73.174999999999983
20
16.525000000000006
42
0.41421356237308982
10
-73.674999999999983
20
16.024999999999999
0
LWPOLYLINE
5
205
100
AcDbEntity
8
0
100
AcDbPolyline
90
8
70
1
43
0.0
10
-92.725000000000023
20
3.0249999999999999
42
0.4142135623731022
10
-92.224999999999994
20
2.5249999999999986
10
-79.22499999999998
20
2.5249999999999995
42
0.41421356237309631
10
-78.724999999999994
20
3.0250000000000021
10
-78.724999999999994
20
16.024999999999999
42
0.41421356237308204
10
-79.224999999999994
20
16.525000000000002
10
-92.224999999999994
20
16.525000000000002
42
0.41421356237310153
10
-92.725000000000023
20
16.024999999999999
0
LWPOLYLINE
5
206
100
AcDbEntity
8
0
100
AcDbPolyline
90
8
70
1
43
0.0
10
-111.77500000000002
20
3.0249999999999999
42
0.41421356237309404
10
-111.27500000000001
20
2.5249999999999946
10
-98.275000000000006
20
2.5250000000000039
42
0.41421356237308593
10
-97.774999999999963
20
3.0249999999999977
10
-97.775000000000006
20
16.024999999999999
42
0.41421356237301571
10
-98.275000000000006
20
16.525000000000013
10
-111.27500000000001
20
16.525000000000002
42
0.41421356237315093
10
-111.77500000000002
20
16.024999999999999
0
LWPOLYLINE
5
207
100
AcDbEntity
8
0
100
AcDbPolyline
90
8
70
1
43
0.0
10
-130.82499999999999
20
3.0249999999999999
42
0.41421356237309404
10
-130.32499999999999
20
2.5249999999999946
10
-117.32500000000002
20
2.5250000000000119
42
0.41421356237310608
10
-116.82500000000002
20
3.0249999999999977
10
-116.82500000000002
20
16.024999999999999
42
0.41421356237301571
10
-117.32500000000002
20
16.525000000000013
10
-130.32499999999999
20
16.525000000000002
42
0.41421356237315093
10
-130.82499999999999
20
16.024999999999999
0
LWPOLYLINE
5
208
100
AcDbEntity
8
0
100
AcDbPolyline
90
8
70
1
43
0.0
10
-149.875
20
3.0249999999999999
42
0.41421356237309404
10
-149.375
20
2.5249999999999946
10
-136.375
20
2.5250000000000057
42
0.41421356237306806
10
-135.875
20
3.0250000000000021
10
-135.875
20
16.024999999999999
42
0.4142135623730534
10
-136.375
20
16.525000000000006
10
-149.375
20
16.525000000000002
42
0.41421356237315093
10
-149.875
20
16.024999999999999
0
LWPOLYLINE
5
209
100
AcDbEntity
8
0
100
AcDbPolyline
90
8
70
1
43
0.0
10
-168.92500000000001
20
3.0249999999999999
42
0.41421356237310608
10
-168.42500000000001
20
2.5249999999999737
10
-155.42500000000001
20
2.5249999999999906
42
0.41421356237304269
10
-154.92500000000004
20
3.0250000000000021
10
-154.92500000000001
20
16.024999999999999
42
0.4142135623730534
10
-155.42500000000001
20
16.525000000000006
10
-168.42500000000001
20
16.525000000000031
42
0.41421356237292595
10
-168.92499999999998
20
16.024999999999999
0
LWPOLYLINE
5
210
100
AcDbEntity
8
0
100
AcDbPolyline
90
8
70
1
43
0.0
10
-187.97499999999999
20
3.0249999999999999
42
0.41421356237323614
10
-187.47499999999999
20
2.5249999999999648
10
-174.47500000000005
20
2.5250000000000039
42
0.41421356237304102
10
-173.97499999999997
20
3.0249999999999977
10
-173.97500000000005
20
16.024999999999999
42
0.41421356237295975
10
-174.47500000000005
20
16.525000000000063
10
-187.47499999999999
20
16.524999999999991
42
0.41421356237303908
10
-187.97499999999999
20
16.024999999999999
0
LWPOLYLINE
5
211
100
AcDbEntity
8
0
100
AcDbPolyline
90
8
70
1
43
0.0
10
-207.02500000000003
20
3.0249999999999999
42
0.41421356237310608
10
-206.52500000000003
20
2.5249999999999737
10
-193.52500000000006
20
2.5249999999999901
42
0.41421356237307683
10
-193.02500000000003
20
3.0250000000000021
10
-193.02500000000006
20
16.024999999999999
42
0.41421356237295975
10
-193.52500000000006
20
16.525000000000063
10
-206.52500000000003
20
16.525000000000031
42
0.41421356237292595
10
-207.02500000000001
20
16.024999999999999
0
LWPOLYLINE
5
212
100
AcDbEntity
8
0
100
AcDbPolyline
90
8
70
1
43
0.0
10
-18.906250000000004
20
22.075000000000003
42
0.41421356237308982
10
-18.406249999999993
20
21.575000000000003
10
-5.4062499999999991
20
21.575000000000006
42
0.41421356237310281
10
-4.9062500000000009
20
22.074999999999999
10
-4.9062499999999973
20
35.075000000000003
42
0.41421356237309048
10
-5.4062500000000036
20
35.57500000000001
10
-18.40625
20
35.57500000000001
42
0.41421356237309243
10
-18.906250000000004
20
35.075000000000003
0
LWPOLYLINE
5
213
100
AcDbEntity
8
0
100
AcDbPolyline
90
8
70
1
43
0.0
10
-40.337500000000013
20
22.074999999999999
42
0.41421356237310802
10
-39.837500000000006
20
21.574999999999996
10
-26.837499999999999
20
21.575000000000006
42
0.41421356237310281
10
-26.337499999999999
20
22.074999999999999
10
-26.337499999999991
20
35.075000000000003
42
0.41421356237308982
10
-26.837499999999999
20
35.575000000000017
10
-39.837499999999999
20
35.57500000000001
42
0.41421356237311846
10
-40.337499999999991
20
35.075000000000003
0
LWPOLYLINE
5
214
100
AcDbEntity
8
0
100
AcDbPolyline
90
8
70
1
43
0.0
10
-59.387500000000003
20
22.074999999999999
42
0.41421356237306384
10
-58.887500000000017
20
21.57500000000001
10
-45.887499999999989
20
21.575000000000006
42
0.41421356237306384
10
-45.387500000000003
20
22.074999999999999
10
-45.387500000000003
20
35.075000000000003
42
0.41421356237310025
10
-45.88750000000001
20
35.575000000000003
10
-58.887500000000017
20
35.57500000000001
42
0.41421356237309503
10
-59.387500000000003
20
35.075000000000003
0
LWPOLYLINE
5
215
100
AcDbEntity
8
0
100
AcDbPolyline
90
8
70
1
43
0.0
10
-78.4375
20
22.074999999999999
42
0.4142135623730846
10
-77.9375
20
21.57500000000001
10
-64.9375
20
21.575000000000003
42
0.41421356237305862
10
-64.437500000000014
20
22.074999999999999
10
-64.437500000000014
20
35.075000000000003
42
0.41421356237309503
10
-64.9375
20
35.57500000000001
10
-77.9375
20
35.57500000000001
42
0.41421356237308982
10
-78.4375
20
35.075000000000003
0
LWPOLYLINE
5
216
100
AcDbEntity
8
0
100
AcDbPolyline
90
8
70
1
43
0.0
10
-97.487500000000011
20
22.074999999999999
42
0.41421356237309503
10
-96.987500000000011
20
21.574999999999992
10
-83.98749999999994
20
21.575000000000003
42
0.41421356237310025
10
-83.487499999999983
20
22.074999999999999
10
-83.487500000000011
20
35.075000000000003
42
0.41421356237310025
10
-83.987499999999955
20
35.575000000000038
10
-96.987500000000011
20
35.575000000000017
42
0.41421356237310281
10
-97.487500000000011
20
35.075000000000003
0
LWPOLYLINE
5
217
100
AcDbEntity
8
0
100
AcDbPolyline
90
8
70
1
43
0.0
10
-116.53750000000001
20
22.074999999999999
42
0.41421356237311585
10
-116.03749999999998
20
21.57500000000001
10
-103.03750000000001
20
21.57500000000001
42
0.41421356237316265
10
-102.53749999999999
20
22.074999999999999
10
-102.53749999999999
20
35.075000000000003
42
0.41421356237309243
10
-103.03750000000001
20
35.575000000000003
10
-116.03749999999999
20
35.575000000000024
42
0.41421356237304563
10
-116.53749999999999
20
35.075000000000003
0
LWPOLYLINE
5
218
100
AcDbEntity
8
0
100
AcDbPolyline
90
8
70
1
43
0.0
10
-135.58750000000001
20
22.074999999999999
42
0.41421356237311585
10
-135.08749999999998
20
21.57500000000001
10
-122.08750000000002
20
21.57500000000001
42
0.41421356237316265
10
-121.58750000000001
20
22.074999999999999
10
-121.58750000000001
20
35.075000000000003
42
0.41421356237309243
10
-122.08750000000002
20
35.575000000000003
10
-135.08750000000001
20
35.575000000000024
42
0.41421356237304563
10
-135.58750000000001
20
35.075000000000003
0
LWPOLYLINE
5
219
100
AcDbEntity
8
0
100
AcDbPolyline
90
8
70
1
43
0.0
10
-154.63750000000005
20
22.074999999999999
42
0.41421356237307422
10
-154.13749999999999
20
21.574999999999992
10
-141.13749999999999
20
21.57500000000001
42
0.41421356237316265
10
-140.63749999999999
20
22.074999999999999
10
-140.63749999999999
20
35.075000000000003
42
0.41421356237309243
10
-141.13749999999999
20
35.575000000000003
10
-154.13749999999999
20
35.575000000000017
42
0.41421356237315748
10
-154.63750000000005
20
35.075000000000003
0
ARC
5
220
100
AcDbEntity
8
0
100
AcDbCircle
10
-173.1875
20
22.074999999999989
30
0
40
0.50000000000000711
210
0
220
0
230
1
100
AcDbArc
50
180
51
270
0
LINE
5
221
100
AcDbEntity
8
0
100
AcDbLine
10
-160.1875
20
21.57500000000001
30
0
11
-173.1875
21
21.574999999999982
31
0
0
ARC
5
222
100
AcDbEntity
8
0
100
AcDbCircle
10
-160.18749999999997
20
22.074999999999999
30
0
40
0.49999999999998934
210
0
220
0
230
1
100
AcDbArc
50
-90.000000000003254
51
0
0
LINE
5
223
100
AcDbEntity
8
0
100
AcDbLine
10
-159.6875
20
35.075000000000003
30
0
11
-159.68749999999997
21
22.074999999999999
31
0
0
ARC
5
224
100
AcDbEntity
8
0
100
AcDbCircle
10
-160.1875
20
35.074999999999996
30
0
40
0.50000000000000711
210
0
220
-0
230
1
100
AcDbArc
50
0
51
90
0
LINE
5
225
100
AcDbEntity
8
0
100
AcDbLine
10
-173.1875
20
35.575000000000017
30
0
11
-160.1875
21
35.575000000000003
31
0
0
ARC
5
226
100
AcDbEntity
8
0
100
AcDbCircle
10
-173.18749999999991
20
35.07499999999996
30
0
40
0.50000000000005596
210
0
220
0
230
1
100
AcDbArc
50
90.000000000009777
51
180
0
LWPOLYLINE
5
227
100
AcDbEntity
8
0
100
AcDbPolyline
90
8
70
1
43
0.0
10
-180.78125
20
21.575000000000003
42
0.41421356237302737
10
-180.28125000000003
20
22.074999999999999
10
-180.28125000000003
20
35.075000000000003
42
0.4142135623730222
10
-180.78125
20
35.57500000000006
10
-181.78125
20
35.575000000000017
42
0.41421356237300916
10
-182.28124999999994
20
35.075000000000003
10
-182.28125000000003
20
22.074999999999999
42
0.41421356237310281
10
-181.78125
20
21.574999999999982
0
LWPOLYLINE
5
228
100
AcDbEntity
8
0
100
AcDbPolyline
90
8
70
1
43
0.0
10
-203.98124999999999
20
21.575000000000003
42
0.41421356237302737
10
-203.48125000000005
20
22.074999999999999
10
-203.48125000000005
20
35.075000000000003
42
0.4142135623730222
10
-203.98124999999999
20
35.57500000000006
10
-204.98125000000005
20
35.575000000000031
42
0.41421356237301959
10
-205.48124999999999
20
35.075000000000003
10
-205.48124999999999
20
22.074999999999999
42
0.41421356237317569
10
-204.98125000000002
20
21.57499999999996
0
LWPOLYLINE
5
229
100
AcDbEntity
8
0
100
AcDbPolyline
90
8
70
1
43
0.0
10
-199.88124999999999
20
22.074999999999999
42
0.41421356237310281
10
-199.38124999999999
20
21.574999999999982
10
-186.38124999999999
20
21.575000000000031
42
0.41421356237312101
10
-185.88124999999997
20
22.074999999999999
10
-185.88124999999997
20
35.075000000000003
42
0.41421356237314444
10
-186.38124999999999
20
35.575000000000024
10
-199.38124999999999
20
35.575000000000017
42
0.41421356237300916
10
-199.88124999999994
20
35.075000000000003
0
LWPOLYLINE
5
230
100
AcDbEntity
8
0
100
AcDbPolyline
90
14
70
1
43
0.0
10
-23.668749999999999
20
41.125
42
0.41421356237309503
10
-23.168749999999996
20
40.625
10
-10.168749999999999
20
40.625
42
0.41421356237310025
10
-9.6687500000000099
20
41.125
10
-9.6687499999999904
20
43.616347819385922
42
-0.41421356237307422
10
-9.1687500000000099
20
44.116347819385908
10
-4.6124086304582255
20
44.116347819385943
42
0.99999999999999989
10
-4.6124086304582326
20
51.116347819385936
10
-9.1687499999999993
20
51.116347819385922
42
-0.41421356237309631
10
-9.6687500000000171
20
51.616347819385943
10
-9.6687499999999993
20
54.125000000000014
42
0.4142135623730625
10
-10.168749999999989
20
54.625
10
-23.168749999999999
20
54.625
42
0.41421356237309503
10
-23.668750000000006
20
54.125000000000014
0
LWPOLYLINE
5
231
100
AcDbEntity
8
0
100
AcDbPolyline
90
8
70
1
43
0.0
10
-27.768750000000004
20
40.625
42
0.41421356237308721
10
-27.268750000000011
20
41.124999999999986
10
-27.268750000000001
20
54.125000000000021
42
0.41421356237310542
10
-27.768750000000004
20
54.625
10
-28.768750000000004
20
54.625
42
0.41421356237306123
10
-29.268750000000008
20
54.125000000000014
10
-29.268750000000011
20
41.125
42
0.41421356237308204
10
-28.768750000000018
20
40.625
0
LWPOLYLINE
5
232
100
AcDbEntity
8
0
100
AcDbPolyline
90
8
70
1
43
0.0
10
-36.362499999999997
20
40.625
42
0.41421356237308982
10
-35.862500000000011
20
41.125
10
-35.862499999999997
20
54.125000000000014
42
0.41421356237308204
10
-36.362500000000004
20
54.625000000000021
10
-49.362500000000004
20
54.625
42
0.41421356237311063
10
-49.862499999999997
20
54.125000000000014
10
-49.862499999999997
20
41.125
42
0.4142135623730846
10
-49.362500000000011
20
40.624999999999993
0
LWPOLYLINE
5
233
100
AcDbEntity
8
0
100
AcDbPolyline
90
8
70
1
43
0.0
10
-55.412500000000016
20
40.625
42
0.41421356237307944
10
-54.912500000000009
20
41.125
10
-54.912500000000009
20
54.125000000000014
42
0.41421356237309503
10
-55.412500000000016
20
54.625
10
-68.412499999999994
20
54.625
42
0.41421356237311063
10
-68.912499999999994
20
54.125000000000014
10
-68.912499999999994
20
41.125
42
0.41421356237310025
10
-68.412499999999994
20
40.625
0
LWPOLYLINE
5
234
100
AcDbEntity
8
0
100
AcDbPolyline
90
8
70
1
43
0.0
10
-74.462500000000006
20
40.625
42
0.41421356237309503
10
-73.962500000000006
20
41.125
10
-73.962500000000006
20
54.125000000000014
42
0.41421356237311063
10
-74.462500000000006
20
54.625
10
-87.46250000000002
20
54.625
42
0.41421356237309503
10
-87.962500000000006
20
54.125000000000014
10
-87.962500000000006
20
41.125
42
0.41421356237305862
10
-87.462500000000034
20
40.624999999999986
0
LWPOLYLINE
5
235
100
AcDbEntity
8
0
100
AcDbPolyline
90
8
70
1
43
0.0
10
-93.512500000000003
20
40.625
42
0.41421356237305862
10
-93.012500000000017
20
41.125
10
-93.012499999999989
20
54.125000000000014
42
0.41421356237301177
10
-93.512500000000003
20
54.625000000000021
10
-106.51250000000003
20
54.624999999999993
42
0.4142135623730846
10
-107.01250000000002
20
54.125000000000014
10
-107.01250000000002
20
41.125
42
0.41421356237310542
10
-106.51250000000003
20
40.624999999999993
0
LWPOLYLINE
5
236
100
AcDbEntity
8
0
100
AcDbPolyline
90
8
70
1
43
0.0
10
-112.56250000000001
20
40.625000000000007
42
0.41421356237313145
10
-112.0625
20
41.125
10
-112.0625
20
54.125000000000014
42
0.41421356237309503
10
-112.56250000000001
20
54.625000000000021
10
-125.5625
20
54.625
42
0.41421356237306384
10
-126.06250000000001
20
54.125000000000014
10
-126.06250000000001
20
41.125
42
0.41421356237311585
10
-125.56250000000003
20
40.625000000000007
0
LWPOLYLINE
5
237
100
AcDbEntity
8
0
100
AcDbPolyline
90
8
70
1
43
0.0
10
-131.61250000000001
20
40.625000000000007
42
0.41421356237313145
10
-131.11250000000001
20
41.125
10
-131.11250000000001
20
54.125000000000014
42
0.41421356237309503
10
-131.61250000000001
20
54.625000000000021
10
-144.61250000000001
20
54.625
42
0.41421356237306384
10
-145.11250000000001
20
54.125000000000014
10
-145.11250000000001
20
41.125
42
0.41421356237305862
10
-144.61250000000004
20
40.624999999999986
0
LWPOLYLINE
5
238
100
AcDbEntity
8
0
100
AcDbPolyline
90
8
70
1
43
0.0
10
-150.66249999999999
20
40.625000000000007
42
0.41421356237313145
10
-150.16249999999999
20
41.125
10
-150.16249999999999
20
54.125000000000014
42
0.41421356237309503
10
-150.66249999999999
20
54.625000000000021
10
-163.66250000000005
20
54.625000000000014
42
0.41421356237304302
10
-164.16249999999997
20
54.125000000000014
10
-164.16250000000002
20
41.125
42
0.41421356237318868
10
-163.66250000000008
20
40.625000000000043
0
LWPOLYLINE
5
239
100
AcDbEntity
8
0
100
AcDbPolyline
90
8
70
1
43
0.0
10
-169.71250000000001
20
40.625
42
0.414213562373069
10
-169.21249999999998
20
41.125
10
-169.21250000000001
20
54.125000000000014
42
0.41421356237320428
10
-169.71249999999998
20
54.625000000000028
10
-182.71250000000006
20
54.624999999999972
42
0.41421356237312101
10
-183.21250000000003
20
54.125000000000014
10
-183.21250000000006
20
41.125
42
0.41421356237311585
10
-182.71250000000006
20
40.625000000000028
0
LWPOLYLINE
5
240
100
AcDbEntity
8
0
100
AcDbPolyline
90
8
70
1
43
0.0
10
-191.14374999999998
20
40.625000000000007
42
0.41421356237290774
10
-190.64375000000013
20
41.125
10
-190.64375000000001
20
54.125000000000014
42
0.41421356237314705
10
-191.14375000000001
20
54.624999999999972
10
-204.14375000000007
20
54.625000000000014
42
0.41421356237300661
10
-204.64375000000007
20
54.125000000000014
10
-204.64375000000004
20
41.125
42
0.41421356237319906
10
-204.14375000000007
20
40.624999999999993
0
LWPOLYLINE
5
241
100
AcDbEntity
8
0
100
AcDbPolyline
90
64
70
1
43
0.0
10
-178.44999999999999
20
60.174999999999983
42
0.41421356237311063
10
-177.95000000000002
20
59.674999999999983
10
-156.40000000000003
20
59.675000000000004
42
-0.41421356237307944
10
-155.90000000000001
20
59.175000000000004
10
-155.90000000000003
20
58.17499999999999
42
0.41421356237304302
10
-155.40000000000003
20
57.674999999999983
10
-149.40000000000003
20
57.674999999999976
42
0.41421356237312623
10
-148.90000000000001
20
58.17499999999999
10
-148.90000000000001
20
59.175000000000004
42
-0.41421356237311063
10
-148.40000000000001
20
59.675000000000011
10
-142.14425000000006
20
59.675000000000018
42
-0.41421356237311063
10
-141.64425
20
59.175000000000004
10
-141.64425
20
58.17499999999999
42
0.41421356237309503
10
-141.14425
20
57.674999999999983
10
-132.76299999999998
20
57.67499999999999
42
0.4142135623730534
10
-132.26300000000006
20
58.17499999999999
10
-132.26300000000006
20
59.174999999999969
42
-0.41421356237310542
10
-131.76300000000001
20
59.674999999999983
10
-127.82500000000002
20
59.674999999999976
42
-0.41421356237309503
10
-127.32500000000002
20
59.174999999999969
10
-127.32500000000002
20
58.17499999999999
42
0.4142135623730846
10
-126.82500000000003
20
57.674999999999983
10
-120.82500000000002
20
57.67499999999999
42
0.41421356237307944
10
-120.32500000000002
20
58.17499999999999
10
-120.325
20
59.174999999999969
42
-0.41421356237308982
10
-119.82500000000002
20
59.674999999999983
10
-118.3
20
59.674999999999997
42
-0.41421356237307422
10
-117.80000000000001
20
59.174999999999969
10
-117.80000000000001
20
58.17499999999999
42
0.41421356237309503
10
-117.30000000000001
20
57.674999999999983
10
-108.887
20
57.674999999999983
42
0.41421356237312623
10
-108.38700000000001
20
58.17499999999999
10
-108.387
20
59.174999999999983
42
-0.41421356237307422
10
-107.887
20
59.674999999999983
10
-101.663
20
59.675000000000011
42
-0.41421356237310542
10
-101.16300000000001
20
59.175000000000004
10
-101.16300000000001
20
58.17499999999999
42
0.41421356237310542
10
-100.66299999999998
20
57.674999999999983
10
-82.724999999999952
20
57.674999999999976
42
0.41421356237304818
10
-82.224999999999966
20
58.17499999999999
10
-82.224999999999966
20
59.175000000000004
42
-0.41421356237307944
10
-81.72499999999998
20
59.675000000000011
10
-77.786999999999978
20
59.675000000000018
42
-0.4142135623730846
10
-77.287000000000006
20
59.175000000000004
10
-77.287000000000006
20
58.17499999999999
42
0.41421356237311585
10
-76.786999999999992
20
57.674999999999976
10
-63.643250000000009
20
57.674999999999983
42
0.41421356237311585
10
-63.143250000000002
20
58.17499999999999
10
-63.143250000000002
20
59.175000000000004
42
-0.41421356237307422
10
-62.643249999999995
20
59.675000000000011
10
-61.15000000000002
20
59.675000000000018
42
-0.41421356237310025
10
-60.650000000000013
20
59.175000000000004
10
-60.650000000000013
20
58.17499999999999
42
0.41421356237310542
10
-60.150000000000006
20
57.674999999999997
10
-54.149999999999999
20
57.674999999999983
42
0.41421356237311063
10
-53.65000000000002
20
58.17499999999999
10
-53.65000000000002
20
59.175000000000004
42
-0.41421356237307422
10
-53.150000000000013
20
59.675000000000011
10
-31.600000000000001
20
59.674999999999983
42
0.41421356237309764
10
-31.099999999999998
20
60.174999999999983
10
-31.100000000000001
20
73.174999999999983
42
0.41421356237310281
10
-31.600000000000001
20
73.674999999999983
10
-177.94999999999999
20
73.674999999999983
42
0.41421356237316787
10
-178.44999999999999
20
73.174999999999983
0
CIRCLE
5
242
100
AcDbEntity
8
0
100
AcDbCircle
10
-191.04999999999995
20
66.300000000000082
30
0
40
1.1499999999999884
210
0
220
0
230
1
0
CIRCLE
5
243
100
AcDbEntity
8
0
100
AcDbCircle
10
-18.500000000000085
20
66.300000000000153
30
0
40
1.1499999999999946
210
0
220
0
230
1
0
CIRCLE
5
244
100
AcDbEntity
8
0
100
AcDbCircle
10
-19.049999999999976
20
-6.5749999999999167
30
0
40
1.1499999999999913
210
0
220
0
230
1
0
CIRCLE
5
245
100
AcDbEntity
8
0
100
AcDbCircle
10
-190.5
20
-6.5749999999999957
30
0
40
1.1499999999999901
210
0
220
0
230
1
0
LINE
5
246
100
AcDbEntity
8
0
100
AcDbLine
10
-191.04999999999995
20
68.950000000000074
30
0
11
-182.05000000000001
21
68.950000000000117
31
0
0
LINE
5
247
100
AcDbEntity
8
0
100
AcDbLine
10
-191.04999999999995
20
63.650000000000084
30
0
11
-182.04999999999998
21
63.650000000000126
31
0
0
LINE
5
248
100
AcDbEntity
8
0
100
AcDbLine
10
-178.45000000000005
20
76.77500000000002
30
0
11
-31.099999999999994
21
76.77500000000002
31
0
0
LINE
5
249
100
AcDbEntity
8
0
100
AcDbLine
10
-18.500000000000085
20
63.650000000000162
30
0
11
-27.500000000000053
21
63.650000000000198
31
0
0
LINE
5
250
100
AcDbEntity
8
0
100
AcDbLine
10
-18.500000000000085
20
68.950000000000159
30
0
11
-27.500000000000071
21
68.950000000000188
31
0
0
LINE
5
251
100
AcDbEntity
8
0
100
AcDbLine
10
-26.799999999999997
20
57.725000000000009
30
0
11
-2.5249999999999995
21
57.724999999999994
31
0
0
LINE
5
252
100
AcDbEntity
8
0
100
AcDbLine
10
0.57499999999997442
20
54.625
30
0
11
0.57500000000000662
21
2.5249999999999959
31
0
0
LINE
5
253
100
AcDbEntity
8
0
100
AcDbLine
10
-2.5249999999999773
20
-0.57500000000000107
30
0
11
-15.900000000000002
21
-0.57499999999993046
31
0
0
LINE
5
254
100
AcDbEntity
8
0
100
AcDbLine
10
-16.400000000000006
20
-6.574999999999954
30
0
11
-16.400000000000006
21
-1.0749999999999305
31
0
0
LINE
5
255
100
AcDbEntity
8
0
100
AcDbLine
10
-187.85000000000002
20
-6.5750000000000703
30
0
11
-187.85000000000002
21
-1.0749999999999948
31
0
0
LINE
5
256
100
AcDbEntity
8
0
100
AcDbLine
10
-193.14999999999998
20
-6.5749999999999975
30
0
11
-193.14999999999998
21
-1.0750000000000084
31
0
0
LINE
5
257
100
AcDbEntity
8
0
100
AcDbLine
10
-193.64999999999998
20
-0.57500000000000118
30
0
11
-207.02500000000001
21
-0.5749999999999944
31
0
0
LINE
5
258
100
AcDbEntity
8
0
100
AcDbLine
10
-210.12500000000003
20
2.524999999999995
30
0
11
-210.12500000000003
21
54.625
31
0
0
LINE
5
259
100
AcDbEntity
8
0
100
AcDbLine
10
-207.02500000000001
20
57.724999999999994
30
0
11
-182.75
21
57.725000000000009
31
0
0
LINE
5
260
100
AcDbEntity
8
0
100
AcDbLine
10
-187.35000000000008
20
-0.57499999999999485
30
0
11
-22.199999999999953
21
-0.5749999999999198
31
0
0
LINE
5
261
100
AcDbEntity
8
0
100
AcDbLine
10
-21.699999999999939
20
-1.0749999999999196
30
0
11
-21.699999999999946
21
-6.5749999999999185
31
0
0
ARC
5
262
100
AcDbEntity
8
0
100
AcDbCircle
10
-22.19999999999995
20
-1.0749999999999313
30
0
40
0.50000000000001155
210
0
220
-0
230
1
100
AcDbArc
50
0
51
90.000000000000398
0
LINE
5
263
100
AcDbEntity
8
0
100
AcDbLine
10
-173.68750000000003
20
22.074999999999999
30
0
11
-173.68749999999994
21
35.075000000000003
31
0
0
ENDSEC
0
SECTION
2
OBJECTS
0
DICTIONARY
5
C
100
AcDbDictionary
3
ACAD_GROUP
350
D
3
ACAD_MLINESTYLE
350
17
0
DICTIONARY
5
D
100
AcDbDictionary
0
DICTIONARY
5
1A
330
C
100
AcDbDictionary
0
DICTIONARY
5
17
100
AcDbDictionary
0
ENDSEC
0
EOF
