0
SECTION
2
HEADER
9
$INSUNITS
70
4
9
$ACADVER
1
AC1014
9
$HANDSEED
5
FFFF
0
ENDSEC
0
SECTION
2
TABLES
0
TABLE
2
VPORT
5
8
100
AcDbSymbolTable
0
ENDTAB
0
TABLE
2
LTYPE
5
5
100
AcDbSymbolTable
0
LTYPE
5
14
100
AcDbSymbolTableRecord
100
AcDbLinetypeTableRecord
2
BYBLOCK
70
0
0
LTYPE
5
15
100
AcDbSymbolTableRecord
100
AcDbLinetypeTableRecord
2
BYLAYER
70
0
0
ENDTAB
0
TABLE
2
LAYER
5
2
100
AcDbSymbolTable
70
2
0
LAYER
5
50
100
AcDbSymbolTableRecord
100
AcDbLayerTableRecord
2
0
70
0
6
CONTINUOUS
0
ENDTAB
0
TABLE
2
STYLE
5
3
100
AcDbSymbolTable
70
1
0
STYLE
5
11
100
AcDbSymbolTableRecord
100
AcDbTextStyleTableRecord
2
STANDARD
70
0
0
ENDTAB
0
TABLE
2
VIEW
5
6
100
AcDbSymbolTable
70
0
0
ENDTAB
0
TABLE
2
UCS
5
7
100
AcDbSymbolTable
70
0
0
ENDTAB
0
TABLE
2
APPID
5
9
100
AcDbSymbolTable
70
2
0
APPID
5
12
100
AcDbSymbolTableRecord
100
AcDbRegAppTableRecord
2
ACAD
70
0
0
ENDTAB
0
TABLE
2
DIMSTYLE
5
A
100
AcDbSymbolTable
70
1
0
ENDTAB
0
TABLE
2
BLOCK_RECORD
5
1
100
AcDbSymbolTable
70
1
0
BLOCK_RECORD
5
1F
100
AcDbSymbolTableRecord
100
AcDbBlockTableRecord
2
*MODEL_SPACE
0
BLOCK_RECORD
5
1B
100
AcDbSymbolTableRecord
100
AcDbBlockTableRecord
2
*PAPER_SPACE
0
ENDTAB
0
ENDSEC
0
SECTION
2
BLOCKS
0
BLOCK
5
20
100
AcDbEntity
100
AcDbBlockBegin
2
*MODEL_SPACE
0
ENDBLK
5
21
100
AcDbEntity
100
AcDbBlockEnd
0
BLOCK
5
1C
100
AcDbEntity
100
AcDbBlockBegin
2
*PAPER_SPACE
0
ENDBLK
5
1D
100
AcDbEntity
100
AcDbBlockEnd
0
ENDSEC
0
SECTION
2
ENTITIES
0
SPLINE
5
100
100
AcDbEntity
8
0
100
AcDbSpline
70
0
71
3
72
8
73
4
74
0
42
0.000000001
43
0.0000000001
44
0.0000000001
40
0
40
0
40
0
40
0
40
1
40
1
40
1
40
1
10
56.650028000000027
20
-21.050132999999995
30
0
10
56.374156000000006
20
-21.050132999999995
30
0
10
56.15014200000001
20
-20.826118999999998
30
0
10
56.15014200000001
20
-20.550246000000001
30
0
0
SPLINE
5
101
100
AcDbEntity
8
0
100
AcDbSpline
70
0
71
3
72
8
73
4
74
0
42
0.000000001
43
0.0000000001
44
0.0000000001
40
0
40
0
40
0
40
0
40
1
40
1
40
1
40
1
10
57.650154000000029
20
-17.049982999999994
30
0
10
57.926379000000018
20
-17.049982999999994
30
0
10
58.150040000000018
20
-17.273997000000001
30
0
10
58.150040000000018
20
-17.550221999999998
30
0
0
LINE
5
102
100
AcDbEntity
8
0
100
AcDbLine
10
56.650028000000027
20
-17.049982999999994
30
0
11
57.650154000000029
21
-17.049982999999994
31
0
0
SPLINE
5
103
100
AcDbEntity
8
0
100
AcDbSpline
70
0
71
3
72
8
73
4
74
0
42
0.000000001
43
0.0000000001
44
0.0000000001
40
0
40
0
40
0
40
0
40
1
40
1
40
1
40
1
10
58.150040000000018
20
-20.550246000000001
30
0
10
58.150040000000018
20
-20.826118999999998
30
0
10
57.926379000000018
20
-21.050132999999995
30
0
10
57.650154000000029
20
-21.050132999999995
30
0
0
LINE
5
104
100
AcDbEntity
8
0
100
AcDbLine
10
57.650154000000029
20
-21.050132999999995
30
0
11
56.650028000000027
21
-21.050132999999995
31
0
0
SPLINE
5
105
100
AcDbEntity
8
0
100
AcDbSpline
70
0
71
3
72
8
73
4
74
0
42
0.000000001
43
0.0000000001
44
0.0000000001
40
0
40
0
40
0
40
0
40
1
40
1
40
1
40
1
10
56.15014200000001
20
-17.550221999999998
30
0
10
56.15014200000001
20
-17.273997000000001
30
0
10
56.374156000000006
20
-17.049982999999994
30
0
10
56.650028000000027
20
-17.049982999999994
30
0
0
LINE
5
106
100
AcDbEntity
8
0
100
AcDbLine
10
56.15014200000001
20
-20.550246000000001
30
0
11
56.15014200000001
21
-17.550221999999998
31
0
0
LWPOLYLINE
5
107
100
AcDbEntity
8
0
100
AcDbPolyline
90
64
70
1
43
0.0
10
77.28700000000002
20
-59.175000000000004
10
77.28700000000002
20
-58.17499999999999
42
0.41421356237311585
10
76.786999999999978
20
-57.674999999999983
10
63.643250000000016
20
-57.674999999999983
42
0.41421356237311063
10
63.143250000000023
20
-58.17499999999999
10
63.143250000000009
20
-59.175000000000004
42
-0.4142135623730534
10
62.643250000000009
20
-59.675000000000004
10
61.15000000000002
20
-59.675000000000011
42
-0.41421356237310542
10
60.650000000000034
20
-59.175000000000004
10
60.65000000000002
20
-58.17499999999999
42
0.41421356237313145
10
60.15000000000002
20
-57.674999999999983
10
54.15000000000002
20
-57.674999999999983
42
0.41421356237310025
10
53.65000000000002
20
-58.17499999999999
10
53.65000000000002
20
-59.175000000000004
42
-0.4142135623730846
10
53.15000000000002
20
-59.675000000000004
10
31.600000000000009
20
-59.674999999999983
42
0.41421356237309243
10
31.099999999999998
20
-60.174999999999983
10
31.100000000000012
20
-73.174999999999983
42
0.41421356237312362
10
31.600000000000009
20
-73.674999999999997
10
177.94999999999999
20
-73.674999999999983
42
0.41421356237316787
10
178.44999999999999
20
-73.174999999999983
10
178.44999999999999
20
-60.174999999999976
42
0.4142135623731939
10
177.95000000000005
20
-59.674999999999983
10
156.40000000000003
20
-59.674999999999983
42
-0.41421356237311585
10
155.90000000000001
20
-59.174999999999983
10
155.90000000000003
20
-58.174999999999969
42
0.41421356237299617
10
155.40000000000006
20
-57.674999999999969
10
149.40000000000003
20
-57.674999999999976
42
0.41421356237308982
10
148.90000000000001
20
-58.174999999999969
10
148.90000000000001
20
-59.174999999999983
42
-0.4142135623730534
10
148.40000000000003
20
-59.674999999999997
10
142.14425000000006
20
-59.675000000000004
42
-0.41421356237307944
10
141.64425
20
-59.174999999999983
10
141.64425
20
-58.174999999999969
42
0.41421356237311585
10
141.14425
20
-57.674999999999969
10
132.76299999999998
20
-57.674999999999983
42
0.4142135623730534
10
132.26300000000006
20
-58.174999999999969
10
132.26300000000006
20
-59.174999999999969
42
-0.41421356237308982
10
131.76300000000001
20
-59.674999999999983
10
127.82500000000002
20
-59.674999999999976
42
-0.41421356237312101
10
127.32500000000002
20
-59.174999999999969
10
127.32500000000002
20
-58.174999999999969
42
0.41421356237307422
10
126.82500000000005
20
-57.674999999999969
10
120.82500000000003
20
-57.674999999999983
42
0.4142135623730846
10
120.32500000000002
20
-58.174999999999969
10
120.325
20
-59.174999999999969
42
-0.41421356237312623
10
119.82500000000002
20
-59.674999999999976
10
118.3
20
-59.674999999999983
42
-0.414213562373069
10
117.80000000000004
20
-59.174999999999969
10
117.80000000000001
20
-58.174999999999969
42
0.41421356237311585
10
117.30000000000001
20
-57.674999999999969
10
108.887
20
-57.674999999999976
42
0.41421356237311063
10
108.38700000000001
20
-58.17499999999999
10
108.38700000000001
20
-59.174999999999983
42
-0.41421356237307422
10
107.887
20
-59.674999999999997
10
101.663
20
-59.675000000000004
42
-0.41421356237312101
10
101.16300000000001
20
-59.175000000000004
10
101.16300000000001
20
-58.17499999999999
42
0.41421356237310542
10
100.66299999999998
20
-57.674999999999983
10
82.724999999999952
20
-57.674999999999983
42
0.41421356237308982
10
82.224999999999966
20
-58.17499999999999
10
82.224999999999966
20
-59.175000000000004
42
-0.41421356237302737
10
81.724999999999994
20
-59.675000000000004
10
77.786999999999978
20
-59.675000000000011
42
-0.414213562373069
0
LWPOLYLINE
5
108
100
AcDbEntity
8
0
100
AcDbPolyline
90
64
70
1
43
0.0
10
82.224999999999966
20
-59.175000000000004
42
-0.41421356237302737
10
81.724999999999994
20
-59.675000000000004
10
77.786999999999978
20
-59.675000000000011
42
-0.414213562373069
10
77.28700000000002
20
-59.175000000000004
10
77.28700000000002
20
-58.17499999999999
42
0.41421356237311585
10
76.786999999999978
20
-57.674999999999983
10
63.643250000000016
20
-57.674999999999983
42
0.41421356237311063
10
63.143250000000023
20
-58.17499999999999
10
63.143250000000009
20
-59.175000000000004
42
-0.4142135623730534
10
62.643250000000009
20
-59.675000000000004
10
61.15000000000002
20
-59.675000000000011
42
-0.41421356237310542
10
60.650000000000034
20
-59.175000000000004
10
60.65000000000002
20
-58.17499999999999
42
0.41421356237313145
10
60.15000000000002
20
-57.674999999999983
10
54.15000000000002
20
-57.674999999999983
42
0.41421356237310025
10
53.65000000000002
20
-58.17499999999999
10
53.65000000000002
20
-59.175000000000004
42
-0.4142135623730846
10
53.15000000000002
20
-59.675000000000004
10
31.600000000000009
20
-59.674999999999983
42
0.41421356237309243
10
31.099999999999998
20
-60.174999999999983
10
31.100000000000012
20
-73.174999999999983
42
0.41421356237312362
10
31.600000000000009
20
-73.674999999999997
10
177.94999999999999
20
-73.674999999999983
42
0.41421356237316787
10
178.44999999999999
20
-73.174999999999983
10
178.44999999999999
20
-60.174999999999976
42
0.41421356237316787
10
177.95000000000005
20
-59.674999999999983
10
156.40000000000003
20
-59.674999999999983
42
-0.41421356237311585
10
155.90000000000001
20
-59.174999999999983
10
155.90000000000003
20
-58.174999999999969
42
0.41421356237299617
10
155.40000000000006
20
-57.674999999999969
10
149.40000000000003
20
-57.674999999999976
42
0.41421356237308982
10
148.90000000000001
20
-58.174999999999969
10
148.90000000000001
20
-59.174999999999983
42
-0.4142135623730534
10
148.40000000000003
20
-59.674999999999997
10
142.14425000000006
20
-59.675000000000004
42
-0.41421356237307944
10
141.64425
20
-59.174999999999983
10
141.64425
20
-58.174999999999969
42
0.41421356237311585
10
141.14425
20
-57.674999999999969
10
132.76299999999998
20
-57.674999999999983
42
0.4142135623730534
10
132.26300000000006
20
-58.174999999999969
10
132.26300000000006
20
-59.174999999999969
42
-0.41421356237308982
10
131.76300000000001
20
-59.674999999999983
10
127.82500000000002
20
-59.674999999999976
42
-0.41421356237312101
10
127.32500000000002
20
-59.174999999999969
10
127.32500000000002
20
-58.174999999999969
42
0.41421356237307422
10
126.82500000000005
20
-57.674999999999969
10
120.82500000000003
20
-57.674999999999983
42
0.4142135623730846
10
120.32500000000002
20
-58.174999999999969
10
120.325
20
-59.174999999999969
42
-0.41421356237312623
10
119.82500000000002
20
-59.674999999999976
10
118.3
20
-59.674999999999983
42
-0.414213562373069
10
117.80000000000004
20
-59.174999999999969
10
117.80000000000001
20
-58.174999999999969
42
0.41421356237311585
10
117.30000000000001
20
-57.674999999999969
10
108.887
20
-57.674999999999976
42
0.41421356237311063
10
108.38700000000001
20
-58.17499999999999
10
108.38700000000001
20
-59.174999999999983
42
-0.41421356237307422
10
107.887
20
-59.674999999999997
10
101.663
20
-59.675000000000004
42
-0.41421356237312101
10
101.16300000000001
20
-59.175000000000004
10
101.16300000000001
20
-58.17499999999999
42
0.41421356237310542
10
100.66299999999998
20
-57.674999999999983
10
82.724999999999952
20
-57.674999999999983
42
0.41421356237308982
10
82.224999999999966
20
-58.17499999999999
0
CIRCLE
5
109
100
AcDbEntity
8
0
100
AcDbCircle
10
191.04999999999995
20
-66.300000000000068
30
0
40
1.1499999999999844
210
0
220
0
230
1
0
LWPOLYLINE
5
110
100
AcDbEntity
8
0
100
AcDbPolyline
90
16
70
1
43
0.0
10
193.15000000000001
20
1.0750000000000322
42
0.41421356237310591
10
193.65000000000006
20
0.57500000000004203
10
207.02500000000001
20
0.57500000000001994
42
-0.41421356237310458
10
210.12500000000003
20
-2.5249999999999684
10
210.12500000000003
20
-54.624999999999986
42
-0.41421356237310092
10
207.02500000000001
20
-57.72499999999998
10
182.75000000000003
20
-57.725000000000001
42
0.41421356237309503
10
181.55000000000001
20
-58.925000000000054
10
181.55000000000001
20
-63.150000000000105
10
181.55000000000001
20
-58.925000000000054
42
-0.41421356237308854
10
182.75000000000003
20
-57.725000000000009
10
207.02500000000001
20
-57.724999999999973
42
0.41421356237310508
10
210.12500000000003
20
-54.624999999999986
10
210.12500000000003
20
-2.5249999999999684
42
0.41421356237310519
10
207.02500000000001
20
0.57500000000002005
10
193.65000000000006
20
0.57500000000002505
42
-0.41421356237309498
0
LWPOLYLINE
5
111
100
AcDbEntity
8
0
100
AcDbPolyline
90
4
70
1
43
0.0
10
187.84999999999999
20
6.5750000000000197
42
-0.99999999999999989
10
193.15000000000001
20
6.5750000000000197
10
193.15000000000001
20
1.0750000000000326
10
193.14999999999998
20
6.5750000000000197
42
0.99999999999999989
0
CIRCLE
5
112
100
AcDbEntity
8
0
100
AcDbCircle
10
190.5
20
6.5750000000000197
30
0
40
1.1499999999999844
210
0
220
0
230
1
0
LWPOLYLINE
5
113
100
AcDbEntity
8
0
100
AcDbPolyline
90
6
70
1
43
0.0
10
2.5249999999999773
20
0.57500000000000129
10
15.900000000000002
20
0.57499999999993245
42
0.41421356237309659
10
16.400000000000006
20
1.0749999999999327
10
16.400000000000006
20
6.5749999999999176
10
16.400000000000002
20
1.0749999999999331
42
-0.41421356237309459
10
15.900000000000002
20
0.57499999999993245
0
LWPOLYLINE
5
114
100
AcDbEntity
8
0
100
AcDbPolyline
90
2
70
1
43
0.0
10
18.500000000000085
20
-63.650000000000162
10
27.500000000000071
20
-63.650000000000198
0
LWPOLYLINE
5
115
100
AcDbEntity
8
0
100
AcDbPolyline
90
4
70
1
43
0.0
10
21.699999999999946
20
6.5749999999999229
10
21.699999999999932
20
1.0749999999999338
10
21.699999999999946
20
6.5749999999999229
42
0.99999999999999989
10
16.400000000000006
20
6.5749999999999176
42
-0.99999999999999989
0
LWPOLYLINE
5
116
100
AcDbEntity
8
0
100
AcDbPolyline
90
6
70
1
43
0.0
10
2.5250000000000066
20
-57.725000000000009
42
-0.41421356237309054
10
-0.57499999999996831
20
-54.625
10
-0.57500000000000662
20
-2.524999999999995
42
-0.41421356237309276
10
2.5249999999999773
20
0.57500000000000218
42
0.41421356237309276
10
-0.57500000000000662
20
-2.524999999999995
10
-0.57499999999996831
20
-54.625
42
0.41421356237309137
0
CIRCLE
5
117
100
AcDbEntity
8
0
100
AcDbCircle
10
18.500000000000085
20
-66.300000000000153
30
0
40
1.1499999999999932
210
0
220
0
230
1
0
LWPOLYLINE
5
118
100
AcDbEntity
8
0
100
AcDbPolyline
90
8
70
1
43
0.0
10
27.500000000000071
20
-63.650000000000198
42
0.41421356237310025
10
28.00000000000006
20
-63.150000000000198
10
28.000000000000007
20
-58.924999999999997
42
0.41421356237309725
10
26.800000000000004
20
-57.725000000000009
10
2.5250000000000083
20
-57.725000000000009
10
26.800000000000004
20
-57.725000000000009
42
-0.41421356237309725
10
28.000000000000011
20
-58.924999999999997
10
28.000000000000071
20
-63.150000000000198
42
-0.41421356237309503
0
LWPOLYLINE
5
119
100
AcDbEntity
8
0
100
AcDbPolyline
90
2
70
1
43
0.0
10
18.500000000000085
20
-68.950000000000159
10
27.500000000000075
20
-68.950000000000188
0
LWPOLYLINE
5
120
100
AcDbEntity
8
0
100
AcDbPolyline
90
2
70
1
43
0.0
10
191.04999999999995
20
-68.950000000000074
42
0.99999999999999989
10
191.04999999999995
20
-63.650000000000077
42
-0.99999999999999989
0
LWPOLYLINE
5
121
100
AcDbEntity
8
0
100
AcDbPolyline
90
4
70
1
43
0.0
10
187.35000000000011
20
0.57500000000001772
42
0.41421356237310414
10
187.84999999999999
20
1.0750000000000182
10
187.84999999999999
20
6.5750000000000197
10
187.85000000000011
20
1.0750000000000182
42
-0.41421356237309537
0
CIRCLE
5
122
100
AcDbEntity
8
0
100
AcDbCircle
10
191.04999999999995
20
-66.300000000000068
30
0
40
1.1499999999999884
210
0
220
0
230
1
0
LWPOLYLINE
5
123
100
AcDbEntity
8
0
100
AcDbPolyline
90
2
70
1
43
0.0
10
22.199999999999953
20
0.57499999999992235
10
187.35000000000011
20
0.57500000000001772
0
LWPOLYLINE
5
124
100
AcDbEntity
8
0
100
AcDbPolyline
90
2
70
1
43
0.0
10
178.45000000000005
20
-76.775000000000006
10
31.099999999999994
20
-76.77500000000002
0
LWPOLYLINE
5
125
100
AcDbEntity
8
0
100
AcDbPolyline
90
6
70
1
43
0.0
10
182.05000000000001
20
-68.950000000000102
42
0.41421356237314705
10
181.55000000000001
20
-69.450000000000102
10
181.55000000000001
20
-73.675000000000054
42
-0.41421356237308915
10
178.45000000000005
20
-76.775000000000006
42
0.41421356237309503
10
181.55000000000001
20
-73.675000000000054
10
181.55000000000001
20
-69.450000000000102
42
-0.41421356237309503
0
CIRCLE
5
126
100
AcDbEntity
8
0
100
AcDbCircle
10
19.049999999999976
20
6.5749999999999211
30
0
40
1.1499999999999908
210
0
220
0
230
1
0
ARC
5
127
100
AcDbEntity
8
0
100
AcDbCircle
10
22.19999999999995
20
1.074999999999938
30
0
40
0.50000000000001599
210
0
220
0
230
1
100
AcDbArc
50
180
51
270.0000000000004
0
LWPOLYLINE
5
128
100
AcDbEntity
8
0
100
AcDbPolyline
90
2
70
1
43
0.0
10
18.500000000000085
20
-68.950000000000159
42
-0.99999999999999989
10
18.500000000000085
20
-63.650000000000162
42
0.99999999999999989
0
LWPOLYLINE
5
129
100
AcDbEntity
8
0
100
AcDbPolyline
90
2
70
1
43
0.0
10
28.000000000000078
20
-69.450000000000188
42
0.41421356237308721
10
27.500000000000075
20
-68.950000000000188
42
-0.41421356237309503
0
CIRCLE
5
130
100
AcDbEntity
8
0
100
AcDbCircle
10
18.500000000000085
20
-66.300000000000153
30
0
40
1.1499999999999946
210
0
220
0
230
1
0
LWPOLYLINE
5
131
100
AcDbEntity
8
0
100
AcDbPolyline
90
4
70
1
43
0.0
10
181.55000000000001
20
-63.150000000000105
42
0.41421356237309503
10
182.05000000000001
20
-63.650000000000105
10
191.04999999999995
20
-63.650000000000077
10
182.05000000000001
20
-63.650000000000105
42
-0.41421356237309503
0
LWPOLYLINE
5
132
100
AcDbEntity
8
0
100
AcDbPolyline
90
2
70
1
43
0.0
10
28.000000000000021
20
-73.675000000000054
10
28.000000000000078
20
-69.450000000000188
0
LWPOLYLINE
5
133
100
AcDbEntity
8
0
100
AcDbPolyline
90
2
70
1
43
0.0
10
191.04999999999995
20
-68.950000000000074
10
182.05000000000001
20
-68.950000000000102
0
LWPOLYLINE
5
134
100
AcDbEntity
8
0
100
AcDbPolyline
90
2
70
1
43
0.0
10
31.099999999999994
20
-76.775000000000034
42
-0.41421356237309465
10
28.000000000000025
20
-73.675000000000054
42
0.41421356237309209
0
CIRCLE
5
135
100
AcDbEntity
8
0
100
AcDbCircle
10
190.5
20
6.5750000000000197
30
0
40
1.1499999999999899
210
0
220
0
230
1
0
CIRCLE
5
136
100
AcDbEntity
8
0
100
AcDbCircle
10
19.049999999999976
20
6.5749999999999211
30
0
40
1.1499999999999913
210
0
220
0
230
1
0
LINE
5
137
100
AcDbEntity
8
0
100
AcDbLine
10
58.150040000000018
20
-17.550221999999998
30
0
11
58.150040000000018
21
-20.550246000000001
31
0
0
LWPOLYLINE
5
138
100
AcDbEntity
8
0
100
AcDbPolyline
90
8
70
1
43
0.0
10
193.02500000000003
20
-3.0249999999999999
10
193.02500000000003
20
-16.024999999999999
42
0.41421356237309503
10
193.52500000000003
20
-16.524999999999999
10
206.52500000000003
20
-16.525000000000002
42
0.41421356237309503
10
207.02500000000001
20
-16.024999999999999
10
207.02500000000003
20
-3.0249999999999999
42
0.41421356237309503
10
206.52500000000003
20
-2.5249999999999999
10
193.52500000000003
20
-2.5249999999999999
42
0.41421356237309503
0
LWPOLYLINE
5
139
100
AcDbEntity
8
0
100
AcDbPolyline
90
8
70
1
43
0.0
10
131.11250000000001
20
-22.074999999999999
10
131.11250000000001
20
-35.075000000000003
42
0.41421356237309503
10
131.61250000000001
20
-35.575000000000003
10
144.61250000000001
20
-35.575000000000003
42
0.41421356237309503
10
145.11250000000001
20
-35.075000000000003
10
145.11250000000001
20
-22.074999999999999
42
0.41421356237309503
10
144.61250000000001
20
-21.575000000000003
10
131.61250000000001
20
-21.575000000000003
42
0.41421356237309503
0
LWPOLYLINE
5
140
100
AcDbEntity
8
0
100
AcDbPolyline
90
8
70
1
43
0.0
10
187.47499999999999
20
-2.5249999999999999
10
174.47500000000002
20
-2.5249999999999999
42
0.41421356237309503
10
173.97500000000002
20
-3.0249999999999999
10
173.97500000000002
20
-16.024999999999999
42
0.41421356237309503
10
174.47500000000002
20
-16.524999999999999
10
187.47499999999999
20
-16.525000000000002
42
0.41421356237309503
10
187.97499999999999
20
-16.024999999999999
10
187.97499999999999
20
-3.0249999999999999
42
0.41421356237309503
0
LWPOLYLINE
5
141
100
AcDbEntity
8
0
100
AcDbPolyline
90
8
70
1
43
0.0
10
78.4375
20
-22.074999999999999
42
0.41421356237309503
10
77.9375
20
-21.575000000000003
10
64.9375
20
-21.575000000000003
42
0.41421356237309503
10
64.4375
20
-22.074999999999999
10
64.4375
20
-35.075000000000003
42
0.41421356237309503
10
64.9375
20
-35.575000000000003
10
77.9375
20
-35.575000000000003
42
0.41421356237309503
10
78.4375
20
-35.075000000000003
0
LWPOLYLINE
5
142
100
AcDbEntity
8
0
100
AcDbPolyline
90
8
70
1
43
0.0
10
58.88750000000001
20
-21.575000000000003
10
45.887500000000003
20
-21.575000000000003
42
0.41421356237309503
10
45.387500000000003
20
-22.074999999999999
10
45.387500000000003
20
-35.075000000000003
42
0.41421356237309503
10
45.887500000000003
20
-35.575000000000003
10
58.88750000000001
20
-35.575000000000003
42
0.41421356237309503
10
59.387500000000003
20
-35.075000000000003
10
59.387500000000003
20
-22.074999999999999
42
0.41421356237309503
0
LWPOLYLINE
5
143
100
AcDbEntity
8
0
100
AcDbPolyline
90
8
70
1
43
0.0
10
150.16249999999999
20
-35.075000000000003
42
0.41421356237309503
10
150.66249999999999
20
-35.575000000000003
10
163.66250000000002
20
-35.575000000000003
42
0.41421356237309503
10
164.16250000000002
20
-35.075000000000003
10
164.16250000000002
20
-22.074999999999999
42
0.41421356237309503
10
163.66250000000002
20
-21.575000000000003
10
150.66249999999999
20
-21.575000000000003
42
0.41421356237309503
10
150.16249999999999
20
-22.074999999999999
0
LWPOLYLINE
5
144
100
AcDbEntity
8
0
100
AcDbPolyline
90
8
70
1
43
0.0
10
83.487500000000011
20
-22.074999999999999
10
83.487499999999983
20
-35.075000000000003
42
0.41421356237309503
10
83.987499999999997
20
-35.575000000000003
10
96.987500000000011
20
-35.575000000000003
42
0.41421356237309503
10
97.487500000000011
20
-35.075000000000003
10
97.487500000000011
20
-22.074999999999999
42
0.41421356237309503
10
96.987500000000011
20
-21.575000000000003
10
83.987499999999997
20
-21.575000000000003
42
0.41421356237309503
0
LWPOLYLINE
5
145
100
AcDbEntity
8
0
100
AcDbPolyline
90
8
70
1
43
0.0
10
92.725000000000009
20
-3.0249999999999999
42
0.41421356237309503
10
92.224999999999994
20
-2.5249999999999999
10
79.224999999999994
20
-2.5249999999999999
42
0.41421356237309503
10
78.724999999999994
20
-3.0249999999999999
10
78.724999999999994
20
-16.024999999999999
42
0.41421356237309503
10
79.224999999999994
20
-16.524999999999999
10
92.224999999999994
20
-16.525000000000002
42
0.41421356237309503
10
92.724999999999994
20
-16.024999999999999
0
LWPOLYLINE
5
146
100
AcDbEntity
8
0
100
AcDbPolyline
90
8
70
1
43
0.0
10
112.0625
20
-35.075000000000003
42
0.41421356237309503
10
112.56250000000001
20
-35.575000000000003
10
125.5625
20
-35.575000000000003
42
0.41421356237309503
10
126.06250000000001
20
-35.075000000000003
10
126.06250000000001
20
-22.074999999999999
42
0.41421356237309503
10
125.5625
20
-21.575000000000003
10
112.56250000000001
20
-21.575000000000003
42
0.41421356237309503
10
112.0625
20
-22.074999999999999
0
LWPOLYLINE
5
147
100
AcDbEntity
8
0
100
AcDbPolyline
90
8
70
1
43
0.0
10
16.525000000000002
20
-3.0249999999999999
42
0.41421356237309503
10
16.024999999999999
20
-2.5249999999999999
10
3.0249999999999999
20
-2.5249999999999999
42
0.41421356237309503
10
2.5249999999999999
20
-3.0249999999999999
10
2.5249999999999999
20
-16.024999999999999
42
0.41421356237309503
10
3.0249999999999999
20
-16.525000000000002
10
16.024999999999999
20
-16.525000000000002
42
0.41421356237309503
10
16.525000000000002
20
-16.024999999999999
0
LWPOLYLINE
5
148
100
AcDbEntity
8
0
100
AcDbPolyline
90
8
70
1
43
0.0
10
41.125
20
-16.524999999999999
10
54.125000000000007
20
-16.525000000000002
42
0.41421356237309503
10
54.625
20
-16.024999999999999
10
54.625
20
-3.0249999999999999
42
0.41421356237309503
10
54.125000000000007
20
-2.5249999999999999
10
41.125
20
-2.5249999999999999
42
0.41421356237309503
10
40.625
20
-3.0249999999999999
10
40.625
20
-16.024999999999999
42
0.41421356237309503
0
LWPOLYLINE
5
149
100
AcDbEntity
8
0
100
AcDbPolyline
90
8
70
1
43
0.0
10
22.074999999999999
20
-2.5249999999999999
42
0.41421356237309503
10
21.575000000000003
20
-3.0249999999999999
10
21.575000000000003
20
-16.024999999999999
42
0.41421356237309503
10
22.074999999999999
20
-16.524999999999999
10
35.075000000000003
20
-16.525000000000002
42
0.41421356237309503
10
35.575000000000003
20
-16.024999999999999
10
35.575000000000003
20
-3.0249999999999999
42
0.41421356237309503
10
35.075000000000003
20
-2.5249999999999999
0
LWPOLYLINE
5
150
100
AcDbEntity
8
0
100
AcDbPolyline
90
8
70
1
43
0.0
10
59.675000000000004
20
-16.024999999999999
42
0.41421356237309503
10
60.174999999999997
20
-16.525000000000002
10
73.174999999999997
20
-16.525000000000002
42
0.41421356237309503
10
73.674999999999997
20
-16.024999999999999
10
73.674999999999997
20
-3.0249999999999999
42
0.41421356237309503
10
73.174999999999997
20
-2.5249999999999999
10
60.174999999999997
20
-2.5249999999999999
42
0.41421356237309503
10
59.675000000000004
20
-3.0249999999999999
0
LWPOLYLINE
5
151
100
AcDbEntity
8
0
100
AcDbPolyline
90
8
70
1
43
0.0
10
40.337500000000006
20
-22.074999999999999
42
0.41421356237309503
10
39.837499999999999
20
-21.575000000000003
10
26.837499999999999
20
-21.575000000000003
42
0.41421356237309503
10
26.337499999999999
20
-22.074999999999999
10
26.337499999999999
20
-35.075000000000003
42
0.41421356237309503
10
26.837499999999999
20
-35.575000000000003
10
39.837499999999999
20
-35.575000000000003
42
0.41421356237309503
10
40.337500000000006
20
-35.075000000000003
0
LWPOLYLINE
5
152
100
AcDbEntity
8
0
100
AcDbPolyline
90
8
70
1
43
0.0
10
7.7875000000000005
20
-21.575000000000003
42
0.41421356237309503
10
7.2874999999999996
20
-22.074999999999999
10
7.2874999999999996
20
-35.075000000000003
42
0.41421356237309503
10
7.7875000000000005
20
-35.575000000000003
10
20.787500000000001
20
-35.575000000000003
42
0.41421356237309503
10
21.287500000000001
20
-35.075000000000003
10
21.287500000000001
20
-22.074999999999999
42
0.41421356237309503
10
20.787500000000001
20
-21.575000000000003
0
LWPOLYLINE
5
153
100
AcDbEntity
8
0
100
AcDbPolyline
90
8
70
1
43
0.0
10
97.775000000000006
20
-16.024999999999999
42
0.41421356237309503
10
98.275000000000006
20
-16.525000000000002
10
111.27500000000001
20
-16.525000000000002
42
0.41421356237309503
10
111.77500000000002
20
-16.024999999999999
10
111.77500000000002
20
-3.0249999999999999
42
0.41421356237309503
10
111.27500000000001
20
-2.5249999999999999
10
98.275000000000006
20
-2.5249999999999999
42
0.41421356237309503
10
97.775000000000006
20
-3.0249999999999999
0
LWPOLYLINE
5
154
100
AcDbEntity
8
0
100
AcDbPolyline
90
8
70
1
43
0.0
10
116.82500000000002
20
-16.024999999999999
42
0.41421356237309503
10
117.32500000000002
20
-16.525000000000002
10
130.32499999999999
20
-16.525000000000002
42
0.41421356237309503
10
130.82499999999999
20
-16.024999999999999
10
130.82499999999999
20
-3.0249999999999999
42
0.41421356237309503
10
130.32499999999999
20
-2.5249999999999999
10
117.32500000000002
20
-2.5249999999999999
42
0.41421356237309503
10
116.82500000000002
20
-3.0249999999999999
0
LWPOLYLINE
5
155
100
AcDbEntity
8
0
100
AcDbPolyline
90
8
70
1
43
0.0
10
135.875
20
-3.0249999999999999
10
135.875
20
-16.024999999999999
42
0.41421356237309503
10
136.375
20
-16.524999999999999
10
149.375
20
-16.525000000000002
42
0.41421356237309503
10
149.875
20
-16.024999999999999
10
149.875
20
-3.0249999999999999
42
0.41421356237309503
10
149.375
20
-2.5249999999999999
10
136.375
20
-2.5249999999999999
42
0.41421356237309503
0
LWPOLYLINE
5
156
100
AcDbEntity
8
0
100
AcDbPolyline
90
8
70
1
43
0.0
10
111.77500000000002
20
-41.125
42
0.41421356237309503
10
111.27500000000001
20
-40.625
10
98.275000000000006
20
-40.625
42
0.41421356237309503
10
97.77500000000002
20
-41.125
10
97.775000000000006
20
-54.125000000000007
42
0.41421356237309503
10
98.275000000000006
20
-54.625
10
111.27500000000001
20
-54.625
42
0.41421356237309503
10
111.77500000000002
20
-54.125000000000007
0
LWPOLYLINE
5
157
100
AcDbEntity
8
0
100
AcDbPolyline
90
8
70
1
43
0.0
10
169.21250000000001
20
-35.075000000000003
42
0.41421356237309503
10
169.71250000000001
20
-35.575000000000003
10
182.71250000000003
20
-35.575000000000003
42
0.41421356237309503
10
183.21250000000003
20
-35.075000000000003
10
183.21250000000003
20
-22.074999999999999
42
0.41421356237309503
10
182.71250000000003
20
-21.575000000000003
10
169.71250000000001
20
-21.575000000000003
42
0.41421356237309503
10
169.21250000000001
20
-22.074999999999999
0
LWPOLYLINE
5
158
100
AcDbEntity
8
0
100
AcDbPolyline
90
8
70
1
43
0.0
10
41.125
20
-40.625
42
0.41421356237309503
10
40.625
20
-41.125
10
40.625
20
-54.125000000000007
42
0.41421356237309503
10
41.125
20
-54.625
10
54.125000000000007
20
-54.625
42
0.41421356237309503
10
54.625
20
-54.125000000000007
10
54.625
20
-41.125
42
0.41421356237309503
10
54.125000000000007
20
-40.625
0
LWPOLYLINE
5
159
100
AcDbEntity
8
0
100
AcDbPolyline
90
8
70
1
43
0.0
10
168.92500000000001
20
-16.024999999999999
10
168.92500000000001
20
-3.0249999999999999
42
0.41421356237309503
10
168.42500000000001
20
-2.5249999999999999
10
155.42500000000001
20
-2.5249999999999999
42
0.41421356237309503
10
154.92500000000001
20
-3.0249999999999999
10
154.92500000000001
20
-16.024999999999999
42
0.41421356237309503
10
155.42500000000001
20
-16.524999999999999
10
168.42500000000001
20
-16.525000000000002
42
0.41421356237309503
0
LWPOLYLINE
5
160
100
AcDbEntity
8
0
100
AcDbPolyline
90
8
70
1
43
0.0
10
73.674999999999997
20
-54.125000000000007
10
73.674999999999997
20
-41.125
42
0.41421356237309503
10
73.174999999999997
20
-40.625
10
60.174999999999997
20
-40.625
42
0.41421356237309503
10
59.675000000000004
20
-41.125
10
59.675000000000004
20
-54.125000000000007
42
0.41421356237309503
10
60.174999999999997
20
-54.625
10
73.174999999999997
20
-54.625
42
0.41421356237309503
0
LWPOLYLINE
5
161
100
AcDbEntity
8
0
100
AcDbPolyline
90
8
70
1
43
0.0
10
16.024999999999999
20
-40.625
10
3.0249999999999999
20
-40.625
42
0.41421356237309503
10
2.5249999999999999
20
-41.125
10
2.5249999999999999
20
-54.125000000000007
42
0.41421356237309503
10
3.0249999999999999
20
-54.625
10
16.024999999999999
20
-54.625
42
0.41421356237309503
10
16.525000000000002
20
-54.125000000000007
10
16.525000000000002
20
-41.125
42
0.41421356237309503
0
LWPOLYLINE
5
162
100
AcDbEntity
8
0
100
AcDbPolyline
90
8
70
1
43
0.0
10
188.26249999999999
20
-35.075000000000003
42
0.41421356237309503
10
188.76249999999999
20
-35.575000000000003
10
201.76249999999999
20
-35.575000000000003
42
0.41421356237309503
10
202.26249999999999
20
-35.075000000000003
10
202.26249999999999
20
-22.074999999999999
42
0.41421356237309503
10
201.76249999999999
20
-21.575000000000003
10
188.76249999999999
20
-21.575000000000003
42
0.41421356237309503
10
188.26249999999999
20
-22.074999999999999
0
LWPOLYLINE
5
163
100
AcDbEntity
8
0
100
AcDbPolyline
90
8
70
1
43
0.0
10
22.074999999999999
20
-40.625
42
0.41421356237309503
10
21.575000000000003
20
-41.125
10
21.575000000000003
20
-54.125000000000007
42
0.41421356237309503
10
22.074999999999999
20
-54.625
10
35.075000000000003
20
-54.625
42
0.41421356237309503
10
35.575000000000003
20
-54.125000000000007
10
35.575000000000003
20
-41.125
42
0.41421356237309503
10
35.075000000000003
20
-40.625
0
LWPOLYLINE
5
164
100
AcDbEntity
8
0
100
AcDbPolyline
90
8
70
1
43
0.0
10
78.724999999999994
20
-54.125000000000007
42
0.41421356237309503
10
79.224999999999994
20
-54.625
10
92.224999999999994
20
-54.625
42
0.41421356237309503
10
92.724999999999994
20
-54.125000000000007
10
92.725000000000009
20
-41.125
42
0.41421356237309503
10
92.224999999999994
20
-40.625
10
79.224999999999994
20
-40.625
42
0.41421356237309503
10
78.724999999999994
20
-41.125
0
LWPOLYLINE
5
165
100
AcDbEntity
8
0
100
AcDbPolyline
90
8
70
1
43
0.0
10
135.875
20
-54.125000000000007
42
0.41421356237309503
10
136.375
20
-54.625
10
149.375
20
-54.625
42
0.41421356237309503
10
149.875
20
-54.125000000000007
10
149.875
20
-41.125
42
0.41421356237309503
10
149.375
20
-40.625
10
136.375
20
-40.625
42
0.41421356237309503
10
135.875
20
-41.125
0
LWPOLYLINE
5
166
100
AcDbEntity
8
0
100
AcDbPolyline
90
8
70
1
43
0.0
10
173.97500000000002
20
-41.125
10
173.97500000000002
20
-54.125000000000007
42
0.41421356237309503
10
174.47500000000002
20
-54.625
10
187.47499999999999
20
-54.625
42
0.41421356237309503
10
187.97499999999999
20
-54.125000000000007
10
187.97499999999999
20
-41.125
42
0.41421356237309503
10
187.47499999999999
20
-40.625
10
174.47500000000002
20
-40.625
42
0.41421356237309503
0
LWPOLYLINE
5
167
100
AcDbEntity
8
0
100
AcDbPolyline
90
8
70
1
43
0.0
10
155.42500000000001
20
-54.625
10
168.42500000000001
20
-54.625
42
0.41421356237309503
10
168.92500000000001
20
-54.125000000000007
10
168.92500000000001
20
-41.125
42
0.41421356237309503
10
168.42500000000001
20
-40.625
10
155.42500000000001
20
-40.625
42
0.41421356237309503
10
154.92500000000001
20
-41.125
10
154.92500000000001
20
-54.125000000000007
42
0.41421356237309503
0
LWPOLYLINE
5
168
100
AcDbEntity
8
0
100
AcDbPolyline
90
8
70
1
43
0.0
10
207.02500000000003
20
-41.125
42
0.41421356237309503
10
206.52500000000003
20
-40.625
10
193.52500000000003
20
-40.625
42
0.41421356237309503
10
193.02500000000003
20
-41.125
10
193.02500000000003
20
-54.125000000000007
42
0.41421356237309503
10
193.52500000000003
20
-54.625
10
206.52500000000003
20
-54.625
42
0.41421356237309503
10
207.02500000000003
20
-54.125000000000007
0
LWPOLYLINE
5
169
100
AcDbEntity
8
0
100
AcDbPolyline
90
8
70
1
43
0.0
10
117.32500000000002
20
-40.625
42
0.41421356237309503
10
116.82500000000002
20
-41.125
10
116.82500000000002
20
-54.125000000000007
42
0.41421356237309503
10
117.32500000000002
20
-54.625
10
130.32499999999999
20
-54.625
42
0.41421356237309503
10
130.82499999999999
20
-54.125000000000007
10
130.82499999999999
20
-41.125
42
0.41421356237309503
10
130.32499999999999
20
-40.625
0
ENDSEC
0
SECTION
2
OBJECTS
0
DICTIONARY
5
C
100
AcDbDictionary
3
ACAD_GROUP
350
D
3
ACAD_MLINESTYLE
350
17
0
DICTIONARY
5
D
100
AcDbDictionary
0
DICTIONARY
5
1A
330
C
100
AcDbDictionary
0
DICTIONARY
5
17
100
AcDbDictionary
0
ENDSEC
0
EOF
